<ttFont>
<head>
    <!-- Most of this table will be recalculated by the compiler -->
    <tableVersion value="1.0"/>
    <fontRevision value="1.0"/>
    <checkSumAdjustment value="0x5d89a548"/>
    <magicNumber value="0x5f0f3cf5"/>
    <flags value="00000000 00001011"/>
    <unitsPerEm value="1000"/>
    <created value="Thu Apr  4 20:55:22 2019"/>
    <modified value="Thu Apr  4 20:55:23 2019"/>
    <xMin value="-164"/>
    <yMin value="-264"/>
    <xMax value="1128"/>
    <yMax value="1003"/>
    <macStyle value="00000000 00000000"/>
    <lowestRecPPEM value="6"/>
    <fontDirectionHint value="2"/>
    <indexToLocFormat value="0"/>
    <glyphDataFormat value="0"/>
  </head>
    <TTGlyph name=".notdef" xMin="60" yMin="-100" xMax="454" yMax="750">
      <contour>
        <pt x="60" y="-100" on="1"/>
        <pt x="60" y="750" on="1"/>
        <pt x="454" y="750" on="1"/>
        <pt x="454" y="-100" on="1"/>
      </contour>
    </TTGlyph>
    <TTGlyph name="A" xMin="-49" yMin="0" xMax="609" yMax="700">
      <contour>
        <pt x="-49" y="0" on="1"/>
        <pt x="381" y="700" on="1"/>
        <pt x="473" y="700" on="1"/>
        <pt x="609" y="0" on="1"/>
        <pt x="531" y="0" on="1"/>
        <pt x="490" y="220" on="1"/>
        <pt x="168" y="220" on="1"/>
        <pt x="35" y="0" on="1"/>
      </contour>
      <contour>
        <pt x="208" y="286" on="1"/>
        <pt x="478" y="286" on="1"/>
        <pt x="414" y="627" on="1"/>
      </contour>
    </TTGlyph>
    <TTGlyph name="AE" xMin="-49" yMin="0" xMax="996" yMax="700">
      <contour>
        <pt x="-49" y="0" on="1"/>
        <pt x="382" y="700" on="1"/>
        <pt x="996" y="700" on="1"/>
        <pt x="981" y="632" on="1"/>
        <pt x="490" y="632" on="1"/>
        <pt x="534" y="387" on="1"/>
        <pt x="791" y="387" on="1"/>
        <pt x="777" y="320" on="1"/>
        <pt x="546" y="320" on="1"/>
        <pt x="592" y="68" on="1"/>
        <pt x="861" y="68" on="1"/>
        <pt x="847" y="0" on="1"/>
        <pt x="529" y="0" on="1"/>
        <pt x="489" y="220" on="1"/>
        <pt x="166" y="220" on="1"/>
        <pt x="32" y="0" on="1"/>
      </contour>
      <contour>
        <pt x="207" y="286" on="1"/>
        <pt x="478" y="286" on="1"/>
        <pt x="416" y="629" on="1"/>
      </contour>
    </TTGlyph>
    <TTGlyph name="Aacute" xMin="-49" yMin="0" xMax="609" yMax="915">
      <component glyphName="A" x="0" y="0" flags="0x204"/>
      <component glyphName="acute" x="153" y="199" flags="0x4"/>
    </TTGlyph>
    <TTGlyph name="Abreve" xMin="-49" yMin="0" xMax="616" yMax="928">
      <component glyphName="A" x="0" y="0" flags="0x204"/>
      <component glyphName="breve" x="115" y="199" flags="0x4"/>
    </TTGlyph>
    <TTGlyph name="Acircumflex" xMin="-49" yMin="0" xMax="609" yMax="916">
      <component glyphName="A" x="0" y="0" flags="0x204"/>
      <component glyphName="circumflex" x="116" y="199" flags="0x4"/>
    </TTGlyph>
    <TTGlyph name="Adieresis" xMin="-49" yMin="0" xMax="609" yMax="899">
      <component glyphName="A" x="0" y="0" flags="0x204"/>
      <component glyphName="dieresis" x="106" y="199" flags="0x4"/>
    </TTGlyph>
    <TTGlyph name="Agrave" xMin="-49" yMin="0" xMax="609" yMax="915">
      <component glyphName="A" x="0" y="0" flags="0x204"/>
      <component glyphName="grave" x="118" y="199" flags="0x4"/>
    </TTGlyph>
    <TTGlyph name="Amacron" xMin="-49" yMin="0" xMax="609" yMax="873">
      <component glyphName="A" x="0" y="0" flags="0x204"/>
      <component glyphName="macron" x="115" y="199" flags="0x4"/>
    </TTGlyph>
    <TTGlyph name="Aogonek" xMin="-49" yMin="-222" xMax="609" yMax="700">
      <contour>
        <pt x="-49" y="0" on="1"/>
        <pt x="381" y="700" on="1"/>
        <pt x="473" y="700" on="1"/>
        <pt x="609" y="0" on="1"/>
        <pt x="542" y="-35" on="0"/>
        <pt x="478" y="-100" on="0"/>
        <pt x="478" y="-134" on="1"/>
        <pt x="478" y="-153" on="0"/>
        <pt x="506" y="-177" on="0"/>
        <pt x="528" y="-177" on="1"/>
        <pt x="539" y="-177" on="0"/>
        <pt x="564" y="-171" on="0"/>
        <pt x="574" y="-166" on="1"/>
        <pt x="579" y="-206" on="1"/>
        <pt x="563" y="-213" on="0"/>
        <pt x="530" y="-222" on="0"/>
        <pt x="513" y="-222" on="1"/>
        <pt x="473" y="-222" on="0"/>
        <pt x="425" y="-182" on="0"/>
        <pt x="425" y="-149" on="1"/>
        <pt x="425" y="-109" on="0"/>
        <pt x="487" y="-35" on="0"/>
        <pt x="547" y="0" on="1"/>
        <pt x="531" y="0" on="1"/>
        <pt x="490" y="220" on="1"/>
        <pt x="168" y="220" on="1"/>
        <pt x="35" y="0" on="1"/>
      </contour>
      <contour>
        <pt x="208" y="286" on="1"/>
        <pt x="478" y="286" on="1"/>
        <pt x="414" y="627" on="1"/>
      </contour>
    </TTGlyph>
    <TTGlyph name="Aring" xMin="-49" yMin="0" xMax="609" yMax="1003">
      <component glyphName="A" x="0" y="0" flags="0x204"/>
      <component glyphName="ring" x="115" y="199" flags="0x4"/>
    </TTGlyph>
    <TTGlyph name="Atilde" xMin="-49" yMin="0" xMax="628" yMax="904">
      <component glyphName="A" x="0" y="0" flags="0x204"/>
      <component glyphName="tilde" x="120" y="199" flags="0x4"/>
    </TTGlyph>
    <TTGlyph name="B" xMin="22" yMin="0" xMax="626" yMax="700">
      <contour>
        <pt x="171" y="700" on="1"/>
        <pt x="431" y="700" on="1"/>
        <pt x="521" y="700" on="0"/>
        <pt x="626" y="616" on="0"/>
        <pt x="626" y="544" on="1"/>
        <pt x="626" y="479" on="0"/>
        <pt x="551" y="381" on="0"/>
        <pt x="488" y="359" on="1"/>
        <pt x="536" y="340" on="0"/>
        <pt x="590" y="268" on="0"/>
        <pt x="590" y="219" on="1"/>
        <pt x="590" y="171" on="0"/>
        <pt x="551" y="90" on="0"/>
        <pt x="483" y="33" on="0"/>
        <pt x="387" y="0" on="0"/>
        <pt x="331" y="0" on="1"/>
        <pt x="22" y="0" on="1"/>
      </contour>
      <contour>
        <pt x="420" y="633" on="1"/>
        <pt x="232" y="633" on="1"/>
        <pt x="181" y="395" on="1"/>
        <pt x="386" y="395" on="1"/>
        <pt x="458" y="395" on="0"/>
        <pt x="550" y="472" on="0"/>
        <pt x="550" y="532" on="1"/>
        <pt x="550" y="579" on="0"/>
        <pt x="480" y="633" on="0"/>
      </contour>
      <contour>
        <pt x="332" y="67" on="1"/>
        <pt x="413" y="67" on="0"/>
        <pt x="514" y="152" on="0"/>
        <pt x="514" y="218" on="1"/>
        <pt x="514" y="270" on="0"/>
        <pt x="436" y="331" on="0"/>
        <pt x="369" y="331" on="1"/>
        <pt x="167" y="331" on="1"/>
        <pt x="111" y="67" on="1"/>
      </contour>
    </TTGlyph>
    <TTGlyph name="C" xMin="64" yMin="-11" xMax="718" yMax="709">
      <contour>
        <pt x="401" y="59" on="1"/>
        <pt x="463" y="59" on="0"/>
        <pt x="582" y="106" on="0"/>
        <pt x="627" y="148" on="1"/>
        <pt x="667" y="95" on="1"/>
        <pt x="610" y="44" on="0"/>
        <pt x="468" y="-11" on="0"/>
        <pt x="396" y="-11" on="1"/>
        <pt x="325" y="-11" on="0"/>
        <pt x="203" y="39" on="0"/>
        <pt x="115" y="128" on="0"/>
        <pt x="64" y="249" on="0"/>
        <pt x="64" y="319" on="1"/>
        <pt x="64" y="399" on="0"/>
        <pt x="125" y="541" on="0"/>
        <pt x="228" y="647" on="0"/>
        <pt x="368" y="709" on="0"/>
        <pt x="446" y="709" on="1"/>
        <pt x="533" y="709" on="0"/>
        <pt x="672" y="644" on="0"/>
        <pt x="718" y="584" on="1"/>
        <pt x="661" y="532" on="1"/>
        <pt x="626" y="583" on="0"/>
        <pt x="511" y="639" on="0"/>
        <pt x="442" y="639" on="1"/>
        <pt x="379" y="639" on="0"/>
        <pt x="269" y="590" on="0"/>
        <pt x="188" y="504" on="0"/>
        <pt x="141" y="388" on="0"/>
        <pt x="141" y="322" on="1"/>
        <pt x="141" y="266" on="0"/>
        <pt x="180" y="169" on="0"/>
        <pt x="249" y="99" on="0"/>
        <pt x="345" y="59" on="0"/>
      </contour>
    </TTGlyph>
    <TTGlyph name="Cacute" xMin="64" yMin="-11" xMax="718" yMax="915">
      <component glyphName="C" x="0" y="0" flags="0x204"/>
      <component glyphName="acute" x="183" y="199" flags="0x4"/>
    </TTGlyph>
    <TTGlyph name="Ccaron" xMin="64" yMin="-11" xMax="718" yMax="917">
      <component glyphName="C" x="0" y="0" flags="0x204"/>
      <component glyphName="caron" x="147" y="199" flags="0x4"/>
    </TTGlyph>
    <TTGlyph name="Ccedilla" xMin="64" yMin="-228" xMax="718" yMax="709">
      <contour>
        <pt x="401" y="59" on="1"/>
        <pt x="463" y="59" on="0"/>
        <pt x="582" y="106" on="0"/>
        <pt x="627" y="148" on="1"/>
        <pt x="667" y="95" on="1"/>
        <pt x="612" y="46" on="0"/>
        <pt x="475" y="-10" on="0"/>
        <pt x="405" y="-11" on="1"/>
        <pt x="382" y="-56" on="1"/>
        <pt x="419" y="-60" on="0"/>
        <pt x="460" y="-98" on="0"/>
        <pt x="460" y="-129" on="1"/>
        <pt x="460" y="-172" on="0"/>
        <pt x="392" y="-228" on="0"/>
        <pt x="341" y="-228" on="1"/>
        <pt x="307" y="-228" on="0"/>
        <pt x="249" y="-203" on="0"/>
        <pt x="231" y="-181" on="1"/>
        <pt x="264" y="-151" on="1"/>
        <pt x="280" y="-169" on="0"/>
        <pt x="319" y="-186" on="0"/>
        <pt x="342" y="-186" on="1"/>
        <pt x="373" y="-186" on="0"/>
        <pt x="412" y="-157" on="0"/>
        <pt x="412" y="-134" on="1"/>
        <pt x="412" y="-114" on="0"/>
        <pt x="379" y="-91" on="0"/>
        <pt x="351" y="-91" on="1"/>
        <pt x="322" y="-91" on="1"/>
        <pt x="362" y="-9" on="1"/>
        <pt x="298" y="-3" on="0"/>
        <pt x="188" y="51" on="0"/>
        <pt x="109" y="138" on="0"/>
        <pt x="64" y="253" on="0"/>
        <pt x="64" y="319" on="1"/>
        <pt x="64" y="399" on="0"/>
        <pt x="125" y="541" on="0"/>
        <pt x="228" y="647" on="0"/>
        <pt x="368" y="709" on="0"/>
        <pt x="446" y="709" on="1"/>
        <pt x="533" y="709" on="0"/>
        <pt x="672" y="644" on="0"/>
        <pt x="718" y="584" on="1"/>
        <pt x="661" y="532" on="1"/>
        <pt x="626" y="583" on="0"/>
        <pt x="511" y="639" on="0"/>
        <pt x="442" y="639" on="1"/>
        <pt x="379" y="639" on="0"/>
        <pt x="269" y="590" on="0"/>
        <pt x="188" y="504" on="0"/>
        <pt x="141" y="388" on="0"/>
        <pt x="141" y="322" on="1"/>
        <pt x="141" y="266" on="0"/>
        <pt x="180" y="169" on="0"/>
        <pt x="249" y="99" on="0"/>
        <pt x="345" y="59" on="0"/>
      </contour>
    </TTGlyph>
    <TTGlyph name="Ccircumflex" xMin="64" yMin="-11" xMax="718" yMax="916">
      <component glyphName="C" x="0" y="0" flags="0x204"/>
      <component glyphName="circumflex" x="146" y="199" flags="0x4"/>
    </TTGlyph>
    <TTGlyph name="Cdotaccent" xMin="64" yMin="-11" xMax="718" yMax="899">
      <component glyphName="C" x="0" y="0" flags="0x204"/>
      <component glyphName="dotaccent" x="269" y="199" flags="0x4"/>
    </TTGlyph>
    <TTGlyph name="D" xMin="22" yMin="0" xMax="686" yMax="700">
      <contour>
        <pt x="22" y="0" on="1"/>
        <pt x="171" y="700" on="1"/>
        <pt x="369" y="700" on="1"/>
        <pt x="440" y="700" on="0"/>
        <pt x="557" y="655" on="0"/>
        <pt x="640" y="574" on="0"/>
        <pt x="686" y="460" on="0"/>
        <pt x="686" y="391" on="1"/>
        <pt x="686" y="310" on="0"/>
        <pt x="622" y="167" on="0"/>
        <pt x="511" y="62" on="0"/>
        <pt x="362" y="0" on="0"/>
        <pt x="278" y="0" on="1"/>
      </contour>
      <contour>
        <pt x="365" y="630" on="1"/>
        <pt x="231" y="630" on="1"/>
        <pt x="112" y="70" on="1"/>
        <pt x="288" y="70" on="1"/>
        <pt x="354" y="70" on="0"/>
        <pt x="472" y="120" on="0"/>
        <pt x="559" y="206" on="0"/>
        <pt x="609" y="323" on="0"/>
        <pt x="609" y="389" on="1"/>
        <pt x="609" y="496" on="0"/>
        <pt x="474" y="630" on="0"/>
      </contour>
    </TTGlyph>
    <TTGlyph name="Dcaron" xMin="22" yMin="0" xMax="686" yMax="917">
      <component glyphName="D" x="0" y="0" flags="0x204"/>
      <component glyphName="caron" x="134" y="199" flags="0x4"/>
    </TTGlyph>
    <TTGlyph name="Dcroat" xMin="25" yMin="0" xMax="707" yMax="700">
      <contour>
        <pt x="43" y="0" on="1"/>
        <pt x="110" y="317" on="1"/>
        <pt x="25" y="317" on="1"/>
        <pt x="39" y="383" on="1"/>
        <pt x="125" y="383" on="1"/>
        <pt x="192" y="700" on="1"/>
        <pt x="390" y="700" on="1"/>
        <pt x="461" y="700" on="0"/>
        <pt x="578" y="655" on="0"/>
        <pt x="661" y="574" on="0"/>
        <pt x="707" y="460" on="0"/>
        <pt x="707" y="391" on="1"/>
        <pt x="707" y="310" on="0"/>
        <pt x="643" y="167" on="0"/>
        <pt x="532" y="62" on="0"/>
        <pt x="383" y="0" on="0"/>
        <pt x="299" y="0" on="1"/>
      </contour>
      <contour>
        <pt x="386" y="630" on="1"/>
        <pt x="252" y="630" on="1"/>
        <pt x="200" y="383" on="1"/>
        <pt x="385" y="383" on="1"/>
        <pt x="372" y="317" on="1"/>
        <pt x="185" y="317" on="1"/>
        <pt x="133" y="70" on="1"/>
        <pt x="309" y="70" on="1"/>
        <pt x="375" y="70" on="0"/>
        <pt x="493" y="120" on="0"/>
        <pt x="580" y="206" on="0"/>
        <pt x="630" y="323" on="0"/>
        <pt x="630" y="389" on="1"/>
        <pt x="630" y="496" on="0"/>
        <pt x="495" y="630" on="0"/>
      </contour>
    </TTGlyph>
    <TTGlyph name="E" xMin="22" yMin="0" xMax="662" yMax="700">
      <contour>
        <pt x="22" y="0" on="1"/>
        <pt x="171" y="700" on="1"/>
        <pt x="662" y="700" on="1"/>
        <pt x="647" y="632" on="1"/>
        <pt x="232" y="632" on="1"/>
        <pt x="179" y="387" on="1"/>
        <pt x="451" y="387" on="1"/>
        <pt x="437" y="320" on="1"/>
        <pt x="165" y="320" on="1"/>
        <pt x="111" y="68" on="1"/>
        <pt x="531" y="68" on="1"/>
        <pt x="517" y="0" on="1"/>
      </contour>
    </TTGlyph>
    <TTGlyph name="Eacute" xMin="22" yMin="0" xMax="662" yMax="915">
      <component glyphName="E" x="0" y="0" flags="0x204"/>
      <component glyphName="acute" x="140" y="199" flags="0x4"/>
    </TTGlyph>
    <TTGlyph name="Ebreve" xMin="22" yMin="0" xMax="662" yMax="928">
      <component glyphName="E" x="0" y="0" flags="0x204"/>
      <component glyphName="breve" x="102" y="199" flags="0x4"/>
    </TTGlyph>
    <TTGlyph name="Ecaron" xMin="22" yMin="0" xMax="662" yMax="917">
      <component glyphName="E" x="0" y="0" flags="0x204"/>
      <component glyphName="caron" x="103" y="199" flags="0x4"/>
    </TTGlyph>
    <TTGlyph name="Ecircumflex" xMin="22" yMin="0" xMax="662" yMax="916">
      <component glyphName="E" x="0" y="0" flags="0x204"/>
      <component glyphName="circumflex" x="103" y="199" flags="0x4"/>
    </TTGlyph>
    <TTGlyph name="Edieresis" xMin="22" yMin="0" xMax="662" yMax="899">
      <component glyphName="E" x="0" y="0" flags="0x204"/>
      <component glyphName="dieresis" x="93" y="199" flags="0x4"/>
    </TTGlyph>
    <TTGlyph name="Edotaccent" xMin="22" yMin="0" xMax="662" yMax="899">
      <component glyphName="E" x="0" y="0" flags="0x204"/>
      <component glyphName="dotaccent" x="226" y="199" flags="0x4"/>
    </TTGlyph>
    <TTGlyph name="Egrave" xMin="22" yMin="0" xMax="662" yMax="915">
      <component glyphName="E" x="0" y="0" flags="0x204"/>
      <component glyphName="grave" x="105" y="199" flags="0x4"/>
    </TTGlyph>
    <TTGlyph name="Emacron" xMin="22" yMin="0" xMax="662" yMax="873">
      <component glyphName="E" x="0" y="0" flags="0x204"/>
      <component glyphName="macron" x="102" y="199" flags="0x4"/>
    </TTGlyph>
    <TTGlyph name="Eng" xMin="22" yMin="-207" xMax="730" yMax="700">
      <contour>
        <pt x="512" y="11" on="1"/>
        <pt x="218" y="587" on="1"/>
        <pt x="93" y="0" on="1"/>
        <pt x="22" y="0" on="1"/>
        <pt x="171" y="700" on="1"/>
        <pt x="244" y="700" on="1"/>
        <pt x="537" y="127" on="1"/>
        <pt x="659" y="700" on="1"/>
        <pt x="730" y="700" on="1"/>
        <pt x="562" y="-87" on="1"/>
        <pt x="550" y="-144" on="0"/>
        <pt x="475" y="-207" on="0"/>
        <pt x="420" y="-207" on="1"/>
        <pt x="407" y="-207" on="0"/>
        <pt x="377" y="-203" on="0"/>
        <pt x="367" y="-199" on="1"/>
        <pt x="381" y="-137" on="1"/>
        <pt x="389" y="-140" on="0"/>
        <pt x="409" y="-143" on="0"/>
        <pt x="423" y="-143" on="1"/>
        <pt x="453" y="-143" on="0"/>
        <pt x="486" y="-112" on="0"/>
        <pt x="493" y="-78" on="1"/>
      </contour>
    </TTGlyph>
    <TTGlyph name="Eogonek" xMin="22" yMin="-222" xMax="662" yMax="700">
      <contour>
        <pt x="22" y="0" on="1"/>
        <pt x="171" y="700" on="1"/>
        <pt x="662" y="700" on="1"/>
        <pt x="647" y="632" on="1"/>
        <pt x="232" y="632" on="1"/>
        <pt x="179" y="387" on="1"/>
        <pt x="451" y="387" on="1"/>
        <pt x="437" y="320" on="1"/>
        <pt x="165" y="320" on="1"/>
        <pt x="111" y="68" on="1"/>
        <pt x="531" y="68" on="1"/>
        <pt x="517" y="0" on="1"/>
        <pt x="450" y="-35" on="0"/>
        <pt x="386" y="-100" on="0"/>
        <pt x="386" y="-134" on="1"/>
        <pt x="386" y="-153" on="0"/>
        <pt x="414" y="-177" on="0"/>
        <pt x="436" y="-177" on="1"/>
        <pt x="447" y="-177" on="0"/>
        <pt x="472" y="-171" on="0"/>
        <pt x="482" y="-166" on="1"/>
        <pt x="487" y="-206" on="1"/>
        <pt x="471" y="-213" on="0"/>
        <pt x="438" y="-222" on="0"/>
        <pt x="421" y="-222" on="1"/>
        <pt x="381" y="-222" on="0"/>
        <pt x="333" y="-182" on="0"/>
        <pt x="333" y="-149" on="1"/>
        <pt x="333" y="-109" on="0"/>
        <pt x="395" y="-35" on="0"/>
        <pt x="455" y="0" on="1"/>
      </contour>
    </TTGlyph>
    <TTGlyph name="Eth" xMin="25" yMin="0" xMax="707" yMax="700">
      <contour>
        <pt x="43" y="0" on="1"/>
        <pt x="110" y="317" on="1"/>
        <pt x="25" y="317" on="1"/>
        <pt x="39" y="383" on="1"/>
        <pt x="125" y="383" on="1"/>
        <pt x="192" y="700" on="1"/>
        <pt x="390" y="700" on="1"/>
        <pt x="461" y="700" on="0"/>
        <pt x="578" y="655" on="0"/>
        <pt x="661" y="574" on="0"/>
        <pt x="707" y="460" on="0"/>
        <pt x="707" y="391" on="1"/>
        <pt x="707" y="310" on="0"/>
        <pt x="643" y="167" on="0"/>
        <pt x="532" y="62" on="0"/>
        <pt x="383" y="0" on="0"/>
        <pt x="299" y="0" on="1"/>
      </contour>
      <contour>
        <pt x="386" y="630" on="1"/>
        <pt x="252" y="630" on="1"/>
        <pt x="200" y="383" on="1"/>
        <pt x="385" y="383" on="1"/>
        <pt x="372" y="317" on="1"/>
        <pt x="185" y="317" on="1"/>
        <pt x="133" y="70" on="1"/>
        <pt x="309" y="70" on="1"/>
        <pt x="375" y="70" on="0"/>
        <pt x="493" y="120" on="0"/>
        <pt x="580" y="206" on="0"/>
        <pt x="630" y="323" on="0"/>
        <pt x="630" y="389" on="1"/>
        <pt x="630" y="496" on="0"/>
        <pt x="495" y="630" on="0"/>
      </contour>
    </TTGlyph>
    <TTGlyph name="Euro" xMin="33" yMin="-10" xMax="784" yMax="709">
      <contour>
        <pt x="448" y="310" on="1"/>
        <pt x="420" y="259" on="1"/>
        <pt x="208" y="259" on="1"/>
        <pt x="216" y="165" on="0"/>
        <pt x="339" y="54" on="0"/>
        <pt x="435" y="54" on="1"/>
        <pt x="492" y="54" on="0"/>
        <pt x="600" y="98" on="0"/>
        <pt x="642" y="139" on="1"/>
        <pt x="686" y="97" on="1"/>
        <pt x="635" y="46" on="0"/>
        <pt x="502" y="-10" on="0"/>
        <pt x="430" y="-10" on="1"/>
        <pt x="305" y="-10" on="0"/>
        <pt x="145" y="138" on="0"/>
        <pt x="138" y="259" on="1"/>
        <pt x="33" y="259" on="1"/>
        <pt x="44" y="310" on="1"/>
        <pt x="138" y="310" on="1"/>
        <pt x="139" y="332" on="0"/>
        <pt x="146" y="373" on="0"/>
        <pt x="150" y="393" on="1"/>
        <pt x="61" y="393" on="1"/>
        <pt x="73" y="443" on="1"/>
        <pt x="166" y="443" on="1"/>
        <pt x="188" y="501" on="0"/>
        <pt x="260" y="599" on="0"/>
        <pt x="354" y="670" on="0"/>
        <pt x="466" y="709" on="0"/>
        <pt x="527" y="709" on="1"/>
        <pt x="615" y="709" on="0"/>
        <pt x="750" y="633" on="0"/>
        <pt x="784" y="564" on="1"/>
        <pt x="725" y="529" on="1"/>
        <pt x="697" y="584" on="0"/>
        <pt x="586" y="647" on="0"/>
        <pt x="518" y="647" on="1"/>
        <pt x="426" y="647" on="0"/>
        <pt x="276" y="533" on="0"/>
        <pt x="238" y="443" on="1"/>
        <pt x="523" y="443" on="1"/>
        <pt x="494" y="393" on="1"/>
        <pt x="221" y="393" on="1"/>
        <pt x="216" y="374" on="0"/>
        <pt x="209" y="332" on="0"/>
        <pt x="208" y="310" on="1"/>
      </contour>
    </TTGlyph>
    <TTGlyph name="F" xMin="22" yMin="0" xMax="662" yMax="700">
      <contour>
        <pt x="22" y="0" on="1"/>
        <pt x="171" y="700" on="1"/>
        <pt x="662" y="700" on="1"/>
        <pt x="647" y="632" on="1"/>
        <pt x="232" y="632" on="1"/>
        <pt x="178" y="382" on="1"/>
        <pt x="451" y="382" on="1"/>
        <pt x="437" y="315" on="1"/>
        <pt x="164" y="315" on="1"/>
        <pt x="97" y="0" on="1"/>
      </contour>
    </TTGlyph>
    <TTGlyph name="G" xMin="61" yMin="-11" xMax="754" yMax="710">
      <contour>
        <pt x="745" y="314" on="1"/>
        <pt x="734" y="243" on="0"/>
        <pt x="669" y="124" on="0"/>
        <pt x="575" y="38" on="0"/>
        <pt x="455" y="-11" on="0"/>
        <pt x="389" y="-11" on="1"/>
        <pt x="320" y="-11" on="0"/>
        <pt x="199" y="40" on="0"/>
        <pt x="111" y="129" on="0"/>
        <pt x="61" y="250" on="0"/>
        <pt x="61" y="320" on="1"/>
        <pt x="61" y="399" on="0"/>
        <pt x="122" y="542" on="0"/>
        <pt x="226" y="647" on="0"/>
        <pt x="366" y="710" on="0"/>
        <pt x="443" y="710" on="1"/>
        <pt x="530" y="710" on="0"/>
        <pt x="672" y="642" on="0"/>
        <pt x="721" y="578" on="1"/>
        <pt x="662" y="528" on="1"/>
        <pt x="626" y="579" on="0"/>
        <pt x="506" y="639" on="0"/>
        <pt x="438" y="639" on="1"/>
        <pt x="376" y="639" on="0"/>
        <pt x="266" y="589" on="0"/>
        <pt x="185" y="504" on="0"/>
        <pt x="137" y="388" on="0"/>
        <pt x="137" y="322" on="1"/>
        <pt x="137" y="266" on="0"/>
        <pt x="176" y="170" on="0"/>
        <pt x="245" y="100" on="0"/>
        <pt x="339" y="60" on="0"/>
        <pt x="394" y="60" on="1"/>
        <pt x="444" y="60" on="0"/>
        <pt x="534" y="95" on="0"/>
        <pt x="606" y="158" on="0"/>
        <pt x="656" y="246" on="0"/>
        <pt x="666" y="298" on="1"/>
        <pt x="420" y="298" on="1"/>
        <pt x="431" y="366" on="1"/>
        <pt x="754" y="366" on="1"/>
      </contour>
    </TTGlyph>
    <TTGlyph name="Gbreve" xMin="61" yMin="-11" xMax="754" yMax="928">
      <component glyphName="G" x="0" y="0" flags="0x204"/>
      <component glyphName="breve" x="144" y="199" flags="0x4"/>
    </TTGlyph>
    <TTGlyph name="Gcircumflex" xMin="61" yMin="-11" xMax="754" yMax="916">
      <component glyphName="G" x="0" y="0" flags="0x204"/>
      <component glyphName="circumflex" x="144" y="199" flags="0x4"/>
    </TTGlyph>
    <TTGlyph name="Gcommaaccent" xMin="61" yMin="-264" xMax="754" yMax="710">
      <component glyphName="G" x="0" y="0" flags="0x204"/>
      <component glyphName="commaaccent" x="340" y="0" flags="0x4"/>
    </TTGlyph>
    <TTGlyph name="Gdotaccent" xMin="61" yMin="-11" xMax="754" yMax="899">
      <component glyphName="G" x="0" y="0" flags="0x204"/>
      <component glyphName="dotaccent" x="267" y="199" flags="0x4"/>
    </TTGlyph>
    <TTGlyph name="H" xMin="22" yMin="0" xMax="721" yMax="700">
      <contour>
        <pt x="22" y="0" on="1"/>
        <pt x="171" y="700" on="1"/>
        <pt x="246" y="700" on="1"/>
        <pt x="179" y="387" on="1"/>
        <pt x="578" y="387" on="1"/>
        <pt x="645" y="700" on="1"/>
        <pt x="721" y="700" on="1"/>
        <pt x="572" y="0" on="1"/>
        <pt x="496" y="0" on="1"/>
        <pt x="564" y="318" on="1"/>
        <pt x="165" y="318" on="1"/>
        <pt x="97" y="0" on="1"/>
      </contour>
    </TTGlyph>
    <TTGlyph name="Hbar" xMin="29" yMin="0" xMax="771" yMax="700">
      <contour>
        <pt x="29" y="0" on="1"/>
        <pt x="139" y="519" on="1"/>
        <pt x="72" y="519" on="1"/>
        <pt x="86" y="584" on="1"/>
        <pt x="153" y="584" on="1"/>
        <pt x="178" y="700" on="1"/>
        <pt x="253" y="700" on="1"/>
        <pt x="228" y="584" on="1"/>
        <pt x="628" y="584" on="1"/>
        <pt x="653" y="700" on="1"/>
        <pt x="728" y="700" on="1"/>
        <pt x="703" y="584" on="1"/>
        <pt x="771" y="584" on="1"/>
        <pt x="757" y="519" on="1"/>
        <pt x="689" y="519" on="1"/>
        <pt x="579" y="0" on="1"/>
        <pt x="504" y="0" on="1"/>
        <pt x="572" y="318" on="1"/>
        <pt x="172" y="318" on="1"/>
        <pt x="104" y="0" on="1"/>
      </contour>
      <contour>
        <pt x="186" y="387" on="1"/>
        <pt x="586" y="387" on="1"/>
        <pt x="614" y="519" on="1"/>
        <pt x="214" y="519" on="1"/>
      </contour>
    </TTGlyph>
    <TTGlyph name="Hcircumflex" xMin="22" yMin="0" xMax="721" yMax="916">
      <component glyphName="H" x="0" y="0" flags="0x204"/>
      <component glyphName="circumflex" x="139" y="199" flags="0x4"/>
    </TTGlyph>
    <TTGlyph name="I" xMin="22" yMin="0" xMax="246" yMax="700">
      <contour>
        <pt x="22" y="0" on="1"/>
        <pt x="171" y="700" on="1"/>
        <pt x="246" y="700" on="1"/>
        <pt x="97" y="0" on="1"/>
      </contour>
    </TTGlyph>
    <TTGlyph name="IJ" xMin="22" yMin="-11" xMax="849" yMax="700">
      <component glyphName="I" x="0" y="0" flags="0x4"/>
      <component glyphName="J" x="227" y="0" flags="0x4"/>
    </TTGlyph>
    <TTGlyph name="Iacute" xMin="22" yMin="0" xMax="389" yMax="915">
      <component glyphName="I" x="0" y="0" flags="0x204"/>
      <component glyphName="acute" x="-61" y="199" flags="0x4"/>
    </TTGlyph>
    <TTGlyph name="Ibreve" xMin="22" yMin="0" xMax="402" yMax="928">
      <component glyphName="I" x="0" y="0" flags="0x204"/>
      <component glyphName="breve" x="-99" y="199" flags="0x4"/>
    </TTGlyph>
    <TTGlyph name="Icircumflex" xMin="22" yMin="0" xMax="371" yMax="916">
      <component glyphName="I" x="0" y="0" flags="0x204"/>
      <component glyphName="circumflex" x="-98" y="199" flags="0x4"/>
    </TTGlyph>
    <TTGlyph name="Idieresis" xMin="22" yMin="0" xMax="376" yMax="899">
      <component glyphName="I" x="0" y="0" flags="0x204"/>
      <component glyphName="dieresis" x="-108" y="199" flags="0x4"/>
    </TTGlyph>
    <TTGlyph name="Idotaccent" xMin="22" yMin="0" xMax="291" yMax="899">
      <component glyphName="I" x="0" y="0" flags="0x204"/>
      <component glyphName="dotaccent" x="25" y="199" flags="0x4"/>
    </TTGlyph>
    <TTGlyph name="Igrave" xMin="22" yMin="0" xMax="271" yMax="915">
      <component glyphName="I" x="0" y="0" flags="0x204"/>
      <component glyphName="grave" x="-96" y="199" flags="0x4"/>
    </TTGlyph>
    <TTGlyph name="Imacron" xMin="22" yMin="0" xMax="388" yMax="873">
      <component glyphName="I" x="0" y="0" flags="0x204"/>
      <component glyphName="macron" x="-99" y="199" flags="0x4"/>
    </TTGlyph>
    <TTGlyph name="Iogonek" xMin="-87" yMin="-222" xMax="246" yMax="700">
      <contour>
        <pt x="22" y="0" on="1"/>
        <pt x="171" y="700" on="1"/>
        <pt x="246" y="700" on="1"/>
        <pt x="97" y="0" on="1"/>
        <pt x="30" y="-35" on="0"/>
        <pt x="-34" y="-100" on="0"/>
        <pt x="-34" y="-134" on="1"/>
        <pt x="-34" y="-153" on="0"/>
        <pt x="-6" y="-177" on="0"/>
        <pt x="16" y="-177" on="1"/>
        <pt x="27" y="-177" on="0"/>
        <pt x="52" y="-171" on="0"/>
        <pt x="62" y="-166" on="1"/>
        <pt x="67" y="-206" on="1"/>
        <pt x="51" y="-213" on="0"/>
        <pt x="18" y="-222" on="0"/>
        <pt x="1" y="-222" on="1"/>
        <pt x="-39" y="-222" on="0"/>
        <pt x="-87" y="-182" on="0"/>
        <pt x="-87" y="-149" on="1"/>
        <pt x="-87" y="-109" on="0"/>
        <pt x="-25" y="-35" on="0"/>
        <pt x="35" y="0" on="1"/>
      </contour>
    </TTGlyph>
    <TTGlyph name="Itilde" xMin="22" yMin="0" xMax="414" yMax="904">
      <component glyphName="I" x="0" y="0" flags="0x204"/>
      <component glyphName="tilde" x="-94" y="199" flags="0x4"/>
    </TTGlyph>
    <TTGlyph name="J" xMin="10" yMin="-11" xMax="622" yMax="700">
      <contour>
        <pt x="528" y="258" on="1"/>
        <pt x="500" y="130" on="0"/>
        <pt x="350" y="-11" on="0"/>
        <pt x="240" y="-11" on="1"/>
        <pt x="150" y="-11" on="0"/>
        <pt x="29" y="85" on="0"/>
        <pt x="10" y="171" on="1"/>
        <pt x="78" y="197" on="1"/>
        <pt x="94" y="128" on="0"/>
        <pt x="175" y="60" on="0"/>
        <pt x="240" y="60" on="1"/>
        <pt x="320" y="60" on="0"/>
        <pt x="433" y="168" on="0"/>
        <pt x="453" y="264" on="1"/>
        <pt x="546" y="700" on="1"/>
        <pt x="622" y="700" on="1"/>
      </contour>
    </TTGlyph>
    <TTGlyph name="Jcircumflex" xMin="10" yMin="-11" xMax="746" yMax="916">
      <component glyphName="J" x="0" y="0" flags="0x204"/>
      <component glyphName="circumflex" x="277" y="199" flags="0x4"/>
    </TTGlyph>
    <TTGlyph name="K" xMin="22" yMin="0" xMax="702" yMax="700">
      <contour>
        <pt x="22" y="0" on="1"/>
        <pt x="171" y="700" on="1"/>
        <pt x="246" y="700" on="1"/>
        <pt x="177" y="377" on="1"/>
        <pt x="598" y="700" on="1"/>
        <pt x="702" y="700" on="1"/>
        <pt x="254" y="358" on="1"/>
        <pt x="557" y="0" on="1"/>
        <pt x="459" y="0" on="1"/>
        <pt x="170" y="345" on="1"/>
        <pt x="97" y="0" on="1"/>
      </contour>
    </TTGlyph>
    <TTGlyph name="Kcommaaccent" xMin="22" yMin="-264" xMax="702" yMax="700">
      <component glyphName="K" x="0" y="0" flags="0x204"/>
      <component glyphName="commaaccent" x="226" y="0" flags="0x4"/>
    </TTGlyph>
    <TTGlyph name="L" xMin="22" yMin="0" xMax="520" yMax="700">
      <contour>
        <pt x="22" y="0" on="1"/>
        <pt x="171" y="700" on="1"/>
        <pt x="246" y="700" on="1"/>
        <pt x="112" y="69" on="1"/>
        <pt x="520" y="69" on="1"/>
        <pt x="506" y="0" on="1"/>
      </contour>
    </TTGlyph>
    <TTGlyph name="Lacute" xMin="22" yMin="0" xMax="520" yMax="915">
      <component glyphName="L" x="0" y="0" flags="0x204"/>
      <component glyphName="acute" x="-62" y="199" flags="0x4"/>
    </TTGlyph>
    <TTGlyph name="Lcaron" xMin="22" yMin="0" xMax="571" yMax="714">
      <component glyphName="L" x="0" y="0" flags="0x4"/>
      <component glyphName="caronSlovak" x="201" y="0" flags="0x4"/>
    </TTGlyph>
    <TTGlyph name="Lcommaaccent" xMin="22" yMin="-264" xMax="520" yMax="700">
      <component glyphName="L" x="0" y="0" flags="0x204"/>
      <component glyphName="commaaccent" x="229" y="0" flags="0x4"/>
    </TTGlyph>
    <TTGlyph name="Ldot" xMin="22" yMin="0" xMax="520" yMax="700">
      <component glyphName="L" x="0" y="0" flags="0x4"/>
      <component glyphName="dotaccent" x="211" y="-296" flags="0x4"/>
    </TTGlyph>
    <TTGlyph name="Lslash" xMin="-6" yMin="0" xMax="534" yMax="700">
      <contour>
        <pt x="36" y="0" on="1"/>
        <pt x="85" y="230" on="1"/>
        <pt x="-6" y="170" on="1"/>
        <pt x="9" y="246" on="1"/>
        <pt x="101" y="307" on="1"/>
        <pt x="185" y="700" on="1"/>
        <pt x="260" y="700" on="1"/>
        <pt x="188" y="364" on="1"/>
        <pt x="418" y="515" on="1"/>
        <pt x="402" y="439" on="1"/>
        <pt x="172" y="287" on="1"/>
        <pt x="126" y="69" on="1"/>
        <pt x="534" y="69" on="1"/>
        <pt x="520" y="0" on="1"/>
      </contour>
    </TTGlyph>
    <TTGlyph name="M" xMin="22" yMin="0" xMax="850" yMax="700">
      <contour>
        <pt x="372" y="50" on="1"/>
        <pt x="223" y="613" on="1"/>
        <pt x="93" y="0" on="1"/>
        <pt x="22" y="0" on="1"/>
        <pt x="171" y="700" on="1"/>
        <pt x="273" y="700" on="1"/>
        <pt x="402" y="202" on="1"/>
        <pt x="741" y="700" on="1"/>
        <pt x="850" y="700" on="1"/>
        <pt x="701" y="0" on="1"/>
        <pt x="631" y="0" on="1"/>
        <pt x="760" y="611" on="1"/>
      </contour>
    </TTGlyph>
    <TTGlyph name="N" xMin="22" yMin="0" xMax="730" yMax="700">
      <contour>
        <pt x="171" y="700" on="1"/>
        <pt x="243" y="700" on="1"/>
        <pt x="537" y="123" on="1"/>
        <pt x="659" y="700" on="1"/>
        <pt x="730" y="700" on="1"/>
        <pt x="581" y="0" on="1"/>
        <pt x="518" y="0" on="1"/>
        <pt x="217" y="592" on="1"/>
        <pt x="93" y="0" on="1"/>
        <pt x="22" y="0" on="1"/>
      </contour>
    </TTGlyph>
    <TTGlyph name="Nacute" xMin="22" yMin="0" xMax="730" yMax="915">
      <component glyphName="N" x="0" y="0" flags="0x204"/>
      <component glyphName="acute" x="181" y="199" flags="0x4"/>
    </TTGlyph>
    <TTGlyph name="Ncaron" xMin="22" yMin="0" xMax="730" yMax="917">
      <component glyphName="N" x="0" y="0" flags="0x204"/>
      <component glyphName="caron" x="144" y="199" flags="0x4"/>
    </TTGlyph>
    <TTGlyph name="Ncommaaccent" xMin="22" yMin="-264" xMax="730" yMax="700">
      <component glyphName="N" x="0" y="0" flags="0x204"/>
      <component glyphName="commaaccent" x="248" y="0" flags="0x4"/>
    </TTGlyph>
    <TTGlyph name="Ntilde" xMin="22" yMin="0" xMax="730" yMax="904">
      <component glyphName="N" x="0" y="0" flags="0x204"/>
      <component glyphName="tilde" x="148" y="199" flags="0x4"/>
    </TTGlyph>
    <TTGlyph name="O" xMin="62" yMin="-11" xMax="771" yMax="711">
      <contour>
        <pt x="771" y="380" on="1"/>
        <pt x="771" y="301" on="0"/>
        <pt x="710" y="158" on="0"/>
        <pt x="608" y="52" on="0"/>
        <pt x="469" y="-11" on="0"/>
        <pt x="391" y="-11" on="1"/>
        <pt x="321" y="-11" on="0"/>
        <pt x="200" y="40" on="0"/>
        <pt x="112" y="128" on="0"/>
        <pt x="62" y="250" on="0"/>
        <pt x="62" y="320" on="1"/>
        <pt x="62" y="399" on="0"/>
        <pt x="123" y="542" on="0"/>
        <pt x="225" y="648" on="0"/>
        <pt x="364" y="711" on="0"/>
        <pt x="442" y="711" on="1"/>
        <pt x="512" y="711" on="0"/>
        <pt x="633" y="660" on="0"/>
        <pt x="721" y="572" on="0"/>
        <pt x="771" y="450" on="0"/>
      </contour>
      <contour>
        <pt x="695" y="376" on="1"/>
        <pt x="695" y="432" on="0"/>
        <pt x="656" y="529" on="0"/>
        <pt x="587" y="600" on="0"/>
        <pt x="492" y="640" on="0"/>
        <pt x="437" y="640" on="1"/>
        <pt x="376" y="640" on="0"/>
        <pt x="266" y="590" on="0"/>
        <pt x="186" y="504" on="0"/>
        <pt x="138" y="389" on="0"/>
        <pt x="138" y="324" on="1"/>
        <pt x="138" y="268" on="0"/>
        <pt x="177" y="171" on="0"/>
        <pt x="246" y="100" on="0"/>
        <pt x="341" y="60" on="0"/>
        <pt x="396" y="60" on="1"/>
        <pt x="457" y="60" on="0"/>
        <pt x="567" y="110" on="0"/>
        <pt x="647" y="196" on="0"/>
        <pt x="695" y="311" on="0"/>
      </contour>
    </TTGlyph>
    <TTGlyph name="OE" xMin="62" yMin="0" xMax="1128" yMax="700">
      <contour>
        <pt x="373" y="0" on="1"/>
        <pt x="307" y="0" on="0"/>
        <pt x="192" y="48" on="0"/>
        <pt x="109" y="131" on="0"/>
        <pt x="62" y="247" on="0"/>
        <pt x="62" y="314" on="1"/>
        <pt x="62" y="392" on="0"/>
        <pt x="123" y="533" on="0"/>
        <pt x="227" y="638" on="0"/>
        <pt x="366" y="700" on="0"/>
        <pt x="442" y="700" on="1"/>
        <pt x="1128" y="700" on="1"/>
        <pt x="1114" y="632" on="1"/>
        <pt x="633" y="632" on="1"/>
        <pt x="688" y="592" on="0"/>
        <pt x="752" y="462" on="0"/>
        <pt x="752" y="387" on="1"/>
        <pt x="935" y="387" on="1"/>
        <pt x="921" y="320" on="1"/>
        <pt x="746" y="320" on="1"/>
        <pt x="732" y="243" on="0"/>
        <pt x="644" y="111" on="0"/>
        <pt x="581" y="68" on="1"/>
        <pt x="994" y="68" on="1"/>
        <pt x="979" y="0" on="1"/>
      </contour>
      <contour>
        <pt x="379" y="71" on="1"/>
        <pt x="440" y="71" on="0"/>
        <pt x="548" y="121" on="0"/>
        <pt x="628" y="205" on="0"/>
        <pt x="675" y="319" on="0"/>
        <pt x="675" y="383" on="1"/>
        <pt x="675" y="436" on="0"/>
        <pt x="639" y="527" on="0"/>
        <pt x="576" y="592" on="0"/>
        <pt x="487" y="629" on="0"/>
        <pt x="436" y="629" on="1"/>
        <pt x="376" y="629" on="0"/>
        <pt x="268" y="579" on="0"/>
        <pt x="187" y="494" on="0"/>
        <pt x="139" y="381" on="0"/>
        <pt x="139" y="318" on="1"/>
        <pt x="139" y="265" on="0"/>
        <pt x="175" y="174" on="0"/>
        <pt x="239" y="108" on="0"/>
        <pt x="328" y="71" on="0"/>
      </contour>
    </TTGlyph>
    <TTGlyph name="Oacute" xMin="62" yMin="-11" xMax="771" yMax="915">
      <component glyphName="O" x="0" y="0" flags="0x204"/>
      <component glyphName="acute" x="177" y="199" flags="0x4"/>
    </TTGlyph>
    <TTGlyph name="Obreve" xMin="62" yMin="-11" xMax="771" yMax="928">
      <component glyphName="O" x="0" y="0" flags="0x204"/>
      <component glyphName="breve" x="139" y="199" flags="0x4"/>
    </TTGlyph>
    <TTGlyph name="Ocircumflex" xMin="62" yMin="-11" xMax="771" yMax="916">
      <component glyphName="O" x="0" y="0" flags="0x204"/>
      <component glyphName="circumflex" x="140" y="199" flags="0x4"/>
    </TTGlyph>
    <TTGlyph name="Odieresis" xMin="62" yMin="-11" xMax="771" yMax="899">
      <component glyphName="O" x="0" y="0" flags="0x204"/>
      <component glyphName="dieresis" x="130" y="199" flags="0x4"/>
    </TTGlyph>
    <TTGlyph name="Ograve" xMin="62" yMin="-11" xMax="771" yMax="915">
      <component glyphName="O" x="0" y="0" flags="0x204"/>
      <component glyphName="grave" x="142" y="199" flags="0x4"/>
    </TTGlyph>
    <TTGlyph name="Ohungarumlaut" xMin="62" yMin="-11" xMax="771" yMax="915">
      <component glyphName="O" x="0" y="0" flags="0x204"/>
      <component glyphName="hungarumlaut" x="152" y="199" flags="0x4"/>
    </TTGlyph>
    <TTGlyph name="Omacron" xMin="62" yMin="-11" xMax="771" yMax="873">
      <component glyphName="O" x="0" y="0" flags="0x204"/>
      <component glyphName="macron" x="139" y="199" flags="0x4"/>
    </TTGlyph>
    <TTGlyph name="Oslash" xMin="17" yMin="-11" xMax="814" yMax="711">
      <contour>
        <pt x="98" y="0" on="1"/>
        <pt x="17" y="0" on="1"/>
        <pt x="132" y="112" on="1"/>
        <pt x="99" y="154" on="0"/>
        <pt x="62" y="260" on="0"/>
        <pt x="62" y="320" on="1"/>
        <pt x="62" y="399" on="0"/>
        <pt x="123" y="542" on="0"/>
        <pt x="225" y="648" on="0"/>
        <pt x="364" y="711" on="0"/>
        <pt x="442" y="711" on="1"/>
        <pt x="506" y="711" on="0"/>
        <pt x="618" y="668" on="0"/>
        <pt x="661" y="631" on="1"/>
        <pt x="732" y="700" on="1"/>
        <pt x="814" y="700" on="1"/>
        <pt x="701" y="589" on="1"/>
        <pt x="734" y="547" on="0"/>
        <pt x="771" y="440" on="0"/>
        <pt x="771" y="380" on="1"/>
        <pt x="771" y="301" on="0"/>
        <pt x="710" y="158" on="0"/>
        <pt x="608" y="52" on="0"/>
        <pt x="469" y="-11" on="0"/>
        <pt x="391" y="-11" on="1"/>
        <pt x="327" y="-11" on="0"/>
        <pt x="213" y="32" on="0"/>
        <pt x="170" y="71" on="1"/>
      </contour>
      <contour>
        <pt x="138" y="324" on="1"/>
        <pt x="138" y="279" on="0"/>
        <pt x="164" y="198" on="0"/>
        <pt x="186" y="166" on="1"/>
        <pt x="607" y="578" on="1"/>
        <pt x="574" y="607" on="0"/>
        <pt x="487" y="640" on="0"/>
        <pt x="437" y="640" on="1"/>
        <pt x="376" y="640" on="0"/>
        <pt x="266" y="590" on="0"/>
        <pt x="186" y="504" on="0"/>
        <pt x="138" y="389" on="0"/>
      </contour>
      <contour>
        <pt x="695" y="376" on="1"/>
        <pt x="695" y="422" on="0"/>
        <pt x="669" y="503" on="0"/>
        <pt x="646" y="535" on="1"/>
        <pt x="224" y="124" on="1"/>
        <pt x="258" y="94" on="0"/>
        <pt x="346" y="60" on="0"/>
        <pt x="396" y="60" on="1"/>
        <pt x="457" y="60" on="0"/>
        <pt x="567" y="110" on="0"/>
        <pt x="647" y="196" on="0"/>
        <pt x="695" y="311" on="0"/>
      </contour>
    </TTGlyph>
    <TTGlyph name="Otilde" xMin="62" yMin="-11" xMax="771" yMax="904">
      <component glyphName="O" x="0" y="0" flags="0x204"/>
      <component glyphName="tilde" x="144" y="199" flags="0x4"/>
    </TTGlyph>
    <TTGlyph name="P" xMin="22" yMin="0" xMax="648" yMax="700">
      <contour>
        <pt x="22" y="0" on="1"/>
        <pt x="171" y="700" on="1"/>
        <pt x="448" y="700" on="1"/>
        <pt x="540" y="700" on="0"/>
        <pt x="648" y="605" on="0"/>
        <pt x="648" y="525" on="1"/>
        <pt x="648" y="475" on="0"/>
        <pt x="611" y="390" on="0"/>
        <pt x="545" y="329" on="0"/>
        <pt x="453" y="295" on="0"/>
        <pt x="400" y="295" on="1"/>
        <pt x="160" y="295" on="1"/>
        <pt x="97" y="0" on="1"/>
      </contour>
      <contour>
        <pt x="437" y="631" on="1"/>
        <pt x="231" y="631" on="1"/>
        <pt x="174" y="362" on="1"/>
        <pt x="399" y="362" on="1"/>
        <pt x="475" y="362" on="0"/>
        <pt x="573" y="450" on="0"/>
        <pt x="573" y="519" on="1"/>
        <pt x="573" y="571" on="0"/>
        <pt x="500" y="631" on="0"/>
      </contour>
    </TTGlyph>
    <TTGlyph name="Q" xMin="62" yMin="-16" xMax="771" yMax="711">
      <contour>
        <pt x="771" y="380" on="1"/>
        <pt x="771" y="290" on="0"/>
        <pt x="694" y="132" on="0"/>
        <pt x="631" y="78" on="1"/>
        <pt x="686" y="-11" on="1"/>
        <pt x="609" y="-16" on="1"/>
        <pt x="575" y="39" on="1"/>
        <pt x="535" y="15" on="0"/>
        <pt x="441" y="-11" on="0"/>
        <pt x="391" y="-11" on="1"/>
        <pt x="321" y="-11" on="0"/>
        <pt x="200" y="40" on="0"/>
        <pt x="112" y="128" on="0"/>
        <pt x="62" y="250" on="0"/>
        <pt x="62" y="320" on="1"/>
        <pt x="62" y="399" on="0"/>
        <pt x="123" y="542" on="0"/>
        <pt x="225" y="648" on="0"/>
        <pt x="364" y="711" on="0"/>
        <pt x="442" y="711" on="1"/>
        <pt x="512" y="711" on="0"/>
        <pt x="633" y="660" on="0"/>
        <pt x="721" y="572" on="0"/>
        <pt x="771" y="450" on="0"/>
      </contour>
      <contour>
        <pt x="540" y="226" on="1"/>
        <pt x="593" y="140" on="1"/>
        <pt x="640" y="183" on="0"/>
        <pt x="695" y="306" on="0"/>
        <pt x="695" y="376" on="1"/>
        <pt x="695" y="432" on="0"/>
        <pt x="656" y="529" on="0"/>
        <pt x="587" y="600" on="0"/>
        <pt x="492" y="640" on="0"/>
        <pt x="437" y="640" on="1"/>
        <pt x="376" y="640" on="0"/>
        <pt x="266" y="590" on="0"/>
        <pt x="186" y="504" on="0"/>
        <pt x="138" y="389" on="0"/>
        <pt x="138" y="324" on="1"/>
        <pt x="138" y="268" on="0"/>
        <pt x="177" y="171" on="0"/>
        <pt x="246" y="100" on="0"/>
        <pt x="341" y="60" on="0"/>
        <pt x="396" y="60" on="1"/>
        <pt x="435" y="60" on="0"/>
        <pt x="507" y="80" on="0"/>
        <pt x="539" y="99" on="1"/>
        <pt x="464" y="222" on="1"/>
      </contour>
    </TTGlyph>
    <TTGlyph name="R" xMin="22" yMin="0" xMax="646" yMax="700">
      <contour>
        <pt x="22" y="0" on="1"/>
        <pt x="171" y="700" on="1"/>
        <pt x="448" y="700" on="1"/>
        <pt x="539" y="700" on="0"/>
        <pt x="646" y="605" on="0"/>
        <pt x="646" y="525" on="1"/>
        <pt x="646" y="441" on="0"/>
        <pt x="538" y="321" on="0"/>
        <pt x="454" y="306" on="1"/>
        <pt x="553" y="0" on="1"/>
        <pt x="474" y="0" on="1"/>
        <pt x="378" y="301" on="1"/>
        <pt x="161" y="301" on="1"/>
        <pt x="97" y="0" on="1"/>
      </contour>
      <contour>
        <pt x="436" y="631" on="1"/>
        <pt x="231" y="631" on="1"/>
        <pt x="175" y="366" on="1"/>
        <pt x="398" y="366" on="1"/>
        <pt x="473" y="366" on="0"/>
        <pt x="571" y="453" on="0"/>
        <pt x="571" y="519" on="1"/>
        <pt x="571" y="570" on="0"/>
        <pt x="498" y="631" on="0"/>
      </contour>
    </TTGlyph>
    <TTGlyph name="Racute" xMin="22" yMin="0" xMax="646" yMax="915">
      <component glyphName="R" x="0" y="0" flags="0x204"/>
      <component glyphName="acute" x="134" y="199" flags="0x4"/>
    </TTGlyph>
    <TTGlyph name="Rcaron" xMin="22" yMin="0" xMax="646" yMax="917">
      <component glyphName="R" x="0" y="0" flags="0x204"/>
      <component glyphName="caron" x="98" y="199" flags="0x4"/>
    </TTGlyph>
    <TTGlyph name="Rcommaaccent" xMin="22" yMin="-264" xMax="646" yMax="700">
      <component glyphName="R" x="0" y="0" flags="0x204"/>
      <component glyphName="commaaccent" x="207" y="0" flags="0x4"/>
    </TTGlyph>
    <TTGlyph name="S" xMin="-1" yMin="-10" xMax="601" yMax="709">
      <contour>
        <pt x="-1" y="140" on="1"/>
        <pt x="55" y="188" on="1"/>
        <pt x="101" y="124" on="0"/>
        <pt x="224" y="55" on="0"/>
        <pt x="295" y="55" on="1"/>
        <pt x="377" y="55" on="0"/>
        <pt x="482" y="134" on="0"/>
        <pt x="482" y="196" on="1"/>
        <pt x="482" y="241" on="0"/>
        <pt x="417" y="297" on="0"/>
        <pt x="342" y="316" on="1"/>
        <pt x="247" y="340" on="1"/>
        <pt x="163" y="362" on="0"/>
        <pt x="78" y="449" on="0"/>
        <pt x="78" y="512" on="1"/>
        <pt x="78" y="602" on="0"/>
        <pt x="212" y="709" on="0"/>
        <pt x="324" y="709" on="1"/>
        <pt x="399" y="709" on="0"/>
        <pt x="544" y="650" on="0"/>
        <pt x="601" y="596" on="1"/>
        <pt x="552" y="540" on="1"/>
        <pt x="499" y="590" on="0"/>
        <pt x="379" y="643" on="0"/>
        <pt x="318" y="643" on="1"/>
        <pt x="242" y="643" on="0"/>
        <pt x="152" y="576" on="0"/>
        <pt x="152" y="520" on="1"/>
        <pt x="152" y="478" on="0"/>
        <pt x="212" y="424" on="0"/>
        <pt x="276" y="407" on="1"/>
        <pt x="370" y="384" on="1"/>
        <pt x="467" y="359" on="0"/>
        <pt x="557" y="274" on="0"/>
        <pt x="557" y="207" on="1"/>
        <pt x="557" y="109" on="0"/>
        <pt x="411" y="-10" on="0"/>
        <pt x="291" y="-10" on="1"/>
        <pt x="202" y="-10" on="0"/>
        <pt x="52" y="68" on="0"/>
      </contour>
    </TTGlyph>
    <TTGlyph name="Sacute" xMin="-1" yMin="-10" xMax="601" yMax="915">
      <component glyphName="S" x="0" y="0" flags="0x204"/>
      <component glyphName="acute" x="71" y="199" flags="0x4"/>
    </TTGlyph>
    <TTGlyph name="Scaron" xMin="-1" yMin="-10" xMax="601" yMax="917">
      <component glyphName="S" x="0" y="0" flags="0x204"/>
      <component glyphName="caron" x="34" y="199" flags="0x4"/>
    </TTGlyph>
    <TTGlyph name="Scedilla" xMin="-1" yMin="-228" xMax="601" yMax="709">
      <contour>
        <pt x="-1" y="140" on="1"/>
        <pt x="55" y="188" on="1"/>
        <pt x="101" y="124" on="0"/>
        <pt x="224" y="55" on="0"/>
        <pt x="295" y="55" on="1"/>
        <pt x="377" y="55" on="0"/>
        <pt x="482" y="134" on="0"/>
        <pt x="482" y="196" on="1"/>
        <pt x="482" y="241" on="0"/>
        <pt x="417" y="297" on="0"/>
        <pt x="342" y="316" on="1"/>
        <pt x="247" y="340" on="1"/>
        <pt x="163" y="362" on="0"/>
        <pt x="78" y="449" on="0"/>
        <pt x="78" y="512" on="1"/>
        <pt x="78" y="602" on="0"/>
        <pt x="212" y="709" on="0"/>
        <pt x="324" y="709" on="1"/>
        <pt x="399" y="709" on="0"/>
        <pt x="544" y="650" on="0"/>
        <pt x="601" y="596" on="1"/>
        <pt x="552" y="540" on="1"/>
        <pt x="499" y="590" on="0"/>
        <pt x="379" y="643" on="0"/>
        <pt x="318" y="643" on="1"/>
        <pt x="242" y="643" on="0"/>
        <pt x="152" y="576" on="0"/>
        <pt x="152" y="520" on="1"/>
        <pt x="152" y="478" on="0"/>
        <pt x="212" y="424" on="0"/>
        <pt x="276" y="407" on="1"/>
        <pt x="370" y="384" on="1"/>
        <pt x="467" y="359" on="0"/>
        <pt x="557" y="274" on="0"/>
        <pt x="557" y="207" on="1"/>
        <pt x="557" y="111" on="0"/>
        <pt x="417" y="-7" on="0"/>
        <pt x="301" y="-10" on="1"/>
        <pt x="278" y="-56" on="1"/>
        <pt x="315" y="-60" on="0"/>
        <pt x="356" y="-98" on="0"/>
        <pt x="356" y="-129" on="1"/>
        <pt x="356" y="-172" on="0"/>
        <pt x="288" y="-228" on="0"/>
        <pt x="237" y="-228" on="1"/>
        <pt x="203" y="-228" on="0"/>
        <pt x="145" y="-203" on="0"/>
        <pt x="127" y="-181" on="1"/>
        <pt x="160" y="-151" on="1"/>
        <pt x="176" y="-169" on="0"/>
        <pt x="215" y="-186" on="0"/>
        <pt x="238" y="-186" on="1"/>
        <pt x="269" y="-186" on="0"/>
        <pt x="308" y="-157" on="0"/>
        <pt x="308" y="-134" on="1"/>
        <pt x="308" y="-114" on="0"/>
        <pt x="275" y="-91" on="0"/>
        <pt x="247" y="-91" on="1"/>
        <pt x="218" y="-91" on="1"/>
        <pt x="259" y="-9" on="1"/>
        <pt x="181" y="-2" on="0"/>
        <pt x="47" y="74" on="0"/>
      </contour>
    </TTGlyph>
    <TTGlyph name="Scircumflex" xMin="-1" yMin="-10" xMax="601" yMax="916">
      <component glyphName="S" x="0" y="0" flags="0x204"/>
      <component glyphName="circumflex" x="33" y="199" flags="0x4"/>
    </TTGlyph>
    <TTGlyph name="Scommaaccent" xMin="-1" yMin="-264" xMax="601" yMax="709">
      <component glyphName="S" x="0" y="0" flags="0x204"/>
      <component glyphName="commaaccent" x="231" y="0" flags="0x4"/>
    </TTGlyph>
    <TTGlyph name="T" xMin="97" yMin="0" xMax="683" yMax="700">
      <contour>
        <pt x="97" y="631" on="1"/>
        <pt x="112" y="700" on="1"/>
        <pt x="683" y="700" on="1"/>
        <pt x="668" y="631" on="1"/>
        <pt x="420" y="631" on="1"/>
        <pt x="286" y="0" on="1"/>
        <pt x="211" y="0" on="1"/>
        <pt x="345" y="631" on="1"/>
      </contour>
    </TTGlyph>
    <TTGlyph name="Tbar" xMin="97" yMin="0" xMax="683" yMax="700">
      <contour>
        <pt x="143" y="372" on="1"/>
        <pt x="290" y="372" on="1"/>
        <pt x="345" y="631" on="1"/>
        <pt x="97" y="631" on="1"/>
        <pt x="112" y="700" on="1"/>
        <pt x="683" y="700" on="1"/>
        <pt x="668" y="631" on="1"/>
        <pt x="420" y="631" on="1"/>
        <pt x="365" y="372" on="1"/>
        <pt x="512" y="372" on="1"/>
        <pt x="499" y="306" on="1"/>
        <pt x="351" y="306" on="1"/>
        <pt x="286" y="0" on="1"/>
        <pt x="211" y="0" on="1"/>
        <pt x="276" y="306" on="1"/>
        <pt x="129" y="306" on="1"/>
      </contour>
    </TTGlyph>
    <TTGlyph name="Tcaron" xMin="97" yMin="0" xMax="683" yMax="917">
      <component glyphName="T" x="0" y="0" flags="0x204"/>
      <component glyphName="caron" x="91" y="199" flags="0x4"/>
    </TTGlyph>
    <TTGlyph name="Tcedilla" xMin="92" yMin="-228" xMax="683" yMax="700">
      <contour>
        <pt x="97" y="631" on="1"/>
        <pt x="112" y="700" on="1"/>
        <pt x="683" y="700" on="1"/>
        <pt x="668" y="631" on="1"/>
        <pt x="420" y="631" on="1"/>
        <pt x="286" y="0" on="1"/>
        <pt x="271" y="0" on="1"/>
        <pt x="243" y="-56" on="1"/>
        <pt x="280" y="-60" on="0"/>
        <pt x="321" y="-98" on="0"/>
        <pt x="321" y="-129" on="1"/>
        <pt x="321" y="-172" on="0"/>
        <pt x="253" y="-228" on="0"/>
        <pt x="202" y="-228" on="1"/>
        <pt x="168" y="-228" on="0"/>
        <pt x="110" y="-203" on="0"/>
        <pt x="92" y="-181" on="1"/>
        <pt x="125" y="-151" on="1"/>
        <pt x="141" y="-169" on="0"/>
        <pt x="180" y="-186" on="0"/>
        <pt x="203" y="-186" on="1"/>
        <pt x="234" y="-186" on="0"/>
        <pt x="273" y="-157" on="0"/>
        <pt x="273" y="-134" on="1"/>
        <pt x="273" y="-114" on="0"/>
        <pt x="240" y="-91" on="0"/>
        <pt x="212" y="-91" on="1"/>
        <pt x="183" y="-91" on="1"/>
        <pt x="228" y="0" on="1"/>
        <pt x="211" y="0" on="1"/>
        <pt x="345" y="631" on="1"/>
      </contour>
    </TTGlyph>
    <TTGlyph name="Thorn" xMin="22" yMin="0" xMax="611" yMax="700">
      <contour>
        <pt x="22" y="0" on="1"/>
        <pt x="171" y="700" on="1"/>
        <pt x="246" y="700" on="1"/>
        <pt x="215" y="554" on="1"/>
        <pt x="413" y="554" on="1"/>
        <pt x="503" y="554" on="0"/>
        <pt x="611" y="460" on="0"/>
        <pt x="611" y="380" on="1"/>
        <pt x="611" y="330" on="0"/>
        <pt x="574" y="246" on="0"/>
        <pt x="508" y="185" on="0"/>
        <pt x="417" y="150" on="0"/>
        <pt x="364" y="150" on="1"/>
        <pt x="129" y="150" on="1"/>
        <pt x="97" y="0" on="1"/>
      </contour>
      <contour>
        <pt x="401" y="486" on="1"/>
        <pt x="200" y="486" on="1"/>
        <pt x="143" y="217" on="1"/>
        <pt x="363" y="217" on="1"/>
        <pt x="439" y="217" on="0"/>
        <pt x="535" y="305" on="0"/>
        <pt x="535" y="375" on="1"/>
        <pt x="535" y="426" on="0"/>
        <pt x="464" y="486" on="0"/>
      </contour>
    </TTGlyph>
    <TTGlyph name="U" xMin="64" yMin="-11" xMax="723" yMax="700">
      <contour>
        <pt x="635" y="290" on="1"/>
        <pt x="604" y="145" on="0"/>
        <pt x="439" y="-11" on="0"/>
        <pt x="318" y="-11" on="1"/>
        <pt x="249" y="-11" on="0"/>
        <pt x="144" y="36" on="0"/>
        <pt x="79" y="118" on="0"/>
        <pt x="58" y="234" on="0"/>
        <pt x="73" y="303" on="1"/>
        <pt x="157" y="700" on="1"/>
        <pt x="233" y="700" on="1"/>
        <pt x="147" y="299" on="1"/>
        <pt x="136" y="247" on="0"/>
        <pt x="150" y="159" on="0"/>
        <pt x="196" y="95" on="0"/>
        <pt x="272" y="60" on="0"/>
        <pt x="321" y="60" on="1"/>
        <pt x="410" y="60" on="0"/>
        <pt x="537" y="184" on="0"/>
        <pt x="560" y="293" on="1"/>
        <pt x="647" y="700" on="1"/>
        <pt x="723" y="700" on="1"/>
      </contour>
    </TTGlyph>
    <TTGlyph name="Uacute" xMin="64" yMin="-11" xMax="723" yMax="915">
      <component glyphName="U" x="0" y="0" flags="0x204"/>
      <component glyphName="acute" x="168" y="199" flags="0x4"/>
    </TTGlyph>
    <TTGlyph name="Ubreve" xMin="64" yMin="-11" xMax="723" yMax="928">
      <component glyphName="U" x="0" y="0" flags="0x204"/>
      <component glyphName="breve" x="131" y="199" flags="0x4"/>
    </TTGlyph>
    <TTGlyph name="Ucircumflex" xMin="64" yMin="-11" xMax="723" yMax="916">
      <component glyphName="U" x="0" y="0" flags="0x204"/>
      <component glyphName="circumflex" x="131" y="199" flags="0x4"/>
    </TTGlyph>
    <TTGlyph name="Udieresis" xMin="64" yMin="-11" xMax="723" yMax="899">
      <component glyphName="U" x="0" y="0" flags="0x204"/>
      <component glyphName="dieresis" x="122" y="199" flags="0x4"/>
    </TTGlyph>
    <TTGlyph name="Ugrave" xMin="64" yMin="-11" xMax="723" yMax="915">
      <component glyphName="U" x="0" y="0" flags="0x204"/>
      <component glyphName="grave" x="133" y="199" flags="0x4"/>
    </TTGlyph>
    <TTGlyph name="Uhungarumlaut" xMin="64" yMin="-11" xMax="723" yMax="915">
      <component glyphName="U" x="0" y="0" flags="0x204"/>
      <component glyphName="hungarumlaut" x="144" y="199" flags="0x4"/>
    </TTGlyph>
    <TTGlyph name="Umacron" xMin="64" yMin="-11" xMax="723" yMax="873">
      <component glyphName="U" x="0" y="0" flags="0x204"/>
      <component glyphName="macron" x="131" y="199" flags="0x4"/>
    </TTGlyph>
    <TTGlyph name="Uogonek" xMin="64" yMin="-222" xMax="723" yMax="700">
      <contour>
        <pt x="635" y="290" on="1"/>
        <pt x="610" y="171" on="0"/>
        <pt x="488" y="21" on="0"/>
        <pt x="399" y="-1" on="1"/>
        <pt x="333" y="-36" on="0"/>
        <pt x="270" y="-100" on="0"/>
        <pt x="270" y="-134" on="1"/>
        <pt x="270" y="-153" on="0"/>
        <pt x="298" y="-177" on="0"/>
        <pt x="320" y="-177" on="1"/>
        <pt x="331" y="-177" on="0"/>
        <pt x="356" y="-171" on="0"/>
        <pt x="366" y="-166" on="1"/>
        <pt x="371" y="-206" on="1"/>
        <pt x="355" y="-213" on="0"/>
        <pt x="322" y="-222" on="0"/>
        <pt x="305" y="-222" on="1"/>
        <pt x="265" y="-222" on="0"/>
        <pt x="217" y="-182" on="0"/>
        <pt x="217" y="-149" on="1"/>
        <pt x="217" y="-112" on="0"/>
        <pt x="269" y="-43" on="0"/>
        <pt x="320" y="-11" on="1"/>
        <pt x="318" y="-11" on="1"/>
        <pt x="249" y="-11" on="0"/>
        <pt x="144" y="36" on="0"/>
        <pt x="79" y="118" on="0"/>
        <pt x="58" y="234" on="0"/>
        <pt x="73" y="303" on="1"/>
        <pt x="157" y="700" on="1"/>
        <pt x="233" y="700" on="1"/>
        <pt x="147" y="299" on="1"/>
        <pt x="136" y="247" on="0"/>
        <pt x="150" y="159" on="0"/>
        <pt x="196" y="95" on="0"/>
        <pt x="272" y="60" on="0"/>
        <pt x="321" y="60" on="1"/>
        <pt x="410" y="60" on="0"/>
        <pt x="537" y="184" on="0"/>
        <pt x="560" y="293" on="1"/>
        <pt x="647" y="700" on="1"/>
        <pt x="723" y="700" on="1"/>
      </contour>
    </TTGlyph>
    <TTGlyph name="Uring" xMin="64" yMin="-11" xMax="723" yMax="1003">
      <component glyphName="U" x="0" y="0" flags="0x204"/>
      <component glyphName="ring" x="131" y="199" flags="0x4"/>
    </TTGlyph>
    <TTGlyph name="Utilde" xMin="64" yMin="-11" xMax="723" yMax="904">
      <component glyphName="U" x="0" y="0" flags="0x204"/>
      <component glyphName="tilde" x="136" y="199" flags="0x4"/>
    </TTGlyph>
    <TTGlyph name="V" xMin="99" yMin="0" xMax="757" yMax="700">
      <contour>
        <pt x="235" y="0" on="1"/>
        <pt x="99" y="700" on="1"/>
        <pt x="177" y="700" on="1"/>
        <pt x="294" y="71" on="1"/>
        <pt x="676" y="700" on="1"/>
        <pt x="757" y="700" on="1"/>
        <pt x="327" y="0" on="1"/>
      </contour>
    </TTGlyph>
    <TTGlyph name="W" xMin="129" yMin="0" xMax="927" yMax="700">
      <contour>
        <pt x="205" y="0" on="1"/>
        <pt x="129" y="0" on="1"/>
        <pt x="129" y="700" on="1"/>
        <pt x="203" y="700" on="1"/>
        <pt x="199" y="125" on="1"/>
        <pt x="490" y="700" on="1"/>
        <pt x="563" y="700" on="1"/>
        <pt x="611" y="125" on="1"/>
        <pt x="850" y="700" on="1"/>
        <pt x="927" y="700" on="1"/>
        <pt x="630" y="0" on="1"/>
        <pt x="553" y="0" on="1"/>
        <pt x="505" y="593" on="1"/>
      </contour>
    </TTGlyph>
    <TTGlyph name="Wacute" xMin="129" yMin="0" xMax="927" yMax="915">
      <component glyphName="W" x="0" y="0" flags="0x204"/>
      <component glyphName="acute" x="255" y="199" flags="0x4"/>
    </TTGlyph>
    <TTGlyph name="Wcircumflex" xMin="129" yMin="0" xMax="927" yMax="916">
      <component glyphName="W" x="0" y="0" flags="0x204"/>
      <component glyphName="circumflex" x="218" y="199" flags="0x4"/>
    </TTGlyph>
    <TTGlyph name="Wdieresis" xMin="129" yMin="0" xMax="927" yMax="899">
      <component glyphName="W" x="0" y="0" flags="0x204"/>
      <component glyphName="dieresis" x="208" y="199" flags="0x4"/>
    </TTGlyph>
    <TTGlyph name="Wgrave" xMin="129" yMin="0" xMax="927" yMax="915">
      <component glyphName="W" x="0" y="0" flags="0x204"/>
      <component glyphName="grave" x="220" y="199" flags="0x4"/>
    </TTGlyph>
    <TTGlyph name="X" xMin="-52" yMin="0" xMax="701" yMax="700">
      <contour>
        <pt x="41" y="0" on="1"/>
        <pt x="-52" y="0" on="1"/>
        <pt x="292" y="366" on="1"/>
        <pt x="120" y="700" on="1"/>
        <pt x="204" y="700" on="1"/>
        <pt x="347" y="422" on="1"/>
        <pt x="608" y="700" on="1"/>
        <pt x="701" y="700" on="1"/>
        <pt x="380" y="360" on="1"/>
        <pt x="566" y="0" on="1"/>
        <pt x="482" y="0" on="1"/>
        <pt x="325" y="304" on="1"/>
      </contour>
    </TTGlyph>
    <TTGlyph name="Y" xMin="98" yMin="0" xMax="719" yMax="700">
      <contour>
        <pt x="221" y="0" on="1"/>
        <pt x="281" y="286" on="1"/>
        <pt x="98" y="700" on="1"/>
        <pt x="178" y="700" on="1"/>
        <pt x="331" y="354" on="1"/>
        <pt x="628" y="700" on="1"/>
        <pt x="719" y="700" on="1"/>
        <pt x="357" y="282" on="1"/>
        <pt x="297" y="0" on="1"/>
      </contour>
    </TTGlyph>
    <TTGlyph name="Yacute" xMin="98" yMin="0" xMax="719" yMax="915">
      <component glyphName="Y" x="0" y="0" flags="0x204"/>
      <component glyphName="acute" x="133" y="199" flags="0x4"/>
    </TTGlyph>
    <TTGlyph name="Ycircumflex" xMin="98" yMin="0" xMax="719" yMax="916">
      <component glyphName="Y" x="0" y="0" flags="0x204"/>
      <component glyphName="circumflex" x="96" y="199" flags="0x4"/>
    </TTGlyph>
    <TTGlyph name="Ydieresis" xMin="98" yMin="0" xMax="719" yMax="899">
      <component glyphName="Y" x="0" y="0" flags="0x204"/>
      <component glyphName="dieresis" x="86" y="199" flags="0x4"/>
    </TTGlyph>
    <TTGlyph name="Ygrave" xMin="98" yMin="0" xMax="719" yMax="915">
      <component glyphName="Y" x="0" y="0" flags="0x204"/>
      <component glyphName="grave" x="98" y="199" flags="0x4"/>
    </TTGlyph>
    <TTGlyph name="Z" xMin="-30" yMin="0" xMax="654" yMax="700">
      <contour>
        <pt x="-30" y="0" on="1"/>
        <pt x="-18" y="55" on="1"/>
        <pt x="534" y="632" on="1"/>
        <pt x="108" y="632" on="1"/>
        <pt x="122" y="700" on="1"/>
        <pt x="654" y="700" on="1"/>
        <pt x="641" y="645" on="1"/>
        <pt x="88" y="68" on="1"/>
        <pt x="528" y="68" on="1"/>
        <pt x="513" y="0" on="1"/>
      </contour>
    </TTGlyph>
    <TTGlyph name="Zacute" xMin="-30" yMin="0" xMax="654" yMax="915">
      <component glyphName="Z" x="0" y="0" flags="0x204"/>
      <component glyphName="acute" x="98" y="199" flags="0x4"/>
    </TTGlyph>
    <TTGlyph name="Zcaron" xMin="-30" yMin="0" xMax="654" yMax="917">
      <component glyphName="Z" x="0" y="0" flags="0x204"/>
      <component glyphName="caron" x="61" y="199" flags="0x4"/>
    </TTGlyph>
    <TTGlyph name="Zdotaccent" xMin="-30" yMin="0" xMax="654" yMax="899">
      <component glyphName="Z" x="0" y="0" flags="0x204"/>
      <component glyphName="dotaccent" x="184" y="199" flags="0x4"/>
    </TTGlyph>
    <TTGlyph name="a" xMin="16" yMin="-7" xMax="469" yMax="510">
      <contour>
        <pt x="187" y="-7" on="1"/>
        <pt x="110" y="-7" on="0"/>
        <pt x="16" y="70" on="0"/>
        <pt x="16" y="133" on="1"/>
        <pt x="16" y="206" on="0"/>
        <pt x="127" y="296" on="0"/>
        <pt x="220" y="296" on="1"/>
        <pt x="263" y="296" on="0"/>
        <pt x="347" y="273" on="0"/>
        <pt x="380" y="253" on="1"/>
        <pt x="393" y="312" on="1"/>
        <pt x="407" y="380" on="0"/>
        <pt x="347" y="448" on="0"/>
        <pt x="274" y="448" on="1"/>
        <pt x="242" y="448" on="0"/>
        <pt x="170" y="429" on="0"/>
        <pt x="124" y="409" on="1"/>
        <pt x="104" y="468" on="1"/>
        <pt x="155" y="490" on="0"/>
        <pt x="246" y="510" on="0"/>
        <pt x="286" y="510" on="1"/>
        <pt x="387" y="510" on="0"/>
        <pt x="483" y="407" on="0"/>
        <pt x="464" y="317" on="1"/>
        <pt x="397" y="0" on="1"/>
        <pt x="326" y="0" on="1"/>
        <pt x="335" y="41" on="1"/>
        <pt x="301" y="17" on="0"/>
        <pt x="227" y="-7" on="0"/>
      </contour>
      <contour>
        <pt x="85" y="140" on="1"/>
        <pt x="85" y="98" on="0"/>
        <pt x="149" y="50" on="0"/>
        <pt x="206" y="50" on="1"/>
        <pt x="245" y="50" on="0"/>
        <pt x="316" y="75" on="0"/>
        <pt x="348" y="101" on="1"/>
        <pt x="368" y="195" on="1"/>
        <pt x="339" y="219" on="0"/>
        <pt x="265" y="242" on="0"/>
        <pt x="219" y="242" on="1"/>
        <pt x="161" y="242" on="0"/>
        <pt x="85" y="184" on="0"/>
      </contour>
    </TTGlyph>
    <TTGlyph name="a.school" xMin="38" yMin="-8" xMax="568" yMax="508">
      <contour>
        <pt x="390" y="0" on="1"/>
        <pt x="397" y="35" on="1"/>
        <pt x="366" y="14" on="0"/>
        <pt x="296" y="-8" on="0"/>
        <pt x="259" y="-8" on="1"/>
        <pt x="212" y="-8" on="0"/>
        <pt x="130" y="27" on="0"/>
        <pt x="71" y="88" on="0"/>
        <pt x="38" y="173" on="0"/>
        <pt x="38" y="222" on="1"/>
        <pt x="38" y="281" on="0"/>
        <pt x="81" y="385" on="0"/>
        <pt x="156" y="463" on="0"/>
        <pt x="257" y="508" on="0"/>
        <pt x="314" y="508" on="1"/>
        <pt x="365" y="508" on="0"/>
        <pt x="453" y="470" on="0"/>
        <pt x="483" y="436" on="1"/>
        <pt x="497" y="501" on="1"/>
        <pt x="568" y="501" on="1"/>
        <pt x="462" y="0" on="1"/>
      </contour>
      <contour>
        <pt x="109" y="228" on="1"/>
        <pt x="109" y="153" on="0"/>
        <pt x="203" y="56" on="0"/>
        <pt x="275" y="56" on="1"/>
        <pt x="313" y="56" on="0"/>
        <pt x="385" y="85" on="0"/>
        <pt x="413" y="111" on="1"/>
        <pt x="467" y="362" on="1"/>
        <pt x="447" y="399" on="0"/>
        <pt x="365" y="443" on="0"/>
        <pt x="316" y="443" on="1"/>
        <pt x="273" y="443" on="0"/>
        <pt x="197" y="409" on="0"/>
        <pt x="141" y="351" on="0"/>
        <pt x="109" y="272" on="0"/>
      </contour>
    </TTGlyph>
    <TTGlyph name="aacute" xMin="16" yMin="-7" xMax="469" yMax="716">
      <component glyphName="a" x="0" y="0" flags="0x204"/>
      <component glyphName="acute" x="18" y="0" flags="0x4"/>
    </TTGlyph>
    <TTGlyph name="aacute.school" xMin="38" yMin="-8" xMax="568" yMax="716">
      <component glyphName="a.school" x="0" y="0" flags="0x204"/>
      <component glyphName="acute" x="54" y="0" flags="0x4"/>
    </TTGlyph>
    <TTGlyph name="abreve" xMin="16" yMin="-7" xMax="482" yMax="729">
      <component glyphName="a" x="0" y="0" flags="0x204"/>
      <component glyphName="breve" x="-19" y="0" flags="0x4"/>
    </TTGlyph>
    <TTGlyph name="abreve.school" xMin="38" yMin="-8" xMax="568" yMax="729">
      <component glyphName="a.school" x="0" y="0" flags="0x204"/>
      <component glyphName="breve" x="17" y="0" flags="0x4"/>
    </TTGlyph>
    <TTGlyph name="acircumflex" xMin="16" yMin="-7" xMax="469" yMax="717">
      <component glyphName="a" x="0" y="0" flags="0x204"/>
      <component glyphName="circumflex" x="-19" y="0" flags="0x4"/>
    </TTGlyph>
    <TTGlyph name="acircumflex.school" xMin="38" yMin="-8" xMax="568" yMax="717">
      <component glyphName="a.school" x="0" y="0" flags="0x204"/>
      <component glyphName="circumflex" x="17" y="0" flags="0x4"/>
    </TTGlyph>
    <TTGlyph name="acute" xMin="238" yMin="600" xMax="450" yMax="716">
      <contour>
        <pt x="355" y="716" on="1"/>
        <pt x="450" y="716" on="1"/>
        <pt x="305" y="600" on="1"/>
        <pt x="238" y="600" on="1"/>
      </contour>
    </TTGlyph>
    <TTGlyph name="adieresis" xMin="16" yMin="-7" xMax="469" yMax="700">
      <component glyphName="a" x="0" y="0" flags="0x204"/>
      <component glyphName="dieresis" x="-29" y="0" flags="0x4"/>
    </TTGlyph>
    <TTGlyph name="adieresis.school" xMin="38" yMin="-8" xMax="568" yMax="700">
      <component glyphName="a.school" x="0" y="0" flags="0x204"/>
      <component glyphName="dieresis" x="7" y="0" flags="0x4"/>
    </TTGlyph>
    <TTGlyph name="ae" xMin="22" yMin="-9" xMax="838" yMax="510">
      <contour>
        <pt x="198" y="-7" on="1"/>
        <pt x="119" y="-7" on="0"/>
        <pt x="22" y="71" on="0"/>
        <pt x="22" y="135" on="1"/>
        <pt x="22" y="208" on="0"/>
        <pt x="133" y="296" on="0"/>
        <pt x="224" y="296" on="1"/>
        <pt x="262" y="296" on="0"/>
        <pt x="334" y="280" on="0"/>
        <pt x="365" y="265" on="1"/>
        <pt x="375" y="313" on="1"/>
        <pt x="388" y="379" on="0"/>
        <pt x="328" y="448" on="0"/>
        <pt x="256" y="448" on="1"/>
        <pt x="225" y="448" on="0"/>
        <pt x="154" y="429" on="0"/>
        <pt x="108" y="409" on="1"/>
        <pt x="87" y="468" on="1"/>
        <pt x="139" y="490" on="0"/>
        <pt x="229" y="510" on="0"/>
        <pt x="270" y="510" on="1"/>
        <pt x="336" y="510" on="0"/>
        <pt x="423" y="462" on="0"/>
        <pt x="439" y="419" on="1"/>
        <pt x="475" y="461" on="0"/>
        <pt x="573" y="509" on="0"/>
        <pt x="624" y="509" on="1"/>
        <pt x="670" y="509" on="0"/>
        <pt x="749" y="473" on="0"/>
        <pt x="806" y="410" on="0"/>
        <pt x="838" y="323" on="0"/>
        <pt x="838" y="273" on="1"/>
        <pt x="838" y="263" on="0"/>
        <pt x="837" y="244" on="0"/>
        <pt x="835" y="228" on="1"/>
        <pt x="434" y="228" on="1"/>
        <pt x="435" y="153" on="0"/>
        <pt x="533" y="55" on="0"/>
        <pt x="607" y="55" on="1"/>
        <pt x="644" y="55" on="0"/>
        <pt x="714" y="77" on="0"/>
        <pt x="742" y="96" on="1"/>
        <pt x="780" y="45" on="1"/>
        <pt x="739" y="17" on="0"/>
        <pt x="653" y="-9" on="0"/>
        <pt x="604" y="-9" on="1"/>
        <pt x="541" y="-9" on="0"/>
        <pt x="439" y="40" on="0"/>
        <pt x="408" y="83" on="1"/>
        <pt x="360" y="38" on="0"/>
        <pt x="255" y="-7" on="0"/>
      </contour>
      <contour>
        <pt x="618" y="444" on="1"/>
        <pt x="555" y="444" on="0"/>
        <pt x="457" y="354" on="0"/>
        <pt x="441" y="287" on="1"/>
        <pt x="769" y="287" on="1"/>
        <pt x="765" y="355" on="0"/>
        <pt x="680" y="444" on="0"/>
      </contour>
      <contour>
        <pt x="91" y="141" on="1"/>
        <pt x="91" y="98" on="0"/>
        <pt x="156" y="50" on="0"/>
        <pt x="211" y="50" on="1"/>
        <pt x="257" y="50" on="0"/>
        <pt x="343" y="87" on="0"/>
        <pt x="384" y="124" on="1"/>
        <pt x="376" y="142" on="0"/>
        <pt x="365" y="183" on="0"/>
        <pt x="364" y="205" on="1"/>
        <pt x="336" y="223" on="0"/>
        <pt x="264" y="242" on="0"/>
        <pt x="224" y="242" on="1"/>
        <pt x="167" y="242" on="0"/>
        <pt x="91" y="184" on="0"/>
      </contour>
    </TTGlyph>
    <TTGlyph name="agrave" xMin="16" yMin="-7" xMax="469" yMax="716">
      <component glyphName="a" x="0" y="0" flags="0x204"/>
      <component glyphName="grave" x="-17" y="0" flags="0x4"/>
    </TTGlyph>
    <TTGlyph name="agrave.school" xMin="38" yMin="-8" xMax="568" yMax="716">
      <component glyphName="a.school" x="0" y="0" flags="0x204"/>
      <component glyphName="grave" x="19" y="0" flags="0x4"/>
    </TTGlyph>
    <TTGlyph name="amacron" xMin="16" yMin="-7" xMax="469" yMax="674">
      <component glyphName="a" x="0" y="0" flags="0x204"/>
      <component glyphName="macron" x="-19" y="0" flags="0x4"/>
    </TTGlyph>
    <TTGlyph name="amacron.school" xMin="38" yMin="-8" xMax="568" yMax="674">
      <component glyphName="a.school" x="0" y="0" flags="0x204"/>
      <component glyphName="macron" x="16" y="0" flags="0x4"/>
    </TTGlyph>
    <TTGlyph name="ampersand" xMin="13" yMin="-11" xMax="629" yMax="708">
      <contour>
        <pt x="588" y="39" on="1"/>
        <pt x="539" y="-11" on="1"/>
        <pt x="517" y="7" on="0"/>
        <pt x="472" y="50" on="0"/>
        <pt x="450" y="73" on="1"/>
        <pt x="403" y="33" on="0"/>
        <pt x="293" y="-9" on="0"/>
        <pt x="234" y="-9" on="1"/>
        <pt x="135" y="-9" on="0"/>
        <pt x="13" y="90" on="0"/>
        <pt x="13" y="171" on="1"/>
        <pt x="13" y="238" on="0"/>
        <pt x="91" y="337" on="0"/>
        <pt x="176" y="380" on="1"/>
        <pt x="213" y="398" on="1"/>
        <pt x="194" y="433" on="0"/>
        <pt x="177" y="495" on="0"/>
        <pt x="177" y="526" on="1"/>
        <pt x="177" y="604" on="0"/>
        <pt x="281" y="708" on="0"/>
        <pt x="359" y="708" on="1"/>
        <pt x="423" y="708" on="0"/>
        <pt x="505" y="637" on="0"/>
        <pt x="505" y="582" on="1"/>
        <pt x="505" y="528" on="0"/>
        <pt x="436" y="442" on="0"/>
        <pt x="359" y="404" on="1"/>
        <pt x="303" y="376" on="1"/>
        <pt x="338" y="322" on="0"/>
        <pt x="417" y="217" on="0"/>
        <pt x="457" y="170" on="1"/>
        <pt x="489" y="207" on="0"/>
        <pt x="544" y="300" on="0"/>
        <pt x="565" y="353" on="1"/>
        <pt x="629" y="335" on="1"/>
        <pt x="603" y="272" on="0"/>
        <pt x="538" y="167" on="0"/>
        <pt x="499" y="124" on="1"/>
        <pt x="521" y="101" on="0"/>
        <pt x="566" y="58" on="0"/>
      </contour>
      <contour>
        <pt x="245" y="531" on="1"/>
        <pt x="245" y="506" on="0"/>
        <pt x="260" y="457" on="0"/>
        <pt x="277" y="426" on="1"/>
        <pt x="338" y="456" on="1"/>
        <pt x="388" y="481" on="0"/>
        <pt x="435" y="537" on="0"/>
        <pt x="435" y="573" on="1"/>
        <pt x="435" y="607" on="0"/>
        <pt x="391" y="650" on="0"/>
        <pt x="354" y="650" on="1"/>
        <pt x="307" y="650" on="0"/>
        <pt x="245" y="582" on="0"/>
      </contour>
      <contour>
        <pt x="84" y="184" on="1"/>
        <pt x="84" y="125" on="0"/>
        <pt x="170" y="53" on="0"/>
        <pt x="241" y="53" on="1"/>
        <pt x="286" y="53" on="0"/>
        <pt x="372" y="87" on="0"/>
        <pt x="409" y="118" on="1"/>
        <pt x="364" y="169" on="0"/>
        <pt x="278" y="287" on="0"/>
        <pt x="240" y="347" on="1"/>
        <pt x="207" y="331" on="1"/>
        <pt x="144" y="301" on="0"/>
        <pt x="84" y="228" on="0"/>
      </contour>
    </TTGlyph>
    <TTGlyph name="aogonek" xMin="16" yMin="-222" xMax="469" yMax="510">
      <contour>
        <pt x="187" y="-7" on="1"/>
        <pt x="110" y="-7" on="0"/>
        <pt x="16" y="70" on="0"/>
        <pt x="16" y="133" on="1"/>
        <pt x="16" y="206" on="0"/>
        <pt x="127" y="296" on="0"/>
        <pt x="220" y="296" on="1"/>
        <pt x="263" y="296" on="0"/>
        <pt x="347" y="273" on="0"/>
        <pt x="380" y="253" on="1"/>
        <pt x="393" y="312" on="1"/>
        <pt x="407" y="380" on="0"/>
        <pt x="347" y="448" on="0"/>
        <pt x="274" y="448" on="1"/>
        <pt x="242" y="448" on="0"/>
        <pt x="170" y="429" on="0"/>
        <pt x="124" y="409" on="1"/>
        <pt x="104" y="468" on="1"/>
        <pt x="155" y="490" on="0"/>
        <pt x="246" y="510" on="0"/>
        <pt x="286" y="510" on="1"/>
        <pt x="387" y="510" on="0"/>
        <pt x="483" y="407" on="0"/>
        <pt x="464" y="317" on="1"/>
        <pt x="397" y="0" on="1"/>
        <pt x="330" y="-35" on="0"/>
        <pt x="266" y="-100" on="0"/>
        <pt x="266" y="-134" on="1"/>
        <pt x="266" y="-153" on="0"/>
        <pt x="294" y="-177" on="0"/>
        <pt x="316" y="-177" on="1"/>
        <pt x="327" y="-177" on="0"/>
        <pt x="352" y="-171" on="0"/>
        <pt x="362" y="-166" on="1"/>
        <pt x="367" y="-206" on="1"/>
        <pt x="351" y="-213" on="0"/>
        <pt x="318" y="-222" on="0"/>
        <pt x="301" y="-222" on="1"/>
        <pt x="261" y="-222" on="0"/>
        <pt x="213" y="-182" on="0"/>
        <pt x="213" y="-149" on="1"/>
        <pt x="213" y="-109" on="0"/>
        <pt x="275" y="-35" on="0"/>
        <pt x="335" y="0" on="1"/>
        <pt x="326" y="0" on="1"/>
        <pt x="335" y="41" on="1"/>
        <pt x="301" y="17" on="0"/>
        <pt x="227" y="-7" on="0"/>
      </contour>
      <contour>
        <pt x="85" y="140" on="1"/>
        <pt x="85" y="98" on="0"/>
        <pt x="149" y="50" on="0"/>
        <pt x="206" y="50" on="1"/>
        <pt x="245" y="50" on="0"/>
        <pt x="316" y="75" on="0"/>
        <pt x="348" y="101" on="1"/>
        <pt x="368" y="195" on="1"/>
        <pt x="339" y="219" on="0"/>
        <pt x="265" y="242" on="0"/>
        <pt x="219" y="242" on="1"/>
        <pt x="161" y="242" on="0"/>
        <pt x="85" y="184" on="0"/>
      </contour>
    </TTGlyph>
    <TTGlyph name="aogonek.school" xMin="38" yMin="-222" xMax="568" yMax="508">
      <contour>
        <pt x="390" y="0" on="1"/>
        <pt x="397" y="35" on="1"/>
        <pt x="366" y="14" on="0"/>
        <pt x="296" y="-8" on="0"/>
        <pt x="259" y="-8" on="1"/>
        <pt x="212" y="-8" on="0"/>
        <pt x="130" y="27" on="0"/>
        <pt x="71" y="88" on="0"/>
        <pt x="38" y="173" on="0"/>
        <pt x="38" y="222" on="1"/>
        <pt x="38" y="281" on="0"/>
        <pt x="81" y="385" on="0"/>
        <pt x="156" y="463" on="0"/>
        <pt x="257" y="508" on="0"/>
        <pt x="314" y="508" on="1"/>
        <pt x="365" y="508" on="0"/>
        <pt x="453" y="470" on="0"/>
        <pt x="483" y="436" on="1"/>
        <pt x="497" y="501" on="1"/>
        <pt x="568" y="501" on="1"/>
        <pt x="462" y="0" on="1"/>
        <pt x="395" y="-35" on="0"/>
        <pt x="331" y="-100" on="0"/>
        <pt x="331" y="-134" on="1"/>
        <pt x="331" y="-153" on="0"/>
        <pt x="359" y="-177" on="0"/>
        <pt x="381" y="-177" on="1"/>
        <pt x="392" y="-177" on="0"/>
        <pt x="417" y="-171" on="0"/>
        <pt x="427" y="-166" on="1"/>
        <pt x="432" y="-206" on="1"/>
        <pt x="416" y="-213" on="0"/>
        <pt x="383" y="-222" on="0"/>
        <pt x="366" y="-222" on="1"/>
        <pt x="326" y="-222" on="0"/>
        <pt x="278" y="-182" on="0"/>
        <pt x="278" y="-149" on="1"/>
        <pt x="278" y="-109" on="0"/>
        <pt x="340" y="-35" on="0"/>
        <pt x="400" y="0" on="1"/>
      </contour>
      <contour>
        <pt x="109" y="228" on="1"/>
        <pt x="109" y="153" on="0"/>
        <pt x="203" y="56" on="0"/>
        <pt x="275" y="56" on="1"/>
        <pt x="313" y="56" on="0"/>
        <pt x="385" y="85" on="0"/>
        <pt x="413" y="111" on="1"/>
        <pt x="467" y="362" on="1"/>
        <pt x="447" y="399" on="0"/>
        <pt x="365" y="443" on="0"/>
        <pt x="316" y="443" on="1"/>
        <pt x="273" y="443" on="0"/>
        <pt x="197" y="409" on="0"/>
        <pt x="141" y="351" on="0"/>
        <pt x="109" y="272" on="0"/>
      </contour>
    </TTGlyph>
    <TTGlyph name="aring" xMin="16" yMin="-7" xMax="469" yMax="804">
      <component glyphName="a" x="0" y="0" flags="0x204"/>
      <component glyphName="ring" x="-19" y="0" flags="0x4"/>
    </TTGlyph>
    <TTGlyph name="aring.school" xMin="38" yMin="-8" xMax="568" yMax="804">
      <component glyphName="a.school" x="0" y="0" flags="0x204"/>
      <component glyphName="ring" x="17" y="0" flags="0x4"/>
    </TTGlyph>
    <TTGlyph name="asciicircum" xMin="68" yMin="350" xMax="498" yMax="700">
      <contour>
        <pt x="68" y="350" on="1"/>
        <pt x="326" y="700" on="1"/>
        <pt x="389" y="700" on="1"/>
        <pt x="498" y="350" on="1"/>
        <pt x="433" y="350" on="1"/>
        <pt x="345" y="634" on="1"/>
        <pt x="137" y="350" on="1"/>
      </contour>
    </TTGlyph>
    <TTGlyph name="asciitilde" xMin="63" yMin="293" xMax="570" yMax="457">
      <contour>
        <pt x="301" y="421" on="1"/>
        <pt x="370" y="379" on="1"/>
        <pt x="393" y="365" on="0"/>
        <pt x="418" y="355" on="0"/>
        <pt x="431" y="355" on="1"/>
        <pt x="459" y="355" on="0"/>
        <pt x="502" y="397" on="0"/>
        <pt x="516" y="439" on="1"/>
        <pt x="570" y="426" on="1"/>
        <pt x="548" y="363" on="0"/>
        <pt x="476" y="293" on="0"/>
        <pt x="430" y="293" on="1"/>
        <pt x="408" y="293" on="0"/>
        <pt x="366" y="309" on="0"/>
        <pt x="331" y="330" on="1"/>
        <pt x="262" y="372" on="1"/>
        <pt x="237" y="386" on="0"/>
        <pt x="213" y="395" on="0"/>
        <pt x="200" y="395" on="1"/>
        <pt x="173" y="395" on="0"/>
        <pt x="131" y="354" on="0"/>
        <pt x="116" y="312" on="1"/>
        <pt x="63" y="325" on="1"/>
        <pt x="84" y="388" on="0"/>
        <pt x="157" y="457" on="0"/>
        <pt x="202" y="457" on="1"/>
        <pt x="224" y="457" on="0"/>
        <pt x="267" y="441" on="0"/>
      </contour>
    </TTGlyph>
    <TTGlyph name="asterisk" xMin="92" yMin="341" xMax="458" yMax="700">
      <contour>
        <pt x="391" y="398" on="1"/>
        <pt x="291" y="479" on="1"/>
        <pt x="264" y="341" on="1"/>
        <pt x="211" y="341" on="1"/>
        <pt x="242" y="480" on="1"/>
        <pt x="113" y="414" on="1"/>
        <pt x="92" y="462" on="1"/>
        <pt x="229" y="528" on="1"/>
        <pt x="126" y="607" on="1"/>
        <pt x="162" y="648" on="1"/>
        <pt x="261" y="568" on="1"/>
        <pt x="287" y="700" on="1"/>
        <pt x="340" y="700" on="1"/>
        <pt x="310" y="568" on="1"/>
        <pt x="436" y="631" on="1"/>
        <pt x="458" y="584" on="1"/>
        <pt x="323" y="520" on="1"/>
        <pt x="429" y="440" on="1"/>
      </contour>
    </TTGlyph>
    <TTGlyph name="at" xMin="40" yMin="-144" xMax="728" yMax="576">
      <contour>
        <pt x="353" y="51" on="1"/>
        <pt x="292" y="51" on="0"/>
        <pt x="209" y="138" on="0"/>
        <pt x="209" y="202" on="1"/>
        <pt x="209" y="239" on="0"/>
        <pt x="236" y="303" on="0"/>
        <pt x="282" y="351" on="0"/>
        <pt x="344" y="379" on="0"/>
        <pt x="379" y="379" on="1"/>
        <pt x="408" y="379" on="0"/>
        <pt x="461" y="358" on="0"/>
        <pt x="480" y="340" on="1"/>
        <pt x="485" y="366" on="1"/>
        <pt x="541" y="366" on="1"/>
        <pt x="502" y="174" on="1"/>
        <pt x="495" y="138" on="0"/>
        <pt x="523" y="99" on="0"/>
        <pt x="557" y="99" on="1"/>
        <pt x="610" y="99" on="0"/>
        <pt x="681" y="196" on="0"/>
        <pt x="681" y="267" on="1"/>
        <pt x="681" y="324" on="0"/>
        <pt x="637" y="421" on="0"/>
        <pt x="560" y="492" on="0"/>
        <pt x="454" y="532" on="0"/>
        <pt x="393" y="532" on="1"/>
        <pt x="329" y="532" on="0"/>
        <pt x="218" y="482" on="0"/>
        <pt x="136" y="395" on="0"/>
        <pt x="89" y="277" on="0"/>
        <pt x="89" y="209" on="1"/>
        <pt x="89" y="143" on="0"/>
        <pt x="136" y="29" on="0"/>
        <pt x="219" y="-53" on="0"/>
        <pt x="334" y="-99" on="0"/>
        <pt x="401" y="-99" on="1"/>
        <pt x="447" y="-99" on="0"/>
        <pt x="535" y="-78" on="0"/>
        <pt x="572" y="-58" on="1"/>
        <pt x="590" y="-99" on="1"/>
        <pt x="547" y="-121" on="0"/>
        <pt x="449" y="-144" on="0"/>
        <pt x="398" y="-144" on="1"/>
        <pt x="322" y="-144" on="0"/>
        <pt x="190" y="-91" on="0"/>
        <pt x="95" y="3" on="0"/>
        <pt x="40" y="132" on="0"/>
        <pt x="40" y="207" on="1"/>
        <pt x="40" y="285" on="0"/>
        <pt x="94" y="421" on="0"/>
        <pt x="189" y="520" on="0"/>
        <pt x="319" y="576" on="0"/>
        <pt x="395" y="576" on="1"/>
        <pt x="466" y="576" on="0"/>
        <pt x="588" y="529" on="0"/>
        <pt x="677" y="447" on="0"/>
        <pt x="728" y="334" on="0"/>
        <pt x="728" y="269" on="1"/>
        <pt x="728" y="223" on="0"/>
        <pt x="701" y="144" on="0"/>
        <pt x="654" y="87" on="0"/>
        <pt x="590" y="55" on="0"/>
        <pt x="552" y="55" on="1"/>
        <pt x="519" y="55" on="0"/>
        <pt x="472" y="77" on="0"/>
        <pt x="459" y="96" on="1"/>
        <pt x="434" y="74" on="0"/>
        <pt x="379" y="51" on="0"/>
      </contour>
      <contour>
        <pt x="265" y="206" on="1"/>
        <pt x="265" y="158" on="0"/>
        <pt x="321" y="98" on="0"/>
        <pt x="364" y="98" on="1"/>
        <pt x="386" y="98" on="0"/>
        <pt x="428" y="116" on="0"/>
        <pt x="445" y="133" on="1"/>
        <pt x="444" y="143" on="0"/>
        <pt x="445" y="166" on="0"/>
        <pt x="447" y="179" on="1"/>
        <pt x="469" y="285" on="1"/>
        <pt x="455" y="307" on="0"/>
        <pt x="406" y="331" on="0"/>
        <pt x="377" y="331" on="1"/>
        <pt x="331" y="331" on="0"/>
        <pt x="265" y="257" on="0"/>
      </contour>
    </TTGlyph>
    <TTGlyph name="at.cap" xMin="68" yMin="-9" xMax="756" yMax="711">
      <component glyphName="at" x="28" y="135" flags="0x4"/>
    </TTGlyph>
    <TTGlyph name="atilde" xMin="16" yMin="-7" xMax="493" yMax="705">
      <component glyphName="a" x="0" y="0" flags="0x204"/>
      <component glyphName="tilde" x="-15" y="0" flags="0x4"/>
    </TTGlyph>
    <TTGlyph name="atilde.school" xMin="38" yMin="-8" xMax="568" yMax="705">
      <component glyphName="a.school" x="0" y="0" flags="0x204"/>
      <component glyphName="tilde" x="21" y="0" flags="0x4"/>
    </TTGlyph>
    <TTGlyph name="b" xMin="10" yMin="-9" xMax="539" yMax="717">
      <contour>
        <pt x="539" y="278" on="1"/>
        <pt x="539" y="219" on="0"/>
        <pt x="496" y="114" on="0"/>
        <pt x="421" y="36" on="0"/>
        <pt x="321" y="-9" on="0"/>
        <pt x="264" y="-9" on="1"/>
        <pt x="213" y="-9" on="0"/>
        <pt x="126" y="29" on="0"/>
        <pt x="95" y="64" on="1"/>
        <pt x="81" y="0" on="1"/>
        <pt x="10" y="0" on="1"/>
        <pt x="159" y="700" on="1"/>
        <pt x="234" y="717" on="1"/>
        <pt x="181" y="466" on="1"/>
        <pt x="212" y="487" on="0"/>
        <pt x="281" y="508" on="0"/>
        <pt x="318" y="508" on="1"/>
        <pt x="365" y="508" on="0"/>
        <pt x="447" y="473" on="0"/>
        <pt x="506" y="412" on="0"/>
        <pt x="539" y="327" on="0"/>
      </contour>
      <contour>
        <pt x="303" y="443" on="1"/>
        <pt x="264" y="443" on="0"/>
        <pt x="192" y="415" on="0"/>
        <pt x="164" y="390" on="1"/>
        <pt x="111" y="138" on="1"/>
        <pt x="131" y="101" on="0"/>
        <pt x="213" y="57" on="0"/>
        <pt x="262" y="57" on="1"/>
        <pt x="305" y="57" on="0"/>
        <pt x="380" y="91" on="0"/>
        <pt x="436" y="149" on="0"/>
        <pt x="468" y="228" on="0"/>
        <pt x="468" y="272" on="1"/>
        <pt x="468" y="347" on="0"/>
        <pt x="375" y="443" on="0"/>
      </contour>
    </TTGlyph>
    <TTGlyph name="backslash" xMin="102" yMin="-205" xMax="394" yMax="700">
      <contour>
        <pt x="394" y="-205" on="1"/>
        <pt x="322" y="-205" on="1"/>
        <pt x="102" y="700" on="1"/>
        <pt x="173" y="700" on="1"/>
      </contour>
    </TTGlyph>
    <TTGlyph name="bar" xMin="3" yMin="-206" xMax="263" yMax="700">
      <contour>
        <pt x="3" y="-206" on="1"/>
        <pt x="196" y="700" on="1"/>
        <pt x="263" y="700" on="1"/>
        <pt x="70" y="-206" on="1"/>
      </contour>
    </TTGlyph>
    <TTGlyph name="braceleft" xMin="18" yMin="-212" xMax="428" yMax="710">
      <contour>
        <pt x="209" y="85" on="1"/>
        <pt x="136" y="-28" on="1"/>
        <pt x="102" y="-81" on="0"/>
        <pt x="129" y="-152" on="0"/>
        <pt x="178" y="-152" on="1"/>
        <pt x="196" y="-152" on="0"/>
        <pt x="221" y="-149" on="0"/>
        <pt x="235" y="-145" on="1"/>
        <pt x="238" y="-203" on="1"/>
        <pt x="216" y="-208" on="0"/>
        <pt x="187" y="-212" on="0"/>
        <pt x="168" y="-212" on="1"/>
        <pt x="122" y="-212" on="0"/>
        <pt x="61" y="-178" on="0"/>
        <pt x="37" y="-122" on="0"/>
        <pt x="50" y="-47" on="0"/>
        <pt x="77" y="-6" on="1"/>
        <pt x="140" y="87" on="1"/>
        <pt x="175" y="139" on="0"/>
        <pt x="149" y="220" on="0"/>
        <pt x="96" y="220" on="1"/>
        <pt x="18" y="220" on="1"/>
        <pt x="31" y="281" on="1"/>
        <pt x="109" y="281" on="1"/>
        <pt x="164" y="281" on="0"/>
        <pt x="221" y="357" on="0"/>
        <pt x="209" y="412" on="1"/>
        <pt x="187" y="515" on="1"/>
        <pt x="170" y="598" on="0"/>
        <pt x="257" y="710" on="0"/>
        <pt x="340" y="710" on="1"/>
        <pt x="363" y="710" on="0"/>
        <pt x="406" y="700" on="0"/>
        <pt x="428" y="690" on="1"/>
        <pt x="401" y="635" on="1"/>
        <pt x="385" y="642" on="0"/>
        <pt x="352" y="650" on="0"/>
        <pt x="336" y="650" on="1"/>
        <pt x="288" y="650" on="0"/>
        <pt x="241" y="584" on="0"/>
        <pt x="251" y="527" on="1"/>
        <pt x="276" y="403" on="1"/>
        <pt x="286" y="346" on="0"/>
        <pt x="221" y="259" on="0"/>
        <pt x="164" y="247" on="1"/>
        <pt x="214" y="228" on="0"/>
        <pt x="243" y="137" on="0"/>
      </contour>
    </TTGlyph>
    <TTGlyph name="braceright" xMin="-57" yMin="-223" xMax="353" yMax="699">
      <contour>
        <pt x="162" y="402" on="1"/>
        <pt x="235" y="515" on="1"/>
        <pt x="269" y="568" on="0"/>
        <pt x="242" y="639" on="0"/>
        <pt x="193" y="639" on="1"/>
        <pt x="175" y="639" on="0"/>
        <pt x="150" y="636" on="0"/>
        <pt x="136" y="632" on="1"/>
        <pt x="133" y="690" on="1"/>
        <pt x="155" y="695" on="0"/>
        <pt x="184" y="699" on="0"/>
        <pt x="203" y="699" on="1"/>
        <pt x="249" y="699" on="0"/>
        <pt x="310" y="665" on="0"/>
        <pt x="334" y="609" on="0"/>
        <pt x="321" y="534" on="0"/>
        <pt x="294" y="493" on="1"/>
        <pt x="231" y="400" on="1"/>
        <pt x="196" y="348" on="0"/>
        <pt x="222" y="267" on="0"/>
        <pt x="275" y="267" on="1"/>
        <pt x="353" y="267" on="1"/>
        <pt x="340" y="206" on="1"/>
        <pt x="262" y="206" on="1"/>
        <pt x="207" y="206" on="0"/>
        <pt x="150" y="130" on="0"/>
        <pt x="162" y="75" on="1"/>
        <pt x="184" y="-28" on="1"/>
        <pt x="201" y="-111" on="0"/>
        <pt x="114" y="-223" on="0"/>
        <pt x="31" y="-223" on="1"/>
        <pt x="8" y="-223" on="0"/>
        <pt x="-35" y="-213" on="0"/>
        <pt x="-57" y="-203" on="1"/>
        <pt x="-30" y="-148" on="1"/>
        <pt x="-14" y="-155" on="0"/>
        <pt x="19" y="-163" on="0"/>
        <pt x="35" y="-163" on="1"/>
        <pt x="83" y="-163" on="0"/>
        <pt x="130" y="-97" on="0"/>
        <pt x="120" y="-40" on="1"/>
        <pt x="95" y="84" on="1"/>
        <pt x="85" y="141" on="0"/>
        <pt x="150" y="228" on="0"/>
        <pt x="207" y="240" on="1"/>
        <pt x="157" y="259" on="0"/>
        <pt x="128" y="350" on="0"/>
      </contour>
    </TTGlyph>
    <TTGlyph name="bracketleft" xMin="-42" yMin="-207" xMax="398" yMax="700">
      <contour>
        <pt x="205" y="-207" on="1"/>
        <pt x="-42" y="-207" on="1"/>
        <pt x="151" y="700" on="1"/>
        <pt x="398" y="700" on="1"/>
        <pt x="385" y="640" on="1"/>
        <pt x="208" y="640" on="1"/>
        <pt x="41" y="-147" on="1"/>
        <pt x="218" y="-147" on="1"/>
      </contour>
    </TTGlyph>
    <TTGlyph name="bracketright" xMin="-59" yMin="-207" xMax="381" yMax="700">
      <contour>
        <pt x="134" y="700" on="1"/>
        <pt x="381" y="700" on="1"/>
        <pt x="188" y="-207" on="1"/>
        <pt x="-59" y="-207" on="1"/>
        <pt x="-46" y="-147" on="1"/>
        <pt x="131" y="-147" on="1"/>
        <pt x="298" y="640" on="1"/>
        <pt x="121" y="640" on="1"/>
      </contour>
    </TTGlyph>
    <TTGlyph name="breve" xMin="201" yMin="591" xMax="501" yMax="729">
      <contour>
        <pt x="338" y="640" on="1"/>
        <pt x="374" y="640" on="0"/>
        <pt x="432" y="684" on="0"/>
        <pt x="451" y="726" on="1"/>
        <pt x="501" y="710" on="1"/>
        <pt x="476" y="653" on="0"/>
        <pt x="390" y="591" on="0"/>
        <pt x="336" y="591" on="1"/>
        <pt x="276" y="591" on="0"/>
        <pt x="201" y="663" on="0"/>
        <pt x="201" y="720" on="1"/>
        <pt x="252" y="729" on="1"/>
        <pt x="253" y="686" on="0"/>
        <pt x="298" y="640" on="0"/>
      </contour>
    </TTGlyph>
    <TTGlyph name="bullet" xMin="83" yMin="253" xMax="282" yMax="454">
      <contour>
        <pt x="172" y="253" on="1"/>
        <pt x="135" y="253" on="0"/>
        <pt x="83" y="304" on="0"/>
        <pt x="83" y="341" on="1"/>
        <pt x="83" y="386" on="0"/>
        <pt x="149" y="454" on="0"/>
        <pt x="194" y="454" on="1"/>
        <pt x="231" y="454" on="0"/>
        <pt x="282" y="403" on="0"/>
        <pt x="282" y="366" on="1"/>
        <pt x="282" y="321" on="0"/>
        <pt x="215" y="253" on="0"/>
      </contour>
    </TTGlyph>
    <TTGlyph name="c" xMin="36" yMin="-9" xMax="505" yMax="509">
      <contour>
        <pt x="269" y="56" on="1"/>
        <pt x="305" y="56" on="0"/>
        <pt x="376" y="84" on="0"/>
        <pt x="411" y="110" on="1"/>
        <pt x="446" y="58" on="1"/>
        <pt x="403" y="24" on="0"/>
        <pt x="309" y="-9" on="0"/>
        <pt x="260" y="-9" on="1"/>
        <pt x="212" y="-9" on="0"/>
        <pt x="129" y="25" on="0"/>
        <pt x="70" y="86" on="0"/>
        <pt x="36" y="170" on="0"/>
        <pt x="36" y="219" on="1"/>
        <pt x="36" y="278" on="0"/>
        <pt x="81" y="384" on="0"/>
        <pt x="156" y="463" on="0"/>
        <pt x="258" y="509" on="0"/>
        <pt x="314" y="509" on="1"/>
        <pt x="369" y="509" on="0"/>
        <pt x="474" y="457" on="0"/>
        <pt x="505" y="414" on="1"/>
        <pt x="452" y="365" on="1"/>
        <pt x="425" y="402" on="0"/>
        <pt x="352" y="442" on="0"/>
        <pt x="309" y="442" on="1"/>
        <pt x="269" y="442" on="0"/>
        <pt x="195" y="407" on="0"/>
        <pt x="141" y="347" on="0"/>
        <pt x="108" y="266" on="0"/>
        <pt x="108" y="222" on="1"/>
        <pt x="108" y="153" on="0"/>
        <pt x="201" y="56" on="0"/>
      </contour>
    </TTGlyph>
    <TTGlyph name="cacute" xMin="36" yMin="-9" xMax="505" yMax="716">
      <component glyphName="c" x="0" y="0" flags="0x204"/>
      <component glyphName="acute" x="50" y="0" flags="0x4"/>
    </TTGlyph>
    <TTGlyph name="caron" xMin="210" yMin="598" xMax="492" yMax="718">
      <contour>
        <pt x="268" y="718" on="1"/>
        <pt x="331" y="639" on="1"/>
        <pt x="428" y="718" on="1"/>
        <pt x="492" y="718" on="1"/>
        <pt x="365" y="598" on="1"/>
        <pt x="286" y="598" on="1"/>
        <pt x="210" y="718" on="1"/>
      </contour>
    </TTGlyph>
    <TTGlyph name="caronSlovak" xMin="244" yMin="508" xMax="370" yMax="714">
      <contour>
        <pt x="293" y="714" on="1"/>
        <pt x="370" y="714" on="1"/>
        <pt x="301" y="508" on="1"/>
        <pt x="244" y="508" on="1"/>
      </contour>
    </TTGlyph>
    <TTGlyph name="ccaron" xMin="36" yMin="-9" xMax="505" yMax="718">
      <component glyphName="c" x="0" y="0" flags="0x204"/>
      <component glyphName="caron" x="13" y="0" flags="0x4"/>
    </TTGlyph>
    <TTGlyph name="ccedilla" xMin="36" yMin="-228" xMax="505" yMax="509">
      <contour>
        <pt x="269" y="56" on="1"/>
        <pt x="305" y="56" on="0"/>
        <pt x="376" y="84" on="0"/>
        <pt x="411" y="110" on="1"/>
        <pt x="446" y="58" on="1"/>
        <pt x="406" y="27" on="0"/>
        <pt x="319" y="-7" on="0"/>
        <pt x="274" y="-9" on="1"/>
        <pt x="250" y="-56" on="1"/>
        <pt x="287" y="-60" on="0"/>
        <pt x="328" y="-98" on="0"/>
        <pt x="328" y="-129" on="1"/>
        <pt x="328" y="-172" on="0"/>
        <pt x="260" y="-228" on="0"/>
        <pt x="209" y="-228" on="1"/>
        <pt x="175" y="-228" on="0"/>
        <pt x="117" y="-203" on="0"/>
        <pt x="99" y="-181" on="1"/>
        <pt x="132" y="-151" on="1"/>
        <pt x="148" y="-169" on="0"/>
        <pt x="187" y="-186" on="0"/>
        <pt x="210" y="-186" on="1"/>
        <pt x="241" y="-186" on="0"/>
        <pt x="280" y="-157" on="0"/>
        <pt x="280" y="-134" on="1"/>
        <pt x="280" y="-114" on="0"/>
        <pt x="247" y="-91" on="0"/>
        <pt x="219" y="-91" on="1"/>
        <pt x="190" y="-91" on="1"/>
        <pt x="231" y="-7" on="1"/>
        <pt x="146" y="3" on="0"/>
        <pt x="36" y="128" on="0"/>
        <pt x="36" y="219" on="1"/>
        <pt x="36" y="278" on="0"/>
        <pt x="81" y="384" on="0"/>
        <pt x="156" y="463" on="0"/>
        <pt x="258" y="509" on="0"/>
        <pt x="314" y="509" on="1"/>
        <pt x="369" y="509" on="0"/>
        <pt x="474" y="457" on="0"/>
        <pt x="505" y="414" on="1"/>
        <pt x="452" y="365" on="1"/>
        <pt x="425" y="402" on="0"/>
        <pt x="352" y="442" on="0"/>
        <pt x="309" y="442" on="1"/>
        <pt x="269" y="442" on="0"/>
        <pt x="195" y="407" on="0"/>
        <pt x="141" y="347" on="0"/>
        <pt x="108" y="266" on="0"/>
        <pt x="108" y="222" on="1"/>
        <pt x="108" y="153" on="0"/>
        <pt x="201" y="56" on="0"/>
      </contour>
    </TTGlyph>
    <TTGlyph name="ccircumflex" xMin="36" yMin="-9" xMax="505" yMax="717">
      <component glyphName="c" x="0" y="0" flags="0x204"/>
      <component glyphName="circumflex" x="13" y="0" flags="0x4"/>
    </TTGlyph>
    <TTGlyph name="cdotaccent" xMin="36" yMin="-9" xMax="505" yMax="700">
      <component glyphName="c" x="0" y="0" flags="0x204"/>
      <component glyphName="dotaccent" x="136" y="0" flags="0x4"/>
    </TTGlyph>
    <TTGlyph name="cedilla" xMin="75" yMin="-228" xMax="304" yMax="0">
      <contour>
        <pt x="304" y="-129" on="1"/>
        <pt x="304" y="-172" on="0"/>
        <pt x="236" y="-228" on="0"/>
        <pt x="185" y="-228" on="1"/>
        <pt x="151" y="-228" on="0"/>
        <pt x="93" y="-203" on="0"/>
        <pt x="75" y="-181" on="1"/>
        <pt x="108" y="-151" on="1"/>
        <pt x="124" y="-169" on="0"/>
        <pt x="163" y="-186" on="0"/>
        <pt x="186" y="-186" on="1"/>
        <pt x="217" y="-186" on="0"/>
        <pt x="256" y="-157" on="0"/>
        <pt x="256" y="-134" on="1"/>
        <pt x="256" y="-114" on="0"/>
        <pt x="223" y="-91" on="0"/>
        <pt x="195" y="-91" on="1"/>
        <pt x="166" y="-91" on="1"/>
        <pt x="211" y="0" on="1"/>
        <pt x="254" y="0" on="1"/>
        <pt x="226" y="-56" on="1"/>
        <pt x="263" y="-60" on="0"/>
        <pt x="304" y="-98" on="0"/>
      </contour>
    </TTGlyph>
    <TTGlyph name="cent" xMin="36" yMin="-110" xMax="505" yMax="617">
      <contour>
        <pt x="180" y="-110" on="1"/>
        <pt x="203" y="-2" on="1"/>
        <pt x="129" y="15" on="0"/>
        <pt x="36" y="135" on="0"/>
        <pt x="36" y="219" on="1"/>
        <pt x="36" y="278" on="0"/>
        <pt x="81" y="384" on="0"/>
        <pt x="156" y="463" on="0"/>
        <pt x="256" y="509" on="0"/>
        <pt x="312" y="509" on="1"/>
        <pt x="335" y="617" on="1"/>
        <pt x="385" y="617" on="1"/>
        <pt x="361" y="504" on="1"/>
        <pt x="404" y="495" on="0"/>
        <pt x="481" y="448" on="0"/>
        <pt x="505" y="414" on="1"/>
        <pt x="452" y="365" on="1"/>
        <pt x="431" y="394" on="0"/>
        <pt x="378" y="431" on="0"/>
        <pt x="347" y="438" on="1"/>
        <pt x="266" y="56" on="1"/>
        <pt x="269" y="56" on="1"/>
        <pt x="305" y="56" on="0"/>
        <pt x="376" y="84" on="0"/>
        <pt x="411" y="110" on="1"/>
        <pt x="446" y="58" on="1"/>
        <pt x="403" y="24" on="0"/>
        <pt x="309" y="-9" on="0"/>
        <pt x="260" y="-9" on="1"/>
        <pt x="252" y="-9" on="1"/>
        <pt x="231" y="-110" on="1"/>
      </contour>
      <contour>
        <pt x="108" y="222" on="1"/>
        <pt x="108" y="167" on="0"/>
        <pt x="169" y="80" on="0"/>
        <pt x="217" y="64" on="1"/>
        <pt x="298" y="442" on="1"/>
        <pt x="260" y="439" on="0"/>
        <pt x="190" y="402" on="0"/>
        <pt x="139" y="343" on="0"/>
        <pt x="108" y="265" on="0"/>
      </contour>
    </TTGlyph>
    <TTGlyph name="circumflex" xMin="186" yMin="596" xMax="469" yMax="717">
      <contour>
        <pt x="411" y="596" on="1"/>
        <pt x="347" y="676" on="1"/>
        <pt x="248" y="596" on="1"/>
        <pt x="186" y="596" on="1"/>
        <pt x="314" y="717" on="1"/>
        <pt x="393" y="717" on="1"/>
        <pt x="469" y="596" on="1"/>
      </contour>
    </TTGlyph>
    <TTGlyph name="colon" xMin="4" yMin="-6" xMax="190" yMax="512">
      <component glyphName="period" x="2" y="0" flags="0x4"/>
      <component glyphName="period" x="87" y="416" flags="0x4"/>
    </TTGlyph>
    <TTGlyph name="comma" xMin="-66" yMin="-137" xMax="115" yMax="74">
      <contour>
        <pt x="35" y="74" on="1"/>
        <pt x="115" y="74" on="1"/>
        <pt x="-8" y="-137" on="1"/>
        <pt x="-66" y="-137" on="1"/>
      </contour>
    </TTGlyph>
    <TTGlyph name="commaaccent" xMin="-76" yMin="-264" xMax="77" yMax="-85">
      <contour>
        <pt x="2" y="-85" on="1"/>
        <pt x="77" y="-85" on="1"/>
        <pt x="-21" y="-264" on="1"/>
        <pt x="-76" y="-264" on="1"/>
      </contour>
    </TTGlyph>
    <TTGlyph name="copyright" xMin="61" yMin="-9" xMax="773" yMax="706">
      <contour>
        <pt x="61" y="311" on="1"/>
        <pt x="61" y="392" on="0"/>
        <pt x="123" y="536" on="0"/>
        <pt x="228" y="643" on="0"/>
        <pt x="369" y="706" on="0"/>
        <pt x="447" y="706" on="1"/>
        <pt x="517" y="706" on="0"/>
        <pt x="637" y="658" on="0"/>
        <pt x="724" y="572" on="0"/>
        <pt x="773" y="455" on="0"/>
        <pt x="773" y="386" on="1"/>
        <pt x="773" y="305" on="0"/>
        <pt x="711" y="161" on="0"/>
        <pt x="607" y="54" on="0"/>
        <pt x="466" y="-9" on="0"/>
        <pt x="388" y="-9" on="1"/>
        <pt x="317" y="-9" on="0"/>
        <pt x="197" y="39" on="0"/>
        <pt x="110" y="124" on="0"/>
        <pt x="61" y="242" on="0"/>
      </contour>
      <contour>
        <pt x="726" y="381" on="1"/>
        <pt x="726" y="442" on="0"/>
        <pt x="684" y="546" on="0"/>
        <pt x="609" y="621" on="0"/>
        <pt x="505" y="663" on="0"/>
        <pt x="444" y="663" on="1"/>
        <pt x="376" y="663" on="0"/>
        <pt x="253" y="607" on="0"/>
        <pt x="162" y="512" on="0"/>
        <pt x="108" y="385" on="0"/>
        <pt x="108" y="315" on="1"/>
        <pt x="108" y="255" on="0"/>
        <pt x="151" y="151" on="0"/>
        <pt x="225" y="76" on="0"/>
        <pt x="328" y="33" on="0"/>
        <pt x="388" y="33" on="1"/>
        <pt x="457" y="33" on="0"/>
        <pt x="580" y="90" on="0"/>
        <pt x="672" y="185" on="0"/>
        <pt x="726" y="311" on="0"/>
      </contour>
      <contour>
        <pt x="245" y="328" on="1"/>
        <pt x="245" y="369" on="0"/>
        <pt x="277" y="444" on="0"/>
        <pt x="332" y="500" on="0"/>
        <pt x="405" y="533" on="0"/>
        <pt x="445" y="533" on="1"/>
        <pt x="488" y="533" on="0"/>
        <pt x="566" y="495" on="0"/>
        <pt x="588" y="462" on="1"/>
        <pt x="545" y="426" on="1"/>
        <pt x="527" y="452" on="0"/>
        <pt x="472" y="482" on="0"/>
        <pt x="442" y="482" on="1"/>
        <pt x="414" y="482" on="0"/>
        <pt x="362" y="458" on="0"/>
        <pt x="324" y="416" on="0"/>
        <pt x="301" y="362" on="0"/>
        <pt x="301" y="332" on="1"/>
        <pt x="301" y="283" on="0"/>
        <pt x="364" y="219" on="0"/>
        <pt x="412" y="219" on="1"/>
        <pt x="437" y="219" on="0"/>
        <pt x="484" y="237" on="0"/>
        <pt x="508" y="254" on="1"/>
        <pt x="533" y="212" on="1"/>
        <pt x="506" y="190" on="0"/>
        <pt x="439" y="167" on="0"/>
        <pt x="405" y="167" on="1"/>
        <pt x="336" y="167" on="0"/>
        <pt x="245" y="259" on="0"/>
      </contour>
    </TTGlyph>
    <TTGlyph name="cordinal" xMin="90" yMin="317" xMax="445" yMax="709">
      <contour>
        <pt x="267" y="372" on="1"/>
        <pt x="295" y="372" on="0"/>
        <pt x="347" y="393" on="0"/>
        <pt x="372" y="412" on="1"/>
        <pt x="402" y="369" on="1"/>
        <pt x="371" y="344" on="0"/>
        <pt x="298" y="317" on="0"/>
        <pt x="261" y="317" on="1"/>
        <pt x="188" y="317" on="0"/>
        <pt x="90" y="415" on="0"/>
        <pt x="90" y="490" on="1"/>
        <pt x="90" y="534" on="0"/>
        <pt x="123" y="614" on="0"/>
        <pt x="180" y="674" on="0"/>
        <pt x="256" y="709" on="0"/>
        <pt x="299" y="709" on="1"/>
        <pt x="342" y="709" on="0"/>
        <pt x="422" y="669" on="0"/>
        <pt x="445" y="636" on="1"/>
        <pt x="402" y="596" on="1"/>
        <pt x="382" y="624" on="0"/>
        <pt x="328" y="652" on="0"/>
        <pt x="297" y="652" on="1"/>
        <pt x="268" y="652" on="0"/>
        <pt x="214" y="626" on="0"/>
        <pt x="174" y="583" on="0"/>
        <pt x="150" y="525" on="0"/>
        <pt x="150" y="493" on="1"/>
        <pt x="150" y="442" on="0"/>
        <pt x="218" y="372" on="0"/>
      </contour>
    </TTGlyph>
    <TTGlyph name="d" xMin="38" yMin="-8" xMax="614" yMax="717">
      <contour>
        <pt x="390" y="0" on="1"/>
        <pt x="397" y="35" on="1"/>
        <pt x="366" y="14" on="0"/>
        <pt x="296" y="-8" on="0"/>
        <pt x="259" y="-8" on="1"/>
        <pt x="212" y="-8" on="0"/>
        <pt x="130" y="27" on="0"/>
        <pt x="71" y="88" on="0"/>
        <pt x="38" y="173" on="0"/>
        <pt x="38" y="222" on="1"/>
        <pt x="38" y="281" on="0"/>
        <pt x="81" y="385" on="0"/>
        <pt x="156" y="463" on="0"/>
        <pt x="257" y="508" on="0"/>
        <pt x="314" y="508" on="1"/>
        <pt x="365" y="508" on="0"/>
        <pt x="452" y="470" on="0"/>
        <pt x="483" y="436" on="1"/>
        <pt x="539" y="700" on="1"/>
        <pt x="614" y="717" on="1"/>
        <pt x="462" y="0" on="1"/>
      </contour>
      <contour>
        <pt x="109" y="228" on="1"/>
        <pt x="109" y="153" on="0"/>
        <pt x="203" y="56" on="0"/>
        <pt x="275" y="56" on="1"/>
        <pt x="313" y="56" on="0"/>
        <pt x="385" y="85" on="0"/>
        <pt x="413" y="111" on="1"/>
        <pt x="467" y="363" on="1"/>
        <pt x="447" y="399" on="0"/>
        <pt x="365" y="443" on="0"/>
        <pt x="316" y="443" on="1"/>
        <pt x="273" y="443" on="0"/>
        <pt x="197" y="409" on="0"/>
        <pt x="141" y="351" on="0"/>
        <pt x="109" y="272" on="0"/>
      </contour>
    </TTGlyph>
    <TTGlyph name="dagger" xMin="94" yMin="0" xMax="418" yMax="700">
      <contour>
        <pt x="123" y="0" on="1"/>
        <pt x="217" y="442" on="1"/>
        <pt x="94" y="442" on="1"/>
        <pt x="106" y="502" on="1"/>
        <pt x="230" y="502" on="1"/>
        <pt x="272" y="700" on="1"/>
        <pt x="336" y="700" on="1"/>
        <pt x="294" y="502" on="1"/>
        <pt x="418" y="502" on="1"/>
        <pt x="405" y="442" on="1"/>
        <pt x="281" y="442" on="1"/>
        <pt x="187" y="0" on="1"/>
      </contour>
    </TTGlyph>
    <TTGlyph name="daggerdbl" xMin="42" yMin="0" xMax="418" yMax="700">
      <contour>
        <pt x="123" y="0" on="1"/>
        <pt x="165" y="198" on="1"/>
        <pt x="42" y="198" on="1"/>
        <pt x="54" y="258" on="1"/>
        <pt x="178" y="258" on="1"/>
        <pt x="217" y="442" on="1"/>
        <pt x="94" y="442" on="1"/>
        <pt x="106" y="502" on="1"/>
        <pt x="230" y="502" on="1"/>
        <pt x="272" y="700" on="1"/>
        <pt x="336" y="700" on="1"/>
        <pt x="294" y="502" on="1"/>
        <pt x="418" y="502" on="1"/>
        <pt x="405" y="442" on="1"/>
        <pt x="281" y="442" on="1"/>
        <pt x="242" y="258" on="1"/>
        <pt x="366" y="258" on="1"/>
        <pt x="353" y="198" on="1"/>
        <pt x="229" y="198" on="1"/>
        <pt x="187" y="0" on="1"/>
      </contour>
    </TTGlyph>
    <TTGlyph name="dcaron" xMin="38" yMin="-8" xMax="777" yMax="717">
      <component glyphName="d" x="0" y="0" flags="0x4"/>
      <component glyphName="caronSlovak" x="407" y="0" flags="0x4"/>
    </TTGlyph>
    <TTGlyph name="dcroat" xMin="38" yMin="-8" xMax="661" yMax="717">
      <contour>
        <pt x="390" y="0" on="1"/>
        <pt x="397" y="35" on="1"/>
        <pt x="366" y="14" on="0"/>
        <pt x="296" y="-8" on="0"/>
        <pt x="259" y="-8" on="1"/>
        <pt x="212" y="-8" on="0"/>
        <pt x="130" y="27" on="0"/>
        <pt x="71" y="88" on="0"/>
        <pt x="38" y="173" on="0"/>
        <pt x="38" y="222" on="1"/>
        <pt x="38" y="281" on="0"/>
        <pt x="81" y="385" on="0"/>
        <pt x="156" y="463" on="0"/>
        <pt x="257" y="508" on="0"/>
        <pt x="314" y="508" on="1"/>
        <pt x="365" y="508" on="0"/>
        <pt x="452" y="470" on="0"/>
        <pt x="483" y="436" on="1"/>
        <pt x="515" y="586" on="1"/>
        <pt x="355" y="586" on="1"/>
        <pt x="367" y="644" on="1"/>
        <pt x="527" y="644" on="1"/>
        <pt x="539" y="700" on="1"/>
        <pt x="614" y="717" on="1"/>
        <pt x="599" y="644" on="1"/>
        <pt x="661" y="644" on="1"/>
        <pt x="649" y="586" on="1"/>
        <pt x="586" y="586" on="1"/>
        <pt x="462" y="0" on="1"/>
      </contour>
      <contour>
        <pt x="109" y="228" on="1"/>
        <pt x="109" y="153" on="0"/>
        <pt x="203" y="56" on="0"/>
        <pt x="275" y="56" on="1"/>
        <pt x="313" y="56" on="0"/>
        <pt x="385" y="85" on="0"/>
        <pt x="413" y="111" on="1"/>
        <pt x="467" y="363" on="1"/>
        <pt x="447" y="399" on="0"/>
        <pt x="365" y="443" on="0"/>
        <pt x="316" y="443" on="1"/>
        <pt x="273" y="443" on="0"/>
        <pt x="197" y="409" on="0"/>
        <pt x="141" y="351" on="0"/>
        <pt x="109" y="272" on="0"/>
      </contour>
    </TTGlyph>
    <TTGlyph name="degree" xMin="116" yMin="423" xMax="399" yMax="707">
      <contour>
        <pt x="243" y="423" on="1"/>
        <pt x="188" y="423" on="0"/>
        <pt x="116" y="496" on="0"/>
        <pt x="116" y="551" on="1"/>
        <pt x="116" y="582" on="0"/>
        <pt x="141" y="639" on="0"/>
        <pt x="183" y="682" on="0"/>
        <pt x="240" y="707" on="0"/>
        <pt x="272" y="707" on="1"/>
        <pt x="326" y="707" on="0"/>
        <pt x="399" y="634" on="0"/>
        <pt x="399" y="579" on="1"/>
        <pt x="399" y="548" on="0"/>
        <pt x="374" y="491" on="0"/>
        <pt x="331" y="448" on="0"/>
        <pt x="274" y="423" on="0"/>
      </contour>
      <contour>
        <pt x="246" y="471" on="1"/>
        <pt x="287" y="471" on="0"/>
        <pt x="348" y="532" on="0"/>
        <pt x="348" y="574" on="1"/>
        <pt x="348" y="611" on="0"/>
        <pt x="303" y="659" on="0"/>
        <pt x="269" y="659" on="1"/>
        <pt x="227" y="659" on="0"/>
        <pt x="167" y="598" on="0"/>
        <pt x="167" y="556" on="1"/>
        <pt x="167" y="520" on="0"/>
        <pt x="212" y="471" on="0"/>
      </contour>
    </TTGlyph>
    <TTGlyph name="dieresis" xMin="214" yMin="602" xMax="484" yMax="700">
      <contour>
        <pt x="257" y="602" on="1"/>
        <pt x="238" y="602" on="0"/>
        <pt x="214" y="627" on="0"/>
        <pt x="214" y="646" on="1"/>
        <pt x="214" y="667" on="0"/>
        <pt x="246" y="700" on="0"/>
        <pt x="268" y="700" on="1"/>
        <pt x="286" y="700" on="0"/>
        <pt x="311" y="674" on="0"/>
        <pt x="311" y="656" on="1"/>
        <pt x="311" y="635" on="0"/>
        <pt x="278" y="602" on="0"/>
      </contour>
      <contour>
        <pt x="430" y="602" on="1"/>
        <pt x="412" y="602" on="0"/>
        <pt x="387" y="627" on="0"/>
        <pt x="387" y="646" on="1"/>
        <pt x="387" y="667" on="0"/>
        <pt x="420" y="700" on="0"/>
        <pt x="442" y="700" on="1"/>
        <pt x="460" y="700" on="0"/>
        <pt x="484" y="674" on="0"/>
        <pt x="484" y="656" on="1"/>
        <pt x="484" y="635" on="0"/>
        <pt x="452" y="602" on="0"/>
      </contour>
    </TTGlyph>
    <TTGlyph name="divide" xMin="70" yMin="119" xMax="490" yMax="596">
      <contour>
        <pt x="313" y="494" on="1"/>
        <pt x="294" y="494" on="0"/>
        <pt x="269" y="520" on="0"/>
        <pt x="269" y="539" on="1"/>
        <pt x="269" y="561" on="0"/>
        <pt x="303" y="596" on="0"/>
        <pt x="325" y="596" on="1"/>
        <pt x="344" y="596" on="0"/>
        <pt x="370" y="569" on="0"/>
        <pt x="370" y="550" on="1"/>
        <pt x="370" y="528" on="0"/>
        <pt x="335" y="494" on="0"/>
      </contour>
      <contour>
        <pt x="70" y="327" on="1"/>
        <pt x="83" y="389" on="1"/>
        <pt x="490" y="389" on="1"/>
        <pt x="477" y="327" on="1"/>
      </contour>
      <contour>
        <pt x="234" y="119" on="1"/>
        <pt x="215" y="119" on="0"/>
        <pt x="189" y="146" on="0"/>
        <pt x="189" y="165" on="1"/>
        <pt x="189" y="187" on="0"/>
        <pt x="223" y="221" on="0"/>
        <pt x="245" y="221" on="1"/>
        <pt x="264" y="221" on="0"/>
        <pt x="290" y="195" on="0"/>
        <pt x="290" y="176" on="1"/>
        <pt x="290" y="154" on="0"/>
        <pt x="256" y="119" on="0"/>
      </contour>
    </TTGlyph>
    <TTGlyph name="dollar" xMin="-2" yMin="-75" xMax="581" yMax="759">
      <contour>
        <pt x="180" y="-75" on="1"/>
        <pt x="201" y="24" on="1"/>
        <pt x="141" y="34" on="0"/>
        <pt x="38" y="99" on="0"/>
        <pt x="-2" y="150" on="1"/>
        <pt x="50" y="195" on="1"/>
        <pt x="83" y="151" on="0"/>
        <pt x="166" y="95" on="0"/>
        <pt x="214" y="85" on="1"/>
        <pt x="266" y="328" on="1"/>
        <pt x="230" y="338" on="1"/>
        <pt x="158" y="359" on="0"/>
        <pt x="86" y="435" on="0"/>
        <pt x="86" y="493" on="1"/>
        <pt x="86" y="580" on="0"/>
        <pt x="217" y="684" on="0"/>
        <pt x="325" y="684" on="1"/>
        <pt x="341" y="684" on="1"/>
        <pt x="357" y="759" on="1"/>
        <pt x="406" y="759" on="1"/>
        <pt x="389" y="678" on="1"/>
        <pt x="441" y="669" on="0"/>
        <pt x="540" y="620" on="0"/>
        <pt x="581" y="583" on="1"/>
        <pt x="533" y="532" on="1"/>
        <pt x="497" y="566" on="0"/>
        <pt x="417" y="608" on="0"/>
        <pt x="376" y="617" on="1"/>
        <pt x="327" y="385" on="1"/>
        <pt x="347" y="379" on="1"/>
        <pt x="439" y="354" on="0"/>
        <pt x="517" y="280" on="0"/>
        <pt x="517" y="221" on="1"/>
        <pt x="517" y="130" on="0"/>
        <pt x="377" y="18" on="0"/>
        <pt x="264" y="18" on="1"/>
        <pt x="249" y="18" on="1"/>
        <pt x="229" y="-75" on="1"/>
      </contour>
      <contour>
        <pt x="258" y="400" on="1"/>
        <pt x="279" y="394" on="1"/>
        <pt x="328" y="623" on="1"/>
        <pt x="318" y="623" on="1"/>
        <pt x="245" y="623" on="0"/>
        <pt x="154" y="556" on="0"/>
        <pt x="154" y="502" on="1"/>
        <pt x="154" y="464" on="0"/>
        <pt x="203" y="416" on="0"/>
      </contour>
      <contour>
        <pt x="322" y="316" on="1"/>
        <pt x="313" y="319" on="1"/>
        <pt x="262" y="79" on="1"/>
        <pt x="267" y="79" on="1"/>
        <pt x="346" y="79" on="0"/>
        <pt x="448" y="154" on="0"/>
        <pt x="448" y="212" on="1"/>
        <pt x="448" y="249" on="0"/>
        <pt x="393" y="295" on="0"/>
      </contour>
    </TTGlyph>
    <TTGlyph name="dotaccent" xMin="169" yMin="602" xMax="266" yMax="700">
      <contour>
        <pt x="212" y="602" on="1"/>
        <pt x="193" y="602" on="0"/>
        <pt x="169" y="627" on="0"/>
        <pt x="169" y="646" on="1"/>
        <pt x="169" y="667" on="0"/>
        <pt x="201" y="700" on="0"/>
        <pt x="223" y="700" on="1"/>
        <pt x="241" y="700" on="0"/>
        <pt x="266" y="674" on="0"/>
        <pt x="266" y="656" on="1"/>
        <pt x="266" y="635" on="0"/>
        <pt x="233" y="602" on="0"/>
      </contour>
    </TTGlyph>
    <TTGlyph name="dotlessi" xMin="10" yMin="0" xMax="188" yMax="501">
      <contour>
        <pt x="188" y="501" on="1"/>
        <pt x="82" y="0" on="1"/>
        <pt x="10" y="0" on="1"/>
        <pt x="116" y="501" on="1"/>
      </contour>
    </TTGlyph>
    <TTGlyph name="dotlessj" xMin="-132" yMin="-207" xMax="188" yMax="501">
      <contour>
        <pt x="-132" y="-199" on="1"/>
        <pt x="-119" y="-137" on="1"/>
        <pt x="-111" y="-140" on="0"/>
        <pt x="-90" y="-143" on="0"/>
        <pt x="-77" y="-143" on="1"/>
        <pt x="-47" y="-143" on="0"/>
        <pt x="-14" y="-112" on="0"/>
        <pt x="-7" y="-78" on="1"/>
        <pt x="116" y="501" on="1"/>
        <pt x="188" y="501" on="1"/>
        <pt x="63" y="-87" on="1"/>
        <pt x="51" y="-144" on="0"/>
        <pt x="-24" y="-207" on="0"/>
        <pt x="-80" y="-207" on="1"/>
        <pt x="-92" y="-207" on="0"/>
        <pt x="-121" y="-203" on="0"/>
      </contour>
    </TTGlyph>
    <TTGlyph name="e" xMin="38" yMin="-9" xMax="514" yMax="509">
      <contour>
        <pt x="456" y="45" on="1"/>
        <pt x="415" y="17" on="0"/>
        <pt x="329" y="-9" on="0"/>
        <pt x="280" y="-9" on="1"/>
        <pt x="227" y="-9" on="0"/>
        <pt x="138" y="26" on="0"/>
        <pt x="74" y="88" on="0"/>
        <pt x="38" y="175" on="0"/>
        <pt x="38" y="226" on="1"/>
        <pt x="38" y="284" on="0"/>
        <pt x="80" y="387" on="0"/>
        <pt x="151" y="464" on="0"/>
        <pt x="247" y="509" on="0"/>
        <pt x="301" y="509" on="1"/>
        <pt x="347" y="509" on="0"/>
        <pt x="425" y="473" on="0"/>
        <pt x="482" y="410" on="0"/>
        <pt x="514" y="323" on="0"/>
        <pt x="514" y="273" on="1"/>
        <pt x="514" y="263" on="0"/>
        <pt x="513" y="244" on="0"/>
        <pt x="512" y="228" on="1"/>
        <pt x="110" y="228" on="1"/>
        <pt x="111" y="153" on="0"/>
        <pt x="210" y="55" on="0"/>
        <pt x="283" y="55" on="1"/>
        <pt x="320" y="55" on="0"/>
        <pt x="390" y="77" on="0"/>
        <pt x="418" y="96" on="1"/>
      </contour>
      <contour>
        <pt x="294" y="444" on="1"/>
        <pt x="231" y="444" on="0"/>
        <pt x="133" y="354" on="0"/>
        <pt x="117" y="287" on="1"/>
        <pt x="445" y="287" on="1"/>
        <pt x="441" y="355" on="0"/>
        <pt x="356" y="444" on="0"/>
      </contour>
    </TTGlyph>
    <TTGlyph name="eacute" xMin="38" yMin="-9" xMax="514" yMax="716">
      <component glyphName="e" x="0" y="0" flags="0x204"/>
      <component glyphName="acute" x="34" y="0" flags="0x4"/>
    </TTGlyph>
    <TTGlyph name="ebreve" xMin="38" yMin="-9" xMax="514" yMax="729">
      <component glyphName="e" x="0" y="0" flags="0x204"/>
      <component glyphName="breve" x="-4" y="0" flags="0x4"/>
    </TTGlyph>
    <TTGlyph name="ecaron" xMin="38" yMin="-9" xMax="514" yMax="718">
      <component glyphName="e" x="0" y="0" flags="0x204"/>
      <component glyphName="caron" x="-3" y="0" flags="0x4"/>
    </TTGlyph>
    <TTGlyph name="ecircumflex" xMin="38" yMin="-9" xMax="514" yMax="717">
      <component glyphName="e" x="0" y="0" flags="0x204"/>
      <component glyphName="circumflex" x="-3" y="0" flags="0x4"/>
    </TTGlyph>
    <TTGlyph name="edieresis" xMin="38" yMin="-9" xMax="514" yMax="700">
      <component glyphName="e" x="0" y="0" flags="0x204"/>
      <component glyphName="dieresis" x="-13" y="0" flags="0x4"/>
    </TTGlyph>
    <TTGlyph name="edotaccent" xMin="38" yMin="-9" xMax="514" yMax="700">
      <component glyphName="e" x="0" y="0" flags="0x204"/>
      <component glyphName="dotaccent" x="120" y="0" flags="0x4"/>
    </TTGlyph>
    <TTGlyph name="egrave" xMin="38" yMin="-9" xMax="514" yMax="716">
      <component glyphName="e" x="0" y="0" flags="0x204"/>
      <component glyphName="grave" x="-1" y="0" flags="0x4"/>
    </TTGlyph>
    <TTGlyph name="eight" xMin="30" yMin="-9" xMax="589" yMax="710">
      <contour>
        <pt x="274" y="-9" on="1"/>
        <pt x="221" y="-9" on="0"/>
        <pt x="131" y="18" on="0"/>
        <pt x="66" y="66" on="0"/>
        <pt x="30" y="133" on="0"/>
        <pt x="30" y="173" on="1"/>
        <pt x="30" y="245" on="0"/>
        <pt x="136" y="358" on="0"/>
        <pt x="217" y="376" on="1"/>
        <pt x="176" y="398" on="0"/>
        <pt x="128" y="470" on="0"/>
        <pt x="128" y="513" on="1"/>
        <pt x="128" y="554" on="0"/>
        <pt x="167" y="626" on="0"/>
        <pt x="234" y="679" on="0"/>
        <pt x="324" y="710" on="0"/>
        <pt x="375" y="710" on="1"/>
        <pt x="468" y="710" on="0"/>
        <pt x="589" y="614" on="0"/>
        <pt x="589" y="541" on="1"/>
        <pt x="589" y="481" on="0"/>
        <pt x="502" y="380" on="0"/>
        <pt x="434" y="361" on="1"/>
        <pt x="487" y="339" on="0"/>
        <pt x="548" y="256" on="0"/>
        <pt x="548" y="206" on="1"/>
        <pt x="548" y="161" on="0"/>
        <pt x="505" y="82" on="0"/>
        <pt x="432" y="25" on="0"/>
        <pt x="331" y="-9" on="0"/>
      </contour>
      <contour>
        <pt x="347" y="399" on="1"/>
        <pt x="382" y="399" on="0"/>
        <pt x="445" y="421" on="0"/>
        <pt x="491" y="458" on="0"/>
        <pt x="518" y="508" on="0"/>
        <pt x="518" y="536" on="1"/>
        <pt x="518" y="585" on="0"/>
        <pt x="433" y="652" on="0"/>
        <pt x="370" y="652" on="1"/>
        <pt x="335" y="652" on="0"/>
        <pt x="272" y="630" on="0"/>
        <pt x="226" y="593" on="0"/>
        <pt x="199" y="543" on="0"/>
        <pt x="199" y="515" on="1"/>
        <pt x="199" y="465" on="0"/>
        <pt x="284" y="399" on="0"/>
      </contour>
      <contour>
        <pt x="278" y="51" on="1"/>
        <pt x="318" y="51" on="0"/>
        <pt x="391" y="76" on="0"/>
        <pt x="445" y="118" on="0"/>
        <pt x="477" y="174" on="0"/>
        <pt x="477" y="206" on="1"/>
        <pt x="477" y="261" on="0"/>
        <pt x="375" y="338" on="0"/>
        <pt x="300" y="338" on="1"/>
        <pt x="260" y="338" on="0"/>
        <pt x="188" y="313" on="0"/>
        <pt x="134" y="272" on="0"/>
        <pt x="103" y="215" on="0"/>
        <pt x="103" y="184" on="1"/>
        <pt x="103" y="127" on="0"/>
        <pt x="203" y="51" on="0"/>
      </contour>
    </TTGlyph>
    <TTGlyph name="ellipsis" xMin="2" yMin="-6" xMax="490" yMax="96">
      <component glyphName="period" x="0" y="0" flags="0x4"/>
      <component glyphName="period" x="193" y="0" flags="0x4"/>
      <component glyphName="period" x="387" y="0" flags="0x4"/>
    </TTGlyph>
    <TTGlyph name="emacron" xMin="38" yMin="-9" xMax="514" yMax="674">
      <component glyphName="e" x="0" y="0" flags="0x204"/>
      <component glyphName="macron" x="-4" y="0" flags="0x4"/>
    </TTGlyph>
    <TTGlyph name="emdash" xMin="47" yMin="248" xMax="648" yMax="314">
      <contour>
        <pt x="61" y="314" on="1"/>
        <pt x="648" y="314" on="1"/>
        <pt x="634" y="248" on="1"/>
        <pt x="47" y="248" on="1"/>
      </contour>
    </TTGlyph>
    <TTGlyph name="emdash.cap" xMin="64" yMin="313" xMax="665" yMax="379">
      <component glyphName="emdash" x="17" y="65" flags="0x4"/>
    </TTGlyph>
    <TTGlyph name="endash" xMin="47" yMin="248" xMax="501" yMax="314">
      <contour>
        <pt x="61" y="314" on="1"/>
        <pt x="501" y="314" on="1"/>
        <pt x="487" y="248" on="1"/>
        <pt x="47" y="248" on="1"/>
      </contour>
    </TTGlyph>
    <TTGlyph name="endash.cap" xMin="62" yMin="313" xMax="516" yMax="379">
      <component glyphName="endash" x="15" y="65" flags="0x4"/>
    </TTGlyph>
    <TTGlyph name="eng" xMin="10" yMin="-207" xMax="496" yMax="510">
      <contour>
        <pt x="10" y="0" on="1"/>
        <pt x="116" y="501" on="1"/>
        <pt x="188" y="501" on="1"/>
        <pt x="177" y="451" on="1"/>
        <pt x="210" y="480" on="0"/>
        <pt x="286" y="510" on="0"/>
        <pt x="329" y="510" on="1"/>
        <pt x="418" y="510" on="0"/>
        <pt x="510" y="393" on="0"/>
        <pt x="491" y="305" on="1"/>
        <pt x="407" y="-87" on="1"/>
        <pt x="395" y="-144" on="0"/>
        <pt x="321" y="-207" on="0"/>
        <pt x="265" y="-207" on="1"/>
        <pt x="252" y="-207" on="0"/>
        <pt x="222" y="-203" on="0"/>
        <pt x="212" y="-199" on="1"/>
        <pt x="226" y="-137" on="1"/>
        <pt x="234" y="-140" on="0"/>
        <pt x="254" y="-143" on="0"/>
        <pt x="268" y="-143" on="1"/>
        <pt x="297" y="-143" on="0"/>
        <pt x="331" y="-112" on="0"/>
        <pt x="338" y="-78" on="1"/>
        <pt x="416" y="294" on="1"/>
        <pt x="431" y="362" on="0"/>
        <pt x="369" y="446" on="0"/>
        <pt x="305" y="446" on="1"/>
        <pt x="264" y="446" on="0"/>
        <pt x="190" y="410" on="0"/>
        <pt x="162" y="376" on="1"/>
        <pt x="82" y="0" on="1"/>
      </contour>
    </TTGlyph>
    <TTGlyph name="eogonek" xMin="38" yMin="-222" xMax="514" yMax="509">
      <contour>
        <pt x="359" y="0" on="1"/>
        <pt x="292" y="-35" on="0"/>
        <pt x="228" y="-100" on="0"/>
        <pt x="228" y="-134" on="1"/>
        <pt x="228" y="-153" on="0"/>
        <pt x="256" y="-177" on="0"/>
        <pt x="278" y="-177" on="1"/>
        <pt x="289" y="-177" on="0"/>
        <pt x="314" y="-171" on="0"/>
        <pt x="324" y="-166" on="1"/>
        <pt x="329" y="-206" on="1"/>
        <pt x="313" y="-213" on="0"/>
        <pt x="280" y="-222" on="0"/>
        <pt x="263" y="-222" on="1"/>
        <pt x="223" y="-222" on="0"/>
        <pt x="175" y="-182" on="0"/>
        <pt x="175" y="-149" on="1"/>
        <pt x="175" y="-112" on="0"/>
        <pt x="229" y="-42" on="0"/>
        <pt x="282" y="-9" on="1"/>
        <pt x="280" y="-9" on="1"/>
        <pt x="227" y="-9" on="0"/>
        <pt x="138" y="26" on="0"/>
        <pt x="74" y="88" on="0"/>
        <pt x="38" y="175" on="0"/>
        <pt x="38" y="226" on="1"/>
        <pt x="38" y="284" on="0"/>
        <pt x="80" y="387" on="0"/>
        <pt x="151" y="464" on="0"/>
        <pt x="247" y="509" on="0"/>
        <pt x="301" y="509" on="1"/>
        <pt x="347" y="509" on="0"/>
        <pt x="425" y="473" on="0"/>
        <pt x="482" y="410" on="0"/>
        <pt x="514" y="323" on="0"/>
        <pt x="514" y="273" on="1"/>
        <pt x="514" y="263" on="0"/>
        <pt x="513" y="244" on="0"/>
        <pt x="512" y="228" on="1"/>
        <pt x="110" y="228" on="1"/>
        <pt x="111" y="153" on="0"/>
        <pt x="210" y="55" on="0"/>
        <pt x="283" y="55" on="1"/>
        <pt x="320" y="55" on="0"/>
        <pt x="390" y="77" on="0"/>
        <pt x="418" y="96" on="1"/>
        <pt x="456" y="45" on="1"/>
        <pt x="432" y="29" on="0"/>
        <pt x="384" y="7" on="0"/>
      </contour>
      <contour>
        <pt x="294" y="444" on="1"/>
        <pt x="231" y="444" on="0"/>
        <pt x="133" y="354" on="0"/>
        <pt x="117" y="287" on="1"/>
        <pt x="445" y="287" on="1"/>
        <pt x="441" y="355" on="0"/>
        <pt x="356" y="444" on="0"/>
      </contour>
    </TTGlyph>
    <TTGlyph name="equal" xMin="53" yMin="244" xMax="508" yMax="469">
      <component glyphName="minus" x="-17" y="-83" flags="0x4"/>
      <component glyphName="minus" x="18" y="80" flags="0x4"/>
    </TTGlyph>
    <TTGlyph name="eth" xMin="39" yMin="-9" xMax="597" yMax="734">
      <contour>
        <pt x="317" y="530" on="1"/>
        <pt x="297" y="579" on="1"/>
        <pt x="392" y="624" on="1"/>
        <pt x="373" y="642" on="0"/>
        <pt x="326" y="672" on="0"/>
        <pt x="299" y="683" on="1"/>
        <pt x="339" y="734" on="1"/>
        <pt x="373" y="718" on="0"/>
        <pt x="432" y="678" on="0"/>
        <pt x="456" y="654" on="1"/>
        <pt x="576" y="711" on="1"/>
        <pt x="597" y="663" on="1"/>
        <pt x="490" y="612" on="1"/>
        <pt x="522" y="566" on="0"/>
        <pt x="555" y="454" on="0"/>
        <pt x="555" y="388" on="1"/>
        <pt x="555" y="301" on="0"/>
        <pt x="512" y="154" on="0"/>
        <pt x="434" y="50" on="0"/>
        <pt x="325" y="-9" on="0"/>
        <pt x="260" y="-9" on="1"/>
        <pt x="164" y="-9" on="0"/>
        <pt x="39" y="117" on="0"/>
        <pt x="39" y="216" on="1"/>
        <pt x="39" y="272" on="0"/>
        <pt x="81" y="373" on="0"/>
        <pt x="153" y="447" on="0"/>
        <pt x="251" y="491" on="0"/>
        <pt x="305" y="491" on="1"/>
        <pt x="369" y="491" on="0"/>
        <pt x="465" y="428" on="0"/>
        <pt x="487" y="375" on="1"/>
        <pt x="488" y="435" on="0"/>
        <pt x="458" y="541" on="0"/>
        <pt x="428" y="583" on="1"/>
      </contour>
      <contour>
        <pt x="265" y="58" on="1"/>
        <pt x="304" y="58" on="0"/>
        <pt x="376" y="92" on="0"/>
        <pt x="430" y="149" on="0"/>
        <pt x="462" y="225" on="0"/>
        <pt x="462" y="267" on="1"/>
        <pt x="462" y="336" on="0"/>
        <pt x="372" y="428" on="0"/>
        <pt x="305" y="428" on="1"/>
        <pt x="265" y="428" on="0"/>
        <pt x="194" y="394" on="0"/>
        <pt x="140" y="337" on="0"/>
        <pt x="108" y="260" on="0"/>
        <pt x="108" y="218" on="1"/>
        <pt x="108" y="148" on="0"/>
        <pt x="196" y="58" on="0"/>
      </contour>
    </TTGlyph>
    <TTGlyph name="exclam" xMin="2" yMin="-6" xMax="234" yMax="717">
      <contour>
        <pt x="56" y="194" on="1"/>
        <pt x="158" y="717" on="1"/>
        <pt x="234" y="717" on="1"/>
        <pt x="114" y="194" on="1"/>
      </contour>
      <contour>
        <pt x="47" y="-6" on="1"/>
        <pt x="28" y="-6" on="0"/>
        <pt x="2" y="20" on="0"/>
        <pt x="2" y="39" on="1"/>
        <pt x="2" y="61" on="0"/>
        <pt x="37" y="96" on="0"/>
        <pt x="59" y="96" on="1"/>
        <pt x="78" y="96" on="0"/>
        <pt x="103" y="69" on="0"/>
        <pt x="103" y="50" on="1"/>
        <pt x="103" y="28" on="0"/>
        <pt x="69" y="-6" on="0"/>
      </contour>
    </TTGlyph>
    <TTGlyph name="exclamdown" xMin="1" yMin="-13" xMax="233" yMax="710">
      <contour>
        <pt x="179" y="510" on="1"/>
        <pt x="77" y="-13" on="1"/>
        <pt x="1" y="-13" on="1"/>
        <pt x="121" y="510" on="1"/>
      </contour>
      <contour>
        <pt x="188" y="710" on="1"/>
        <pt x="207" y="710" on="0"/>
        <pt x="233" y="684" on="0"/>
        <pt x="233" y="665" on="1"/>
        <pt x="233" y="643" on="0"/>
        <pt x="198" y="608" on="0"/>
        <pt x="176" y="608" on="1"/>
        <pt x="157" y="608" on="0"/>
        <pt x="132" y="635" on="0"/>
        <pt x="132" y="654" on="1"/>
        <pt x="132" y="676" on="0"/>
        <pt x="166" y="710" on="0"/>
      </contour>
    </TTGlyph>
    <TTGlyph name="f" xMin="56" yMin="0" xMax="451" yMax="748">
      <contour>
        <pt x="69" y="501" on="1"/>
        <pt x="185" y="501" on="1"/>
        <pt x="207" y="606" on="1"/>
        <pt x="222" y="675" on="0"/>
        <pt x="309" y="748" on="0"/>
        <pt x="375" y="748" on="1"/>
        <pt x="396" y="748" on="0"/>
        <pt x="435" y="742" on="0"/>
        <pt x="451" y="735" on="1"/>
        <pt x="438" y="669" on="1"/>
        <pt x="422" y="676" on="0"/>
        <pt x="391" y="682" on="0"/>
        <pt x="371" y="682" on="1"/>
        <pt x="331" y="682" on="0"/>
        <pt x="287" y="643" on="0"/>
        <pt x="278" y="600" on="1"/>
        <pt x="257" y="501" on="1"/>
        <pt x="402" y="501" on="1"/>
        <pt x="388" y="438" on="1"/>
        <pt x="243" y="438" on="1"/>
        <pt x="150" y="0" on="1"/>
        <pt x="78" y="0" on="1"/>
        <pt x="171" y="438" on="1"/>
        <pt x="56" y="438" on="1"/>
      </contour>
    </TTGlyph>
    <TTGlyph name="fi" xMin="56" yMin="0" xMax="598" yMax="748">
      <component glyphName="f" x="0" y="0" flags="0x4"/>
      <component glyphName="i" x="366" y="0" flags="0x4"/>
    </TTGlyph>
    <TTGlyph name="five" xMin="-7" yMin="-9" xMax="577" yMax="700">
      <contour>
        <pt x="86" y="368" on="1"/>
        <pt x="171" y="700" on="1"/>
        <pt x="577" y="700" on="1"/>
        <pt x="563" y="636" on="1"/>
        <pt x="219" y="636" on="1"/>
        <pt x="163" y="415" on="1"/>
        <pt x="193" y="423" on="0"/>
        <pt x="253" y="432" on="0"/>
        <pt x="283" y="432" on="1"/>
        <pt x="387" y="432" on="0"/>
        <pt x="513" y="326" on="0"/>
        <pt x="513" y="238" on="1"/>
        <pt x="513" y="187" on="0"/>
        <pt x="470" y="97" on="0"/>
        <pt x="396" y="30" on="0"/>
        <pt x="296" y="-9" on="0"/>
        <pt x="240" y="-9" on="1"/>
        <pt x="164" y="-9" on="0"/>
        <pt x="35" y="49" on="0"/>
        <pt x="-7" y="102" on="1"/>
        <pt x="45" y="149" on="1"/>
        <pt x="85" y="100" on="0"/>
        <pt x="182" y="54" on="0"/>
        <pt x="243" y="54" on="1"/>
        <pt x="327" y="54" on="0"/>
        <pt x="439" y="155" on="0"/>
        <pt x="439" y="230" on="1"/>
        <pt x="439" y="296" on="0"/>
        <pt x="344" y="372" on="0"/>
        <pt x="262" y="372" on="1"/>
        <pt x="229" y="372" on="0"/>
        <pt x="160" y="361" on="0"/>
        <pt x="124" y="350" on="1"/>
      </contour>
    </TTGlyph>
    <TTGlyph name="fl" xMin="56" yMin="0" xMax="600" yMax="748">
      <component glyphName="f" x="0" y="0" flags="0x4"/>
      <component glyphName="l" x="366" y="0" flags="0x4"/>
    </TTGlyph>
    <TTGlyph name="four" xMin="12" yMin="0" xMax="583" yMax="700">
      <contour>
        <pt x="583" y="700" on="1"/>
        <pt x="487" y="250" on="1"/>
        <pt x="570" y="250" on="1"/>
        <pt x="557" y="187" on="1"/>
        <pt x="474" y="187" on="1"/>
        <pt x="434" y="0" on="1"/>
        <pt x="363" y="0" on="1"/>
        <pt x="403" y="187" on="1"/>
        <pt x="12" y="187" on="1"/>
        <pt x="24" y="245" on="1"/>
        <pt x="506" y="700" on="1"/>
      </contour>
      <contour>
        <pt x="116" y="250" on="1"/>
        <pt x="416" y="250" on="1"/>
        <pt x="491" y="605" on="1"/>
      </contour>
    </TTGlyph>
    <TTGlyph name="fraction" xMin="3" yMin="0" xMax="598" yMax="700">
      <contour>
        <pt x="61" y="0" on="1"/>
        <pt x="3" y="0" on="1"/>
        <pt x="537" y="700" on="1"/>
        <pt x="598" y="700" on="1"/>
      </contour>
    </TTGlyph>
    <TTGlyph name="g" xMin="32" yMin="-210" xMax="568" yMax="508">
      <contour>
        <pt x="259" y="-7" on="1"/>
        <pt x="212" y="-7" on="0"/>
        <pt x="131" y="28" on="0"/>
        <pt x="72" y="88" on="0"/>
        <pt x="39" y="173" on="0"/>
        <pt x="39" y="222" on="1"/>
        <pt x="39" y="281" on="0"/>
        <pt x="82" y="386" on="0"/>
        <pt x="157" y="463" on="0"/>
        <pt x="257" y="508" on="0"/>
        <pt x="314" y="508" on="1"/>
        <pt x="364" y="508" on="0"/>
        <pt x="452" y="471" on="0"/>
        <pt x="482" y="437" on="1"/>
        <pt x="496" y="501" on="1"/>
        <pt x="568" y="501" on="1"/>
        <pt x="457" y="-33" on="1"/>
        <pt x="439" y="-119" on="0"/>
        <pt x="329" y="-210" on="0"/>
        <pt x="245" y="-210" on="1"/>
        <pt x="191" y="-210" on="0"/>
        <pt x="75" y="-171" on="0"/>
        <pt x="32" y="-137" on="1"/>
        <pt x="70" y="-82" on="1"/>
        <pt x="113" y="-113" on="0"/>
        <pt x="199" y="-145" on="0"/>
        <pt x="242" y="-145" on="1"/>
        <pt x="299" y="-145" on="0"/>
        <pt x="372" y="-85" on="0"/>
        <pt x="385" y="-26" on="1"/>
        <pt x="398" y="36" on="1"/>
        <pt x="367" y="15" on="0"/>
        <pt x="297" y="-7" on="0"/>
      </contour>
      <contour>
        <pt x="110" y="228" on="1"/>
        <pt x="110" y="153" on="0"/>
        <pt x="203" y="57" on="0"/>
        <pt x="275" y="57" on="1"/>
        <pt x="314" y="57" on="0"/>
        <pt x="386" y="86" on="0"/>
        <pt x="414" y="112" on="1"/>
        <pt x="467" y="363" on="1"/>
        <pt x="447" y="400" on="0"/>
        <pt x="365" y="443" on="0"/>
        <pt x="316" y="443" on="1"/>
        <pt x="273" y="443" on="0"/>
        <pt x="198" y="409" on="0"/>
        <pt x="142" y="351" on="0"/>
        <pt x="110" y="272" on="0"/>
      </contour>
    </TTGlyph>
    <TTGlyph name="g.alt" xMin="-45" yMin="-211" xMax="574" yMax="522">
      <contour>
        <pt x="64" y="303" on="1"/>
        <pt x="64" y="344" on="0"/>
        <pt x="100" y="418" on="0"/>
        <pt x="162" y="474" on="0"/>
        <pt x="244" y="507" on="0"/>
        <pt x="289" y="507" on="1"/>
        <pt x="329" y="507" on="0"/>
        <pt x="400" y="480" on="0"/>
        <pt x="425" y="456" on="1"/>
        <pt x="445" y="486" on="0"/>
        <pt x="509" y="522" on="0"/>
        <pt x="543" y="522" on="1"/>
        <pt x="552" y="522" on="0"/>
        <pt x="567" y="520" on="0"/>
        <pt x="574" y="518" on="1"/>
        <pt x="563" y="454" on="1"/>
        <pt x="553" y="457" on="0"/>
        <pt x="533" y="459" on="0"/>
        <pt x="524" y="459" on="1"/>
        <pt x="502" y="459" on="0"/>
        <pt x="461" y="444" on="0"/>
        <pt x="446" y="431" on="1"/>
        <pt x="460" y="412" on="0"/>
        <pt x="475" y="365" on="0"/>
        <pt x="475" y="340" on="1"/>
        <pt x="475" y="298" on="0"/>
        <pt x="440" y="224" on="0"/>
        <pt x="380" y="170" on="0"/>
        <pt x="299" y="138" on="0"/>
        <pt x="253" y="138" on="1"/>
        <pt x="233" y="138" on="0"/>
        <pt x="195" y="144" on="0"/>
        <pt x="179" y="150" on="1"/>
        <pt x="151" y="144" on="0"/>
        <pt x="118" y="115" on="0"/>
        <pt x="118" y="96" on="1"/>
        <pt x="118" y="80" on="0"/>
        <pt x="144" y="61" on="0"/>
        <pt x="170" y="58" on="1"/>
        <pt x="348" y="35" on="1"/>
        <pt x="401" y="28" on="0"/>
        <pt x="456" y="-20" on="0"/>
        <pt x="456" y="-58" on="1"/>
        <pt x="456" y="-127" on="0"/>
        <pt x="317" y="-211" on="0"/>
        <pt x="205" y="-211" on="1"/>
        <pt x="91" y="-211" on="0"/>
        <pt x="-45" y="-147" on="0"/>
        <pt x="-45" y="-93" on="1"/>
        <pt x="-45" y="-55" on="0"/>
        <pt x="17" y="6" on="0"/>
        <pt x="74" y="22" on="1"/>
        <pt x="61" y="32" on="0"/>
        <pt x="47" y="61" on="0"/>
        <pt x="47" y="77" on="1"/>
        <pt x="47" y="109" on="0"/>
        <pt x="95" y="161" on="0"/>
        <pt x="133" y="173" on="1"/>
        <pt x="102" y="195" on="0"/>
        <pt x="64" y="263" on="0"/>
      </contour>
      <contour>
        <pt x="407" y="333" on="1"/>
        <pt x="407" y="381" on="0"/>
        <pt x="336" y="447" on="0"/>
        <pt x="285" y="447" on="1"/>
        <pt x="225" y="447" on="0"/>
        <pt x="134" y="364" on="0"/>
        <pt x="134" y="307" on="1"/>
        <pt x="134" y="260" on="0"/>
        <pt x="205" y="197" on="0"/>
        <pt x="258" y="197" on="1"/>
        <pt x="287" y="197" on="0"/>
        <pt x="342" y="219" on="0"/>
        <pt x="383" y="256" on="0"/>
        <pt x="407" y="306" on="0"/>
      </contour>
      <contour>
        <pt x="26" y="-81" on="1"/>
        <pt x="26" y="-116" on="0"/>
        <pt x="125" y="-157" on="0"/>
        <pt x="210" y="-157" on="1"/>
        <pt x="286" y="-157" on="0"/>
        <pt x="381" y="-112" on="0"/>
        <pt x="381" y="-76" on="1"/>
        <pt x="381" y="-58" on="0"/>
        <pt x="349" y="-33" on="0"/>
        <pt x="321" y="-29" on="1"/>
        <pt x="155" y="-8" on="1"/>
        <pt x="148" y="-7" on="0"/>
        <pt x="135" y="-4" on="0"/>
        <pt x="128" y="-3" on="1"/>
        <pt x="80" y="-12" on="0"/>
        <pt x="26" y="-54" on="0"/>
      </contour>
    </TTGlyph>
    <TTGlyph name="gbreve" xMin="32" yMin="-210" xMax="568" yMax="729">
      <component glyphName="g" x="0" y="0" flags="0x204"/>
      <component glyphName="breve" x="15" y="0" flags="0x4"/>
    </TTGlyph>
    <TTGlyph name="gbreve.alt" xMin="-45" yMin="-211" xMax="574" yMax="729">
      <component glyphName="g.alt" x="0" y="0" flags="0x204"/>
      <component glyphName="breve" x="-9" y="0" flags="0x4"/>
    </TTGlyph>
    <TTGlyph name="gcircumflex" xMin="32" yMin="-210" xMax="568" yMax="717">
      <component glyphName="g" x="0" y="0" flags="0x204"/>
      <component glyphName="circumflex" x="15" y="0" flags="0x4"/>
    </TTGlyph>
    <TTGlyph name="gcircumflex.alt" xMin="-45" yMin="-211" xMax="574" yMax="717">
      <component glyphName="g.alt" x="0" y="0" flags="0x204"/>
      <component glyphName="circumflex" x="-8" y="0" flags="0x4"/>
    </TTGlyph>
    <TTGlyph name="gcommaaccent" xMin="32" yMin="-210" xMax="568" yMax="787">
      <contour>
        <pt x="381" y="608" on="1"/>
        <pt x="306" y="608" on="1"/>
        <pt x="404" y="787" on="1"/>
        <pt x="459" y="787" on="1"/>
      </contour>
      <contour>
        <pt x="259" y="-7" on="1"/>
        <pt x="212" y="-7" on="0"/>
        <pt x="131" y="28" on="0"/>
        <pt x="72" y="88" on="0"/>
        <pt x="39" y="173" on="0"/>
        <pt x="39" y="222" on="1"/>
        <pt x="39" y="281" on="0"/>
        <pt x="82" y="386" on="0"/>
        <pt x="157" y="463" on="0"/>
        <pt x="257" y="508" on="0"/>
        <pt x="314" y="508" on="1"/>
        <pt x="364" y="508" on="0"/>
        <pt x="452" y="471" on="0"/>
        <pt x="482" y="437" on="1"/>
        <pt x="496" y="501" on="1"/>
        <pt x="568" y="501" on="1"/>
        <pt x="457" y="-33" on="1"/>
        <pt x="439" y="-119" on="0"/>
        <pt x="329" y="-210" on="0"/>
        <pt x="245" y="-210" on="1"/>
        <pt x="191" y="-210" on="0"/>
        <pt x="75" y="-171" on="0"/>
        <pt x="32" y="-137" on="1"/>
        <pt x="70" y="-82" on="1"/>
        <pt x="113" y="-113" on="0"/>
        <pt x="199" y="-145" on="0"/>
        <pt x="242" y="-145" on="1"/>
        <pt x="299" y="-145" on="0"/>
        <pt x="372" y="-85" on="0"/>
        <pt x="385" y="-26" on="1"/>
        <pt x="398" y="36" on="1"/>
        <pt x="367" y="15" on="0"/>
        <pt x="297" y="-7" on="0"/>
      </contour>
      <contour>
        <pt x="110" y="228" on="1"/>
        <pt x="110" y="153" on="0"/>
        <pt x="203" y="57" on="0"/>
        <pt x="275" y="57" on="1"/>
        <pt x="314" y="57" on="0"/>
        <pt x="386" y="86" on="0"/>
        <pt x="414" y="112" on="1"/>
        <pt x="467" y="363" on="1"/>
        <pt x="447" y="400" on="0"/>
        <pt x="365" y="443" on="0"/>
        <pt x="316" y="443" on="1"/>
        <pt x="273" y="443" on="0"/>
        <pt x="198" y="409" on="0"/>
        <pt x="142" y="351" on="0"/>
        <pt x="110" y="272" on="0"/>
      </contour>
    </TTGlyph>
    <TTGlyph name="gcommaaccent.alt" xMin="-45" yMin="-211" xMax="574" yMax="776">
      <contour>
        <pt x="345" y="597" on="1"/>
        <pt x="270" y="597" on="1"/>
        <pt x="368" y="776" on="1"/>
        <pt x="423" y="776" on="1"/>
      </contour>
      <contour>
        <pt x="64" y="303" on="1"/>
        <pt x="64" y="344" on="0"/>
        <pt x="100" y="418" on="0"/>
        <pt x="162" y="474" on="0"/>
        <pt x="244" y="507" on="0"/>
        <pt x="289" y="507" on="1"/>
        <pt x="329" y="507" on="0"/>
        <pt x="400" y="480" on="0"/>
        <pt x="425" y="456" on="1"/>
        <pt x="445" y="486" on="0"/>
        <pt x="509" y="522" on="0"/>
        <pt x="543" y="522" on="1"/>
        <pt x="552" y="522" on="0"/>
        <pt x="567" y="520" on="0"/>
        <pt x="574" y="518" on="1"/>
        <pt x="563" y="454" on="1"/>
        <pt x="553" y="457" on="0"/>
        <pt x="533" y="459" on="0"/>
        <pt x="524" y="459" on="1"/>
        <pt x="502" y="459" on="0"/>
        <pt x="461" y="444" on="0"/>
        <pt x="446" y="431" on="1"/>
        <pt x="460" y="412" on="0"/>
        <pt x="475" y="365" on="0"/>
        <pt x="475" y="340" on="1"/>
        <pt x="475" y="298" on="0"/>
        <pt x="440" y="224" on="0"/>
        <pt x="380" y="170" on="0"/>
        <pt x="299" y="138" on="0"/>
        <pt x="253" y="138" on="1"/>
        <pt x="233" y="138" on="0"/>
        <pt x="195" y="144" on="0"/>
        <pt x="179" y="150" on="1"/>
        <pt x="151" y="144" on="0"/>
        <pt x="118" y="115" on="0"/>
        <pt x="118" y="96" on="1"/>
        <pt x="118" y="80" on="0"/>
        <pt x="144" y="61" on="0"/>
        <pt x="170" y="58" on="1"/>
        <pt x="348" y="35" on="1"/>
        <pt x="401" y="28" on="0"/>
        <pt x="456" y="-20" on="0"/>
        <pt x="456" y="-58" on="1"/>
        <pt x="456" y="-127" on="0"/>
        <pt x="317" y="-211" on="0"/>
        <pt x="205" y="-211" on="1"/>
        <pt x="91" y="-211" on="0"/>
        <pt x="-45" y="-147" on="0"/>
        <pt x="-45" y="-93" on="1"/>
        <pt x="-45" y="-55" on="0"/>
        <pt x="17" y="6" on="0"/>
        <pt x="74" y="22" on="1"/>
        <pt x="61" y="32" on="0"/>
        <pt x="47" y="61" on="0"/>
        <pt x="47" y="77" on="1"/>
        <pt x="47" y="109" on="0"/>
        <pt x="95" y="161" on="0"/>
        <pt x="133" y="173" on="1"/>
        <pt x="102" y="195" on="0"/>
        <pt x="64" y="263" on="0"/>
      </contour>
      <contour>
        <pt x="407" y="333" on="1"/>
        <pt x="407" y="381" on="0"/>
        <pt x="336" y="447" on="0"/>
        <pt x="285" y="447" on="1"/>
        <pt x="225" y="447" on="0"/>
        <pt x="134" y="364" on="0"/>
        <pt x="134" y="307" on="1"/>
        <pt x="134" y="260" on="0"/>
        <pt x="205" y="197" on="0"/>
        <pt x="258" y="197" on="1"/>
        <pt x="287" y="197" on="0"/>
        <pt x="342" y="219" on="0"/>
        <pt x="383" y="256" on="0"/>
        <pt x="407" y="306" on="0"/>
      </contour>
      <contour>
        <pt x="26" y="-81" on="1"/>
        <pt x="26" y="-116" on="0"/>
        <pt x="125" y="-157" on="0"/>
        <pt x="210" y="-157" on="1"/>
        <pt x="286" y="-157" on="0"/>
        <pt x="381" y="-112" on="0"/>
        <pt x="381" y="-76" on="1"/>
        <pt x="381" y="-58" on="0"/>
        <pt x="349" y="-33" on="0"/>
        <pt x="321" y="-29" on="1"/>
        <pt x="155" y="-8" on="1"/>
        <pt x="148" y="-7" on="0"/>
        <pt x="135" y="-4" on="0"/>
        <pt x="128" y="-3" on="1"/>
        <pt x="80" y="-12" on="0"/>
        <pt x="26" y="-54" on="0"/>
      </contour>
    </TTGlyph>
    <TTGlyph name="gdotaccent" xMin="32" yMin="-210" xMax="568" yMax="700">
      <component glyphName="g" x="0" y="0" flags="0x204"/>
      <component glyphName="dotaccent" x="138" y="0" flags="0x4"/>
    </TTGlyph>
    <TTGlyph name="gdotaccent.alt" xMin="-45" yMin="-211" xMax="574" yMax="700">
      <component glyphName="g.alt" x="0" y="0" flags="0x204"/>
      <component glyphName="dotaccent" x="115" y="0" flags="0x4"/>
    </TTGlyph>
    <TTGlyph name="germandbls" xMin="10" yMin="-12" xMax="591" yMax="738">
      <contour>
        <pt x="351" y="352" on="1"/>
        <pt x="351" y="335" on="0"/>
        <pt x="374" y="308" on="0"/>
        <pt x="401" y="296" on="1"/>
        <pt x="471" y="264" on="1"/>
        <pt x="525" y="239" on="0"/>
        <pt x="571" y="182" on="0"/>
        <pt x="571" y="142" on="1"/>
        <pt x="571" y="76" on="0"/>
        <pt x="471" y="-12" on="0"/>
        <pt x="396" y="-12" on="1"/>
        <pt x="334" y="-12" on="0"/>
        <pt x="233" y="40" on="0"/>
        <pt x="197" y="90" on="1"/>
        <pt x="248" y="129" on="1"/>
        <pt x="277" y="86" on="0"/>
        <pt x="351" y="45" on="0"/>
        <pt x="397" y="45" on="1"/>
        <pt x="446" y="45" on="0"/>
        <pt x="504" y="96" on="0"/>
        <pt x="504" y="136" on="1"/>
        <pt x="504" y="161" on="0"/>
        <pt x="470" y="197" on="0"/>
        <pt x="432" y="213" on="1"/>
        <pt x="361" y="245" on="1"/>
        <pt x="319" y="263" on="0"/>
        <pt x="281" y="310" on="0"/>
        <pt x="281" y="342" on="1"/>
        <pt x="281" y="395" on="0"/>
        <pt x="356" y="447" on="0"/>
        <pt x="445" y="484" on="0"/>
        <pt x="520" y="529" on="0"/>
        <pt x="520" y="576" on="1"/>
        <pt x="520" y="618" on="0"/>
        <pt x="440" y="676" on="0"/>
        <pt x="383" y="676" on="1"/>
        <pt x="305" y="676" on="0"/>
        <pt x="207" y="588" on="0"/>
        <pt x="188" y="504" on="1"/>
        <pt x="80" y="0" on="1"/>
        <pt x="10" y="0" on="1"/>
        <pt x="118" y="509" on="1"/>
        <pt x="140" y="619" on="0"/>
        <pt x="280" y="738" on="0"/>
        <pt x="384" y="738" on="1"/>
        <pt x="474" y="738" on="0"/>
        <pt x="591" y="652" on="0"/>
        <pt x="591" y="585" on="1"/>
        <pt x="591" y="520" on="0"/>
        <pt x="516" y="456" on="0"/>
        <pt x="426" y="418" on="0"/>
        <pt x="351" y="386" on="0"/>
      </contour>
    </TTGlyph>
    <TTGlyph name="grave" xMin="183" yMin="600" xMax="367" yMax="716">
      <contour>
        <pt x="276" y="716" on="1"/>
        <pt x="367" y="600" on="1"/>
        <pt x="304" y="600" on="1"/>
        <pt x="183" y="716" on="1"/>
      </contour>
    </TTGlyph>
    <TTGlyph name="greater" xMin="67" yMin="103" xMax="460" yMax="594">
      <contour>
        <pt x="201" y="594" on="1"/>
        <pt x="460" y="348" on="1"/>
        <pt x="97" y="103" on="1"/>
        <pt x="67" y="152" on="1"/>
        <pt x="369" y="352" on="1"/>
        <pt x="155" y="549" on="1"/>
      </contour>
    </TTGlyph>
    <TTGlyph name="guillemotleft" xMin="29" yMin="0" xMax="601" yMax="501">
      <component glyphName="guilsinglleft" x="0" y="0" flags="0x4"/>
      <component glyphName="guilsinglleft" x="208" y="0" flags="0x4"/>
    </TTGlyph>
    <TTGlyph name="guillemotright" xMin="-4" yMin="0" xMax="569" yMax="501">
      <contour>
        <pt x="205" y="0" on="1"/>
        <pt x="486" y="253" on="1"/>
        <pt x="315" y="501" on="1"/>
        <pt x="392" y="501" on="1"/>
        <pt x="569" y="250" on="1"/>
        <pt x="285" y="0" on="1"/>
      </contour>
      <contour>
        <pt x="-4" y="0" on="1"/>
        <pt x="277" y="253" on="1"/>
        <pt x="106" y="501" on="1"/>
        <pt x="183" y="501" on="1"/>
        <pt x="360" y="250" on="1"/>
        <pt x="76" y="0" on="1"/>
      </contour>
    </TTGlyph>
    <TTGlyph name="guilsinglleft" xMin="29" yMin="0" xMax="393" yMax="501">
      <contour>
        <pt x="393" y="501" on="1"/>
        <pt x="112" y="248" on="1"/>
        <pt x="283" y="0" on="1"/>
        <pt x="206" y="0" on="1"/>
        <pt x="29" y="251" on="1"/>
        <pt x="313" y="501" on="1"/>
      </contour>
    </TTGlyph>
    <TTGlyph name="guilsinglright" xMin="-4" yMin="0" xMax="360" yMax="501">
      <contour>
        <pt x="-4" y="0" on="1"/>
        <pt x="277" y="253" on="1"/>
        <pt x="106" y="501" on="1"/>
        <pt x="183" y="501" on="1"/>
        <pt x="360" y="250" on="1"/>
        <pt x="76" y="0" on="1"/>
      </contour>
    </TTGlyph>
    <TTGlyph name="h" xMin="10" yMin="0" xMax="495" yMax="717">
      <contour>
        <pt x="10" y="0" on="1"/>
        <pt x="159" y="700" on="1"/>
        <pt x="234" y="717" on="1"/>
        <pt x="178" y="451" on="1"/>
        <pt x="210" y="480" on="0"/>
        <pt x="286" y="510" on="0"/>
        <pt x="329" y="510" on="1"/>
        <pt x="417" y="510" on="0"/>
        <pt x="509" y="392" on="0"/>
        <pt x="490" y="302" on="1"/>
        <pt x="426" y="0" on="1"/>
        <pt x="354" y="0" on="1"/>
        <pt x="416" y="293" on="1"/>
        <pt x="431" y="362" on="0"/>
        <pt x="370" y="446" on="0"/>
        <pt x="305" y="446" on="1"/>
        <pt x="264" y="446" on="0"/>
        <pt x="190" y="410" on="0"/>
        <pt x="162" y="376" on="1"/>
        <pt x="82" y="0" on="1"/>
      </contour>
    </TTGlyph>
    <TTGlyph name="hbar" xMin="10" yMin="0" xMax="495" yMax="717">
      <contour>
        <pt x="10" y="0" on="1"/>
        <pt x="135" y="586" on="1"/>
        <pt x="70" y="586" on="1"/>
        <pt x="82" y="644" on="1"/>
        <pt x="147" y="644" on="1"/>
        <pt x="159" y="700" on="1"/>
        <pt x="234" y="717" on="1"/>
        <pt x="219" y="644" on="1"/>
        <pt x="376" y="644" on="1"/>
        <pt x="364" y="586" on="1"/>
        <pt x="206" y="586" on="1"/>
        <pt x="178" y="451" on="1"/>
        <pt x="210" y="480" on="0"/>
        <pt x="286" y="510" on="0"/>
        <pt x="329" y="510" on="1"/>
        <pt x="417" y="510" on="0"/>
        <pt x="509" y="392" on="0"/>
        <pt x="490" y="302" on="1"/>
        <pt x="426" y="0" on="1"/>
        <pt x="354" y="0" on="1"/>
        <pt x="416" y="293" on="1"/>
        <pt x="431" y="362" on="0"/>
        <pt x="370" y="446" on="0"/>
        <pt x="305" y="446" on="1"/>
        <pt x="264" y="446" on="0"/>
        <pt x="190" y="410" on="0"/>
        <pt x="162" y="376" on="1"/>
        <pt x="82" y="0" on="1"/>
      </contour>
    </TTGlyph>
    <TTGlyph name="hcircumflex" xMin="10" yMin="0" xMax="495" yMax="916">
      <contour>
        <pt x="297" y="795" on="1"/>
        <pt x="233" y="875" on="1"/>
        <pt x="134" y="795" on="1"/>
        <pt x="72" y="795" on="1"/>
        <pt x="200" y="916" on="1"/>
        <pt x="279" y="916" on="1"/>
        <pt x="355" y="795" on="1"/>
      </contour>
      <contour>
        <pt x="10" y="0" on="1"/>
        <pt x="159" y="700" on="1"/>
        <pt x="230" y="700" on="1"/>
        <pt x="177" y="451" on="1"/>
        <pt x="210" y="480" on="0"/>
        <pt x="286" y="510" on="0"/>
        <pt x="329" y="510" on="1"/>
        <pt x="417" y="510" on="0"/>
        <pt x="509" y="392" on="0"/>
        <pt x="490" y="302" on="1"/>
        <pt x="426" y="0" on="1"/>
        <pt x="354" y="0" on="1"/>
        <pt x="416" y="293" on="1"/>
        <pt x="431" y="362" on="0"/>
        <pt x="370" y="446" on="0"/>
        <pt x="305" y="446" on="1"/>
        <pt x="264" y="446" on="0"/>
        <pt x="190" y="410" on="0"/>
        <pt x="161" y="376" on="1"/>
        <pt x="82" y="0" on="1"/>
      </contour>
    </TTGlyph>
    <TTGlyph name="hungarumlaut" xMin="197" yMin="603" xMax="571" yMax="716">
      <contour>
        <pt x="323" y="716" on="1"/>
        <pt x="409" y="716" on="1"/>
        <pt x="261" y="603" on="1"/>
        <pt x="197" y="603" on="1"/>
      </contour>
      <contour>
        <pt x="485" y="716" on="1"/>
        <pt x="571" y="716" on="1"/>
        <pt x="421" y="603" on="1"/>
        <pt x="359" y="603" on="1"/>
      </contour>
    </TTGlyph>
    <TTGlyph name="hyphen" xMin="47" yMin="248" xMax="403" yMax="314">
      <contour>
        <pt x="61" y="314" on="1"/>
        <pt x="403" y="314" on="1"/>
        <pt x="389" y="248" on="1"/>
        <pt x="47" y="248" on="1"/>
      </contour>
    </TTGlyph>
    <TTGlyph name="hyphen.cap" xMin="61" yMin="313" xMax="417" yMax="379">
      <component glyphName="hyphen" x="14" y="65" flags="0x4"/>
    </TTGlyph>
    <TTGlyph name="i" xMin="10" yMin="0" xMax="232" yMax="697">
      <contour>
        <pt x="177" y="597" on="1"/>
        <pt x="158" y="597" on="0"/>
        <pt x="133" y="623" on="0"/>
        <pt x="133" y="642" on="1"/>
        <pt x="133" y="664" on="0"/>
        <pt x="166" y="697" on="0"/>
        <pt x="188" y="697" on="1"/>
        <pt x="207" y="697" on="0"/>
        <pt x="232" y="672" on="0"/>
        <pt x="232" y="653" on="1"/>
        <pt x="232" y="631" on="0"/>
        <pt x="199" y="597" on="0"/>
      </contour>
      <contour>
        <pt x="188" y="501" on="1"/>
        <pt x="82" y="0" on="1"/>
        <pt x="10" y="0" on="1"/>
        <pt x="116" y="501" on="1"/>
      </contour>
    </TTGlyph>
    <TTGlyph name="iacute" xMin="10" yMin="0" xMax="332" yMax="716">
      <component glyphName="dotlessi" x="0" y="0" flags="0x204"/>
      <component glyphName="acute" x="-118" y="0" flags="0x4"/>
    </TTGlyph>
    <TTGlyph name="ibreve" xMin="10" yMin="0" xMax="345" yMax="729">
      <component glyphName="dotlessi" x="0" y="0" flags="0x204"/>
      <component glyphName="breve" x="-156" y="0" flags="0x4"/>
    </TTGlyph>
    <TTGlyph name="icircumflex" xMin="10" yMin="0" xMax="313" yMax="717">
      <component glyphName="dotlessi" x="0" y="0" flags="0x204"/>
      <component glyphName="circumflex" x="-156" y="0" flags="0x4"/>
    </TTGlyph>
    <TTGlyph name="idieresis" xMin="10" yMin="0" xMax="319" yMax="700">
      <component glyphName="dotlessi" x="0" y="0" flags="0x204"/>
      <component glyphName="dieresis" x="-165" y="0" flags="0x4"/>
    </TTGlyph>
    <TTGlyph name="idotaccent" xMin="10" yMin="0" xMax="232" yMax="697">
      <component glyphName="i" x="0" y="0" flags="0x204"/>
    </TTGlyph>
    <TTGlyph name="igrave" xMin="10" yMin="0" xMax="214" yMax="716">
      <component glyphName="dotlessi" x="0" y="0" flags="0x204"/>
      <component glyphName="grave" x="-153" y="0" flags="0x4"/>
    </TTGlyph>
    <TTGlyph name="ij" xMin="10" yMin="-207" xMax="430" yMax="697">
      <component glyphName="i" x="0" y="0" flags="0x4"/>
      <component glyphName="j" x="198" y="0" flags="0x4"/>
    </TTGlyph>
    <TTGlyph name="imacron" xMin="10" yMin="0" xMax="331" yMax="674">
      <component glyphName="dotlessi" x="0" y="0" flags="0x204"/>
      <component glyphName="macron" x="-156" y="0" flags="0x4"/>
    </TTGlyph>
    <TTGlyph name="iogonek" xMin="-102" yMin="-222" xMax="232" yMax="697">
      <contour>
        <pt x="177" y="597" on="1"/>
        <pt x="158" y="597" on="0"/>
        <pt x="133" y="623" on="0"/>
        <pt x="133" y="642" on="1"/>
        <pt x="133" y="664" on="0"/>
        <pt x="166" y="697" on="0"/>
        <pt x="188" y="697" on="1"/>
        <pt x="207" y="697" on="0"/>
        <pt x="232" y="672" on="0"/>
        <pt x="232" y="653" on="1"/>
        <pt x="232" y="631" on="0"/>
        <pt x="199" y="597" on="0"/>
      </contour>
      <contour>
        <pt x="82" y="0" on="1"/>
        <pt x="15" y="-35" on="0"/>
        <pt x="-49" y="-100" on="0"/>
        <pt x="-49" y="-134" on="1"/>
        <pt x="-49" y="-153" on="0"/>
        <pt x="-21" y="-177" on="0"/>
        <pt x="1" y="-177" on="1"/>
        <pt x="12" y="-177" on="0"/>
        <pt x="37" y="-171" on="0"/>
        <pt x="47" y="-166" on="1"/>
        <pt x="52" y="-206" on="1"/>
        <pt x="36" y="-213" on="0"/>
        <pt x="3" y="-222" on="0"/>
        <pt x="-14" y="-222" on="1"/>
        <pt x="-54" y="-222" on="0"/>
        <pt x="-102" y="-182" on="0"/>
        <pt x="-102" y="-149" on="1"/>
        <pt x="-102" y="-109" on="0"/>
        <pt x="-40" y="-35" on="0"/>
        <pt x="20" y="0" on="1"/>
        <pt x="10" y="0" on="1"/>
        <pt x="116" y="501" on="1"/>
        <pt x="188" y="501" on="1"/>
      </contour>
    </TTGlyph>
    <TTGlyph name="itilde" xMin="10" yMin="0" xMax="357" yMax="705">
      <component glyphName="dotlessi" x="0" y="0" flags="0x204"/>
      <component glyphName="tilde" x="-151" y="0" flags="0x4"/>
    </TTGlyph>
    <TTGlyph name="j" xMin="-132" yMin="-207" xMax="232" yMax="697">
      <contour>
        <pt x="177" y="597" on="1"/>
        <pt x="158" y="597" on="0"/>
        <pt x="133" y="623" on="0"/>
        <pt x="133" y="642" on="1"/>
        <pt x="133" y="664" on="0"/>
        <pt x="166" y="697" on="0"/>
        <pt x="188" y="697" on="1"/>
        <pt x="207" y="697" on="0"/>
        <pt x="232" y="672" on="0"/>
        <pt x="232" y="653" on="1"/>
        <pt x="232" y="631" on="0"/>
        <pt x="199" y="597" on="0"/>
      </contour>
      <contour>
        <pt x="-80" y="-207" on="1"/>
        <pt x="-92" y="-207" on="0"/>
        <pt x="-121" y="-203" on="0"/>
        <pt x="-132" y="-199" on="1"/>
        <pt x="-119" y="-137" on="1"/>
        <pt x="-111" y="-140" on="0"/>
        <pt x="-90" y="-143" on="0"/>
        <pt x="-77" y="-143" on="1"/>
        <pt x="-47" y="-143" on="0"/>
        <pt x="-14" y="-112" on="0"/>
        <pt x="-7" y="-78" on="1"/>
        <pt x="116" y="501" on="1"/>
        <pt x="188" y="501" on="1"/>
        <pt x="63" y="-87" on="1"/>
        <pt x="51" y="-144" on="0"/>
        <pt x="-24" y="-207" on="0"/>
      </contour>
    </TTGlyph>
    <TTGlyph name="jcircumflex" xMin="-132" yMin="-207" xMax="314" yMax="717">
      <component glyphName="dotlessj" x="0" y="0" flags="0x204"/>
      <component glyphName="circumflex" x="-155" y="0" flags="0x4"/>
    </TTGlyph>
    <TTGlyph name="k" xMin="10" yMin="0" xMax="539" yMax="717">
      <contour>
        <pt x="10" y="0" on="1"/>
        <pt x="159" y="700" on="1"/>
        <pt x="234" y="717" on="1"/>
        <pt x="142" y="282" on="1"/>
        <pt x="440" y="501" on="1"/>
        <pt x="539" y="501" on="1"/>
        <pt x="207" y="257" on="1"/>
        <pt x="438" y="0" on="1"/>
        <pt x="348" y="0" on="1"/>
        <pt x="133" y="241" on="1"/>
        <pt x="82" y="0" on="1"/>
      </contour>
    </TTGlyph>
    <TTGlyph name="kcommaaccent" xMin="10" yMin="-264" xMax="539" yMax="717">
      <component glyphName="k" x="0" y="0" flags="0x204"/>
      <component glyphName="commaaccent" x="145" y="0" flags="0x4"/>
    </TTGlyph>
    <TTGlyph name="kgreenlandic" xMin="10" yMin="0" xMax="543" yMax="501">
      <contour>
        <pt x="10" y="0" on="1"/>
        <pt x="116" y="501" on="1"/>
        <pt x="188" y="501" on="1"/>
        <pt x="141" y="277" on="1"/>
        <pt x="445" y="501" on="1"/>
        <pt x="543" y="501" on="1"/>
        <pt x="207" y="254" on="1"/>
        <pt x="430" y="0" on="1"/>
        <pt x="339" y="0" on="1"/>
        <pt x="132" y="237" on="1"/>
        <pt x="82" y="0" on="1"/>
      </contour>
    </TTGlyph>
    <TTGlyph name="l" xMin="10" yMin="0" xMax="234" yMax="717">
      <contour>
        <pt x="234" y="717" on="1"/>
        <pt x="82" y="0" on="1"/>
        <pt x="10" y="0" on="1"/>
        <pt x="159" y="700" on="1"/>
      </contour>
    </TTGlyph>
    <TTGlyph name="lacute" xMin="10" yMin="0" xMax="374" yMax="915">
      <contour>
        <pt x="279" y="915" on="1"/>
        <pt x="374" y="915" on="1"/>
        <pt x="229" y="799" on="1"/>
        <pt x="162" y="799" on="1"/>
      </contour>
      <contour>
        <pt x="10" y="0" on="1"/>
        <pt x="159" y="700" on="1"/>
        <pt x="230" y="700" on="1"/>
        <pt x="82" y="0" on="1"/>
      </contour>
    </TTGlyph>
    <TTGlyph name="lcaron" xMin="10" yMin="0" xMax="396" yMax="717">
      <component glyphName="l" x="0" y="0" flags="0x4"/>
      <component glyphName="caronSlovak" x="26" y="0" flags="0x4"/>
    </TTGlyph>
    <TTGlyph name="lcommaaccent" xMin="-84" yMin="-264" xMax="234" yMax="717">
      <component glyphName="l" x="0" y="0" flags="0x204"/>
      <component glyphName="commaaccent" x="-8" y="0" flags="0x4"/>
    </TTGlyph>
    <TTGlyph name="ldot" xMin="10" yMin="0" xMax="318" yMax="717">
      <component glyphName="l" x="0" y="0" flags="0x4"/>
      <component glyphName="dotaccent" x="52" y="-299" flags="0x4"/>
    </TTGlyph>
    <TTGlyph name="less" xMin="90" yMin="103" xMax="483" yMax="594">
      <contour>
        <pt x="349" y="103" on="1"/>
        <pt x="90" y="349" on="1"/>
        <pt x="453" y="594" on="1"/>
        <pt x="483" y="545" on="1"/>
        <pt x="181" y="345" on="1"/>
        <pt x="395" y="148" on="1"/>
      </contour>
    </TTGlyph>
    <TTGlyph name="lslash" xMin="13" yMin="0" xMax="288" yMax="717">
      <contour>
        <pt x="29" y="328" on="1"/>
        <pt x="113" y="387" on="1"/>
        <pt x="180" y="700" on="1"/>
        <pt x="255" y="717" on="1"/>
        <pt x="198" y="447" on="1"/>
        <pt x="288" y="510" on="1"/>
        <pt x="272" y="435" on="1"/>
        <pt x="182" y="372" on="1"/>
        <pt x="103" y="0" on="1"/>
        <pt x="31" y="0" on="1"/>
        <pt x="98" y="313" on="1"/>
        <pt x="13" y="254" on="1"/>
      </contour>
    </TTGlyph>
    <TTGlyph name="m" xMin="10" yMin="0" xMax="800" yMax="510">
      <contour>
        <pt x="10" y="0" on="1"/>
        <pt x="116" y="501" on="1"/>
        <pt x="188" y="501" on="1"/>
        <pt x="177" y="449" on="1"/>
        <pt x="209" y="480" on="0"/>
        <pt x="283" y="510" on="0"/>
        <pt x="323" y="510" on="1"/>
        <pt x="376" y="510" on="0"/>
        <pt x="450" y="458" on="0"/>
        <pt x="466" y="415" on="1"/>
        <pt x="507" y="463" on="0"/>
        <pt x="597" y="510" on="0"/>
        <pt x="647" y="510" on="1"/>
        <pt x="729" y="510" on="0"/>
        <pt x="813" y="396" on="0"/>
        <pt x="794" y="309" on="1"/>
        <pt x="729" y="0" on="1"/>
        <pt x="657" y="0" on="1"/>
        <pt x="722" y="304" on="1"/>
        <pt x="735" y="366" on="0"/>
        <pt x="680" y="446" on="0"/>
        <pt x="623" y="446" on="1"/>
        <pt x="583" y="446" on="0"/>
        <pt x="510" y="404" on="0"/>
        <pt x="476" y="361" on="1"/>
        <pt x="476" y="349" on="0"/>
        <pt x="474" y="322" on="0"/>
        <pt x="471" y="309" on="1"/>
        <pt x="405" y="0" on="1"/>
        <pt x="333" y="0" on="1"/>
        <pt x="396" y="297" on="1"/>
        <pt x="411" y="363" on="0"/>
        <pt x="356" y="446" on="0"/>
        <pt x="298" y="446" on="1"/>
        <pt x="261" y="446" on="0"/>
        <pt x="191" y="409" on="0"/>
        <pt x="161" y="374" on="1"/>
        <pt x="82" y="0" on="1"/>
      </contour>
    </TTGlyph>
    <TTGlyph name="macron" xMin="197" yMin="621" xMax="487" yMax="674">
      <contour>
        <pt x="487" y="674" on="1"/>
        <pt x="475" y="621" on="1"/>
        <pt x="197" y="621" on="1"/>
        <pt x="209" y="674" on="1"/>
      </contour>
    </TTGlyph>
    <TTGlyph name="minus" xMin="70" yMin="327" xMax="490" yMax="389">
      <contour>
        <pt x="490" y="389" on="1"/>
        <pt x="477" y="327" on="1"/>
        <pt x="70" y="327" on="1"/>
        <pt x="83" y="389" on="1"/>
      </contour>
    </TTGlyph>
    <TTGlyph name="multiply" xMin="65" yMin="161" xMax="514" yMax="556">
      <contour>
        <pt x="98" y="161" on="1"/>
        <pt x="65" y="203" on="1"/>
        <pt x="251" y="361" on="1"/>
        <pt x="132" y="519" on="1"/>
        <pt x="178" y="556" on="1"/>
        <pt x="296" y="399" on="1"/>
        <pt x="481" y="556" on="1"/>
        <pt x="514" y="514" on="1"/>
        <pt x="328" y="356" on="1"/>
        <pt x="447" y="199" on="1"/>
        <pt x="401" y="162" on="1"/>
        <pt x="283" y="318" on="1"/>
      </contour>
    </TTGlyph>
    <TTGlyph name="n" xMin="10" yMin="0" xMax="495" yMax="510">
      <contour>
        <pt x="10" y="0" on="1"/>
        <pt x="116" y="501" on="1"/>
        <pt x="188" y="501" on="1"/>
        <pt x="177" y="451" on="1"/>
        <pt x="210" y="480" on="0"/>
        <pt x="286" y="510" on="0"/>
        <pt x="329" y="510" on="1"/>
        <pt x="417" y="510" on="0"/>
        <pt x="509" y="392" on="0"/>
        <pt x="490" y="302" on="1"/>
        <pt x="426" y="0" on="1"/>
        <pt x="354" y="0" on="1"/>
        <pt x="416" y="293" on="1"/>
        <pt x="431" y="362" on="0"/>
        <pt x="370" y="446" on="0"/>
        <pt x="305" y="446" on="1"/>
        <pt x="264" y="446" on="0"/>
        <pt x="190" y="410" on="0"/>
        <pt x="162" y="376" on="1"/>
        <pt x="82" y="0" on="1"/>
      </contour>
    </TTGlyph>
    <TTGlyph name="nacute" xMin="10" yMin="0" xMax="502" yMax="716">
      <component glyphName="n" x="0" y="0" flags="0x204"/>
      <component glyphName="acute" x="52" y="0" flags="0x4"/>
    </TTGlyph>
    <TTGlyph name="ncaron" xMin="10" yMin="0" xMax="507" yMax="718">
      <component glyphName="n" x="0" y="0" flags="0x204"/>
      <component glyphName="caron" x="15" y="0" flags="0x4"/>
    </TTGlyph>
    <TTGlyph name="ncommaaccent" xMin="10" yMin="-264" xMax="495" yMax="510">
      <component glyphName="n" x="0" y="0" flags="0x204"/>
      <component glyphName="commaaccent" x="165" y="0" flags="0x4"/>
    </TTGlyph>
    <TTGlyph name="nine" xMin="27" yMin="-7" xMax="588" yMax="707">
      <contour>
        <pt x="349" y="707" on="1"/>
        <pt x="456" y="707" on="0"/>
        <pt x="588" y="560" on="0"/>
        <pt x="588" y="440" on="1"/>
        <pt x="588" y="349" on="0"/>
        <pt x="527" y="186" on="0"/>
        <pt x="423" y="64" on="0"/>
        <pt x="283" y="-7" on="0"/>
        <pt x="205" y="-7" on="1"/>
        <pt x="157" y="-7" on="0"/>
        <pt x="65" y="23" on="0"/>
        <pt x="27" y="51" on="1"/>
        <pt x="75" y="106" on="1"/>
        <pt x="106" y="84" on="0"/>
        <pt x="179" y="59" on="0"/>
        <pt x="214" y="59" on="1"/>
        <pt x="267" y="59" on="0"/>
        <pt x="362" y="102" on="0"/>
        <pt x="438" y="177" on="0"/>
        <pt x="493" y="282" on="0"/>
        <pt x="506" y="344" on="1"/>
        <pt x="462" y="306" on="0"/>
        <pt x="353" y="262" on="0"/>
        <pt x="300" y="262" on="1"/>
        <pt x="207" y="262" on="0"/>
        <pt x="86" y="374" on="0"/>
        <pt x="86" y="459" on="1"/>
        <pt x="86" y="509" on="0"/>
        <pt x="128" y="599" on="0"/>
        <pt x="200" y="667" on="0"/>
        <pt x="296" y="707" on="0"/>
      </contour>
      <contour>
        <pt x="516" y="445" on="1"/>
        <pt x="516" y="535" on="0"/>
        <pt x="423" y="643" on="0"/>
        <pt x="345" y="643" on="1"/>
        <pt x="307" y="643" on="0"/>
        <pt x="239" y="615" on="0"/>
        <pt x="188" y="567" on="0"/>
        <pt x="158" y="503" on="0"/>
        <pt x="158" y="468" on="1"/>
        <pt x="158" y="405" on="0"/>
        <pt x="249" y="322" on="0"/>
        <pt x="318" y="322" on="1"/>
        <pt x="369" y="322" on="0"/>
        <pt x="471" y="367" on="0"/>
        <pt x="515" y="408" on="1"/>
        <pt x="516" y="417" on="0"/>
        <pt x="516" y="436" on="0"/>
      </contour>
    </TTGlyph>
    <TTGlyph name="notequal" xMin="28" yMin="133" xMax="531" yMax="579">
      <contour>
        <pt x="28" y="133" on="1"/>
        <pt x="136" y="244" on="1"/>
        <pt x="52" y="244" on="1"/>
        <pt x="65" y="306" on="1"/>
        <pt x="196" y="306" on="1"/>
        <pt x="293" y="407" on="1"/>
        <pt x="87" y="407" on="1"/>
        <pt x="101" y="468" on="1"/>
        <pt x="352" y="468" on="1"/>
        <pt x="460" y="579" on="1"/>
        <pt x="531" y="579" on="1"/>
        <pt x="423" y="468" on="1"/>
        <pt x="508" y="468" on="1"/>
        <pt x="494" y="407" on="1"/>
        <pt x="364" y="407" on="1"/>
        <pt x="267" y="306" on="1"/>
        <pt x="473" y="306" on="1"/>
        <pt x="459" y="244" on="1"/>
        <pt x="207" y="244" on="1"/>
        <pt x="99" y="133" on="1"/>
      </contour>
    </TTGlyph>
    <TTGlyph name="ntilde" xMin="10" yMin="0" xMax="527" yMax="705">
      <component glyphName="n" x="0" y="0" flags="0x204"/>
      <component glyphName="tilde" x="19" y="0" flags="0x4"/>
    </TTGlyph>
    <TTGlyph name="numbersign" xMin="5" yMin="0" xMax="680" yMax="700">
      <contour>
        <pt x="6" y="0" on="1"/>
        <pt x="114" y="219" on="1"/>
        <pt x="5" y="219" on="1"/>
        <pt x="17" y="277" on="1"/>
        <pt x="142" y="277" on="1"/>
        <pt x="214" y="423" on="1"/>
        <pt x="97" y="423" on="1"/>
        <pt x="110" y="481" on="1"/>
        <pt x="242" y="481" on="1"/>
        <pt x="350" y="700" on="1"/>
        <pt x="419" y="700" on="1"/>
        <pt x="311" y="481" on="1"/>
        <pt x="503" y="481" on="1"/>
        <pt x="611" y="700" on="1"/>
        <pt x="679" y="700" on="1"/>
        <pt x="571" y="481" on="1"/>
        <pt x="680" y="481" on="1"/>
        <pt x="668" y="423" on="1"/>
        <pt x="543" y="423" on="1"/>
        <pt x="471" y="277" on="1"/>
        <pt x="587" y="277" on="1"/>
        <pt x="575" y="219" on="1"/>
        <pt x="443" y="219" on="1"/>
        <pt x="335" y="0" on="1"/>
        <pt x="267" y="0" on="1"/>
        <pt x="375" y="219" on="1"/>
        <pt x="182" y="219" on="1"/>
        <pt x="74" y="0" on="1"/>
      </contour>
      <contour>
        <pt x="211" y="277" on="1"/>
        <pt x="403" y="277" on="1"/>
        <pt x="475" y="423" on="1"/>
        <pt x="282" y="423" on="1"/>
      </contour>
    </TTGlyph>
    <TTGlyph name="o" xMin="39" yMin="-10" xMax="541" yMax="511">
      <contour>
        <pt x="39" y="229" on="1"/>
        <pt x="39" y="286" on="0"/>
        <pt x="82" y="389" on="0"/>
        <pt x="155" y="466" on="0"/>
        <pt x="254" y="511" on="0"/>
        <pt x="308" y="511" on="1"/>
        <pt x="358" y="511" on="0"/>
        <pt x="443" y="475" on="0"/>
        <pt x="505" y="411" on="0"/>
        <pt x="541" y="323" on="0"/>
        <pt x="541" y="272" on="1"/>
        <pt x="541" y="215" on="0"/>
        <pt x="498" y="112" on="0"/>
        <pt x="425" y="35" on="0"/>
        <pt x="326" y="-10" on="0"/>
        <pt x="272" y="-10" on="1"/>
        <pt x="222" y="-10" on="0"/>
        <pt x="136" y="26" on="0"/>
        <pt x="74" y="90" on="0"/>
        <pt x="39" y="178" on="0"/>
      </contour>
      <contour>
        <pt x="275" y="56" on="1"/>
        <pt x="315" y="56" on="0"/>
        <pt x="386" y="90" on="0"/>
        <pt x="439" y="148" on="0"/>
        <pt x="470" y="225" on="0"/>
        <pt x="470" y="268" on="1"/>
        <pt x="470" y="343" on="0"/>
        <pt x="375" y="445" on="0"/>
        <pt x="305" y="445" on="1"/>
        <pt x="265" y="445" on="0"/>
        <pt x="194" y="411" on="0"/>
        <pt x="141" y="353" on="0"/>
        <pt x="110" y="276" on="0"/>
        <pt x="110" y="233" on="1"/>
        <pt x="110" y="158" on="0"/>
        <pt x="204" y="56" on="0"/>
      </contour>
    </TTGlyph>
    <TTGlyph name="oacute" xMin="39" yMin="-10" xMax="541" yMax="716">
      <component glyphName="o" x="0" y="0" flags="0x204"/>
      <component glyphName="acute" x="44" y="0" flags="0x4"/>
    </TTGlyph>
    <TTGlyph name="obreve" xMin="39" yMin="-10" xMax="541" yMax="729">
      <component glyphName="o" x="0" y="0" flags="0x204"/>
      <component glyphName="breve" x="7" y="0" flags="0x4"/>
    </TTGlyph>
    <TTGlyph name="ocircumflex" xMin="39" yMin="-10" xMax="541" yMax="717">
      <component glyphName="o" x="0" y="0" flags="0x204"/>
      <component glyphName="circumflex" x="7" y="0" flags="0x4"/>
    </TTGlyph>
    <TTGlyph name="odieresis" xMin="39" yMin="-10" xMax="541" yMax="700">
      <component glyphName="o" x="0" y="0" flags="0x204"/>
      <component glyphName="dieresis" x="-2" y="0" flags="0x4"/>
    </TTGlyph>
    <TTGlyph name="oe" xMin="39" yMin="-10" xMax="945" yMax="511">
      <contour>
        <pt x="39" y="229" on="1"/>
        <pt x="39" y="286" on="0"/>
        <pt x="82" y="389" on="0"/>
        <pt x="155" y="466" on="0"/>
        <pt x="254" y="511" on="0"/>
        <pt x="308" y="511" on="1"/>
        <pt x="377" y="511" on="0"/>
        <pt x="487" y="440" on="0"/>
        <pt x="515" y="383" on="1"/>
        <pt x="549" y="439" on="0"/>
        <pt x="664" y="509" on="0"/>
        <pt x="731" y="509" on="1"/>
        <pt x="777" y="509" on="0"/>
        <pt x="856" y="473" on="0"/>
        <pt x="913" y="410" on="0"/>
        <pt x="945" y="323" on="0"/>
        <pt x="945" y="273" on="1"/>
        <pt x="945" y="263" on="0"/>
        <pt x="944" y="244" on="0"/>
        <pt x="942" y="228" on="1"/>
        <pt x="540" y="228" on="1"/>
        <pt x="541" y="153" on="0"/>
        <pt x="640" y="55" on="0"/>
        <pt x="713" y="55" on="1"/>
        <pt x="750" y="55" on="0"/>
        <pt x="821" y="77" on="0"/>
        <pt x="848" y="96" on="1"/>
        <pt x="887" y="45" on="1"/>
        <pt x="846" y="17" on="0"/>
        <pt x="759" y="-9" on="0"/>
        <pt x="711" y="-9" on="1"/>
        <pt x="636" y="-9" on="0"/>
        <pt x="523" y="60" on="0"/>
        <pt x="495" y="118" on="1"/>
        <pt x="458" y="61" on="0"/>
        <pt x="341" y="-10" on="0"/>
        <pt x="272" y="-10" on="1"/>
        <pt x="222" y="-10" on="0"/>
        <pt x="136" y="26" on="0"/>
        <pt x="74" y="90" on="0"/>
        <pt x="39" y="178" on="0"/>
      </contour>
      <contour>
        <pt x="275" y="56" on="1"/>
        <pt x="315" y="56" on="0"/>
        <pt x="386" y="90" on="0"/>
        <pt x="439" y="148" on="0"/>
        <pt x="470" y="225" on="0"/>
        <pt x="470" y="268" on="1"/>
        <pt x="470" y="343" on="0"/>
        <pt x="375" y="445" on="0"/>
        <pt x="305" y="445" on="1"/>
        <pt x="265" y="445" on="0"/>
        <pt x="194" y="411" on="0"/>
        <pt x="141" y="353" on="0"/>
        <pt x="110" y="276" on="0"/>
        <pt x="110" y="233" on="1"/>
        <pt x="110" y="158" on="0"/>
        <pt x="204" y="56" on="0"/>
      </contour>
      <contour>
        <pt x="725" y="444" on="1"/>
        <pt x="662" y="444" on="0"/>
        <pt x="563" y="354" on="0"/>
        <pt x="547" y="287" on="1"/>
        <pt x="875" y="287" on="1"/>
        <pt x="871" y="355" on="0"/>
        <pt x="787" y="444" on="0"/>
      </contour>
    </TTGlyph>
    <TTGlyph name="ogonek" xMin="74" yMin="-222" xMax="258" yMax="18">
      <contour>
        <pt x="258" y="0" on="1"/>
        <pt x="191" y="-35" on="0"/>
        <pt x="127" y="-100" on="0"/>
        <pt x="127" y="-134" on="1"/>
        <pt x="127" y="-153" on="0"/>
        <pt x="155" y="-177" on="0"/>
        <pt x="177" y="-177" on="1"/>
        <pt x="188" y="-177" on="0"/>
        <pt x="213" y="-171" on="0"/>
        <pt x="223" y="-166" on="1"/>
        <pt x="228" y="-206" on="1"/>
        <pt x="212" y="-213" on="0"/>
        <pt x="179" y="-222" on="0"/>
        <pt x="162" y="-222" on="1"/>
        <pt x="122" y="-222" on="0"/>
        <pt x="74" y="-182" on="0"/>
        <pt x="74" y="-149" on="1"/>
        <pt x="74" y="-104" on="0"/>
        <pt x="152" y="-21" on="0"/>
        <pt x="229" y="18" on="1"/>
      </contour>
    </TTGlyph>
    <TTGlyph name="ograve" xMin="39" yMin="-10" xMax="541" yMax="716">
      <component glyphName="o" x="0" y="0" flags="0x204"/>
      <component glyphName="grave" x="9" y="0" flags="0x4"/>
    </TTGlyph>
    <TTGlyph name="ohungarumlaut" xMin="39" yMin="-10" xMax="591" yMax="716">
      <component glyphName="o" x="0" y="0" flags="0x204"/>
      <component glyphName="hungarumlaut" x="20" y="0" flags="0x4"/>
    </TTGlyph>
    <TTGlyph name="omacron" xMin="39" yMin="-10" xMax="541" yMax="674">
      <component glyphName="o" x="0" y="0" flags="0x204"/>
      <component glyphName="macron" x="7" y="0" flags="0x4"/>
    </TTGlyph>
    <TTGlyph name="one" xMin="89" yMin="0" xMax="310" yMax="700">
      <contour>
        <pt x="310" y="700" on="1"/>
        <pt x="161" y="0" on="1"/>
        <pt x="89" y="0" on="1"/>
        <pt x="222" y="623" on="1"/>
        <pt x="95" y="571" on="1"/>
        <pt x="109" y="638" on="1"/>
        <pt x="263" y="700" on="1"/>
      </contour>
    </TTGlyph>
    <TTGlyph name="onehalf" xMin="-11" yMin="0" xMax="608" yMax="700">
      <component glyphName="onesuperior" x="0" y="0" flags="0x4"/>
      <component glyphName="fraction" x="-14" y="0" flags="0x4"/>
      <component glyphName="uni2082" x="346" y="0" flags="0x4"/>
    </TTGlyph>
    <TTGlyph name="onequarter" xMin="-6" yMin="0" xMax="589" yMax="700">
      <component glyphName="uni2084" x="273" y="0" flags="0x4"/>
      <component glyphName="onesuperior" x="0" y="0" flags="0x4"/>
      <component glyphName="fraction" x="-9" y="0" flags="0x4"/>
    </TTGlyph>
    <TTGlyph name="onesuperior" xMin="97" yMin="350" xMax="228" yMax="700">
      <component glyphName="uni2081" x="74" y="350" flags="0x4"/>
    </TTGlyph>
    <TTGlyph name="ordfeminine" xMin="75" yMin="319" xMax="421" yMax="709">
      <contour>
        <pt x="204" y="319" on="1"/>
        <pt x="146" y="319" on="0"/>
        <pt x="75" y="377" on="0"/>
        <pt x="75" y="425" on="1"/>
        <pt x="75" y="481" on="0"/>
        <pt x="161" y="549" on="0"/>
        <pt x="230" y="549" on="1"/>
        <pt x="261" y="549" on="0"/>
        <pt x="323" y="532" on="0"/>
        <pt x="348" y="518" on="1"/>
        <pt x="357" y="559" on="1"/>
        <pt x="367" y="608" on="0"/>
        <pt x="323" y="657" on="0"/>
        <pt x="269" y="657" on="1"/>
        <pt x="247" y="657" on="0"/>
        <pt x="194" y="644" on="0"/>
        <pt x="157" y="629" on="1"/>
        <pt x="141" y="677" on="1"/>
        <pt x="180" y="693" on="0"/>
        <pt x="249" y="709" on="0"/>
        <pt x="280" y="709" on="1"/>
        <pt x="358" y="709" on="0"/>
        <pt x="431" y="630" on="0"/>
        <pt x="417" y="562" on="1"/>
        <pt x="366" y="325" on="1"/>
        <pt x="307" y="325" on="1"/>
        <pt x="313" y="354" on="1"/>
        <pt x="288" y="336" on="0"/>
        <pt x="234" y="319" on="0"/>
      </contour>
      <contour>
        <pt x="134" y="431" on="1"/>
        <pt x="134" y="400" on="0"/>
        <pt x="180" y="366" on="0"/>
        <pt x="221" y="366" on="1"/>
        <pt x="249" y="366" on="0"/>
        <pt x="301" y="384" on="0"/>
        <pt x="324" y="403" on="1"/>
        <pt x="338" y="471" on="1"/>
        <pt x="316" y="487" on="0"/>
        <pt x="263" y="504" on="0"/>
        <pt x="231" y="504" on="1"/>
        <pt x="188" y="504" on="0"/>
        <pt x="134" y="463" on="0"/>
      </contour>
    </TTGlyph>
    <TTGlyph name="ordmasculine" xMin="92" yMin="317" xMax="474" yMax="710">
      <contour>
        <pt x="92" y="498" on="1"/>
        <pt x="92" y="541" on="0"/>
        <pt x="125" y="618" on="0"/>
        <pt x="181" y="676" on="0"/>
        <pt x="256" y="710" on="0"/>
        <pt x="297" y="710" on="1"/>
        <pt x="372" y="710" on="0"/>
        <pt x="474" y="607" on="0"/>
        <pt x="474" y="529" on="1"/>
        <pt x="474" y="486" on="0"/>
        <pt x="441" y="409" on="0"/>
        <pt x="385" y="351" on="0"/>
        <pt x="311" y="317" on="0"/>
        <pt x="270" y="317" on="1"/>
        <pt x="194" y="317" on="0"/>
        <pt x="92" y="420" on="0"/>
      </contour>
      <contour>
        <pt x="414" y="526" on="1"/>
        <pt x="414" y="581" on="0"/>
        <pt x="344" y="655" on="0"/>
        <pt x="293" y="655" on="1"/>
        <pt x="236" y="655" on="0"/>
        <pt x="152" y="564" on="0"/>
        <pt x="152" y="501" on="1"/>
        <pt x="152" y="446" on="0"/>
        <pt x="222" y="372" on="0"/>
        <pt x="273" y="372" on="1"/>
        <pt x="330" y="372" on="0"/>
        <pt x="414" y="464" on="0"/>
      </contour>
    </TTGlyph>
    <TTGlyph name="oslash" xMin="-1" yMin="-10" xMax="581" yMax="511">
      <contour>
        <pt x="-1" y="0" on="1"/>
        <pt x="84" y="83" on="1"/>
        <pt x="62" y="113" on="0"/>
        <pt x="39" y="187" on="0"/>
        <pt x="39" y="229" on="1"/>
        <pt x="39" y="286" on="0"/>
        <pt x="82" y="389" on="0"/>
        <pt x="155" y="466" on="0"/>
        <pt x="254" y="511" on="0"/>
        <pt x="308" y="511" on="1"/>
        <pt x="353" y="511" on="0"/>
        <pt x="432" y="481" on="0"/>
        <pt x="462" y="454" on="1"/>
        <pt x="510" y="501" on="1"/>
        <pt x="581" y="501" on="1"/>
        <pt x="496" y="418" on="1"/>
        <pt x="517" y="388" on="0"/>
        <pt x="541" y="314" on="0"/>
        <pt x="541" y="272" on="1"/>
        <pt x="541" y="215" on="0"/>
        <pt x="498" y="112" on="0"/>
        <pt x="425" y="35" on="0"/>
        <pt x="326" y="-10" on="0"/>
        <pt x="272" y="-10" on="1"/>
        <pt x="226" y="-10" on="0"/>
        <pt x="147" y="20" on="0"/>
        <pt x="117" y="47" on="1"/>
        <pt x="69" y="0" on="1"/>
      </contour>
      <contour>
        <pt x="110" y="233" on="1"/>
        <pt x="110" y="205" on="0"/>
        <pt x="123" y="155" on="0"/>
        <pt x="136" y="134" on="1"/>
        <pt x="412" y="405" on="1"/>
        <pt x="391" y="424" on="0"/>
        <pt x="336" y="445" on="0"/>
        <pt x="305" y="445" on="1"/>
        <pt x="265" y="445" on="0"/>
        <pt x="194" y="411" on="0"/>
        <pt x="141" y="353" on="0"/>
        <pt x="110" y="276" on="0"/>
      </contour>
      <contour>
        <pt x="275" y="56" on="1"/>
        <pt x="315" y="56" on="0"/>
        <pt x="386" y="90" on="0"/>
        <pt x="439" y="148" on="0"/>
        <pt x="470" y="225" on="0"/>
        <pt x="470" y="268" on="1"/>
        <pt x="470" y="296" on="0"/>
        <pt x="456" y="346" on="0"/>
        <pt x="444" y="367" on="1"/>
        <pt x="167" y="96" on="1"/>
        <pt x="189" y="77" on="0"/>
        <pt x="244" y="56" on="0"/>
      </contour>
    </TTGlyph>
    <TTGlyph name="otilde" xMin="39" yMin="-10" xMax="541" yMax="705">
      <component glyphName="o" x="0" y="0" flags="0x204"/>
      <component glyphName="tilde" x="12" y="0" flags="0x4"/>
    </TTGlyph>
    <TTGlyph name="p" xMin="-34" yMin="-205" xMax="539" yMax="508">
      <contour>
        <pt x="-34" y="-205" on="1"/>
        <pt x="116" y="501" on="1"/>
        <pt x="188" y="501" on="1"/>
        <pt x="180" y="465" on="1"/>
        <pt x="211" y="486" on="0"/>
        <pt x="281" y="508" on="0"/>
        <pt x="318" y="508" on="1"/>
        <pt x="365" y="508" on="0"/>
        <pt x="447" y="473" on="0"/>
        <pt x="506" y="412" on="0"/>
        <pt x="539" y="327" on="0"/>
        <pt x="539" y="278" on="1"/>
        <pt x="539" y="219" on="0"/>
        <pt x="496" y="114" on="0"/>
        <pt x="421" y="36" on="0"/>
        <pt x="321" y="-9" on="0"/>
        <pt x="264" y="-9" on="1"/>
        <pt x="213" y="-9" on="0"/>
        <pt x="126" y="29" on="0"/>
        <pt x="95" y="64" on="1"/>
        <pt x="38" y="-205" on="1"/>
      </contour>
      <contour>
        <pt x="303" y="443" on="1"/>
        <pt x="264" y="443" on="0"/>
        <pt x="193" y="415" on="0"/>
        <pt x="165" y="390" on="1"/>
        <pt x="111" y="138" on="1"/>
        <pt x="131" y="101" on="0"/>
        <pt x="213" y="57" on="0"/>
        <pt x="262" y="57" on="1"/>
        <pt x="305" y="57" on="0"/>
        <pt x="380" y="91" on="0"/>
        <pt x="436" y="149" on="0"/>
        <pt x="468" y="228" on="0"/>
        <pt x="468" y="272" on="1"/>
        <pt x="468" y="347" on="0"/>
        <pt x="375" y="443" on="0"/>
      </contour>
    </TTGlyph>
    <TTGlyph name="paragraph" xMin="93" yMin="0" xMax="663" yMax="700">
      <contour>
        <pt x="263" y="0" on="1"/>
        <pt x="324" y="289" on="1"/>
        <pt x="289" y="289" on="1"/>
        <pt x="201" y="289" on="0"/>
        <pt x="93" y="388" on="0"/>
        <pt x="93" y="468" on="1"/>
        <pt x="93" y="518" on="0"/>
        <pt x="129" y="604" on="0"/>
        <pt x="192" y="665" on="0"/>
        <pt x="280" y="700" on="0"/>
        <pt x="331" y="700" on="1"/>
        <pt x="663" y="700" on="1"/>
        <pt x="514" y="0" on="1"/>
        <pt x="447" y="0" on="1"/>
        <pt x="509" y="289" on="1"/>
        <pt x="391" y="289" on="1"/>
        <pt x="330" y="0" on="1"/>
      </contour>
      <contour>
        <pt x="522" y="352" on="1"/>
        <pt x="583" y="637" on="1"/>
        <pt x="465" y="637" on="1"/>
        <pt x="405" y="352" on="1"/>
      </contour>
      <contour>
        <pt x="296" y="352" on="1"/>
        <pt x="338" y="352" on="1"/>
        <pt x="398" y="637" on="1"/>
        <pt x="326" y="637" on="1"/>
        <pt x="254" y="637" on="0"/>
        <pt x="162" y="547" on="0"/>
        <pt x="162" y="476" on="1"/>
        <pt x="162" y="419" on="0"/>
        <pt x="234" y="352" on="0"/>
      </contour>
    </TTGlyph>
    <TTGlyph name="parenleft" xMin="49" yMin="-212" xMax="429" yMax="711">
      <contour>
        <pt x="49" y="143" on="1"/>
        <pt x="49" y="235" on="0"/>
        <pt x="99" y="407" on="0"/>
        <pt x="190" y="555" on="0"/>
        <pt x="320" y="673" on="0"/>
        <pt x="400" y="711" on="1"/>
        <pt x="429" y="657" on="1"/>
        <pt x="361" y="626" on="0"/>
        <pt x="246" y="520" on="0"/>
        <pt x="165" y="386" on="0"/>
        <pt x="120" y="230" on="0"/>
        <pt x="120" y="149" on="1"/>
        <pt x="120" y="48" on="0"/>
        <pt x="192" y="-114" on="0"/>
        <pt x="259" y="-165" on="1"/>
        <pt x="211" y="-212" on="1"/>
        <pt x="132" y="-150" on="0"/>
        <pt x="49" y="30" on="0"/>
      </contour>
    </TTGlyph>
    <TTGlyph name="parenright" xMin="-47" yMin="-210" xMax="333" yMax="713">
      <contour>
        <pt x="333" y="358" on="1"/>
        <pt x="333" y="266" on="0"/>
        <pt x="283" y="94" on="0"/>
        <pt x="192" y="-54" on="0"/>
        <pt x="62" y="-172" on="0"/>
        <pt x="-18" y="-210" on="1"/>
        <pt x="-47" y="-156" on="1"/>
        <pt x="21" y="-125" on="0"/>
        <pt x="136" y="-19" on="0"/>
        <pt x="217" y="115" on="0"/>
        <pt x="262" y="271" on="0"/>
        <pt x="262" y="352" on="1"/>
        <pt x="262" y="453" on="0"/>
        <pt x="190" y="615" on="0"/>
        <pt x="123" y="666" on="1"/>
        <pt x="171" y="713" on="1"/>
        <pt x="250" y="651" on="0"/>
        <pt x="333" y="471" on="0"/>
      </contour>
    </TTGlyph>
    <TTGlyph name="percent" xMin="82" yMin="-5" xMax="720" yMax="705">
      <component glyphName="uni2070" x="0" y="0" flags="0x4"/>
      <component glyphName="fraction" x="102" y="0" flags="0x4"/>
      <component glyphName="uni2080" x="413" y="0" flags="0x4"/>
    </TTGlyph>
    <TTGlyph name="period" xMin="2" yMin="-6" xMax="103" yMax="96">
      <contour>
        <pt x="59" y="96" on="1"/>
        <pt x="78" y="96" on="0"/>
        <pt x="103" y="69" on="0"/>
        <pt x="103" y="50" on="1"/>
        <pt x="103" y="28" on="0"/>
        <pt x="69" y="-6" on="0"/>
        <pt x="47" y="-6" on="1"/>
        <pt x="28" y="-6" on="0"/>
        <pt x="2" y="20" on="0"/>
        <pt x="2" y="39" on="1"/>
        <pt x="2" y="61" on="0"/>
        <pt x="37" y="96" on="0"/>
      </contour>
    </TTGlyph>
    <TTGlyph name="periodcentered" xMin="55" yMin="231" xMax="156" yMax="333">
      <component glyphName="period" x="53" y="237" flags="0x4"/>
    </TTGlyph>
    <TTGlyph name="periodcentered.cap" xMin="108" yMin="296" xMax="209" yMax="398">
      <component glyphName="periodcentered" x="53" y="65" flags="0x4"/>
    </TTGlyph>
    <TTGlyph name="perthousand" xMin="82" yMin="-5" xMax="1060" yMax="705">
      <component glyphName="uni2070" x="0" y="0" flags="0x4"/>
      <component glyphName="fraction" x="102" y="0" flags="0x4"/>
      <component glyphName="uni2080" x="413" y="0" flags="0x4"/>
      <component glyphName="uni2080" x="753" y="0" flags="0x4"/>
    </TTGlyph>
    <TTGlyph name="plus" xMin="70" yMin="145" xMax="490" yMax="567">
      <contour>
        <pt x="265" y="145" on="1"/>
        <pt x="204" y="145" on="1"/>
        <pt x="243" y="327" on="1"/>
        <pt x="70" y="327" on="1"/>
        <pt x="83" y="389" on="1"/>
        <pt x="256" y="389" on="1"/>
        <pt x="294" y="567" on="1"/>
        <pt x="355" y="567" on="1"/>
        <pt x="317" y="389" on="1"/>
        <pt x="490" y="389" on="1"/>
        <pt x="477" y="327" on="1"/>
        <pt x="304" y="327" on="1"/>
      </contour>
    </TTGlyph>
    <TTGlyph name="plusminus" xMin="0" yMin="-1" xMax="495" yMax="585">
      <contour>
        <pt x="271" y="173" on="1"/>
        <pt x="210" y="173" on="1"/>
        <pt x="247" y="350" on="1"/>
        <pt x="75" y="350" on="1"/>
        <pt x="88" y="412" on="1"/>
        <pt x="260" y="412" on="1"/>
        <pt x="297" y="585" on="1"/>
        <pt x="358" y="585" on="1"/>
        <pt x="321" y="412" on="1"/>
        <pt x="495" y="412" on="1"/>
        <pt x="482" y="350" on="1"/>
        <pt x="308" y="350" on="1"/>
      </contour>
      <contour>
        <pt x="420" y="60" on="1"/>
        <pt x="407" y="-1" on="1"/>
        <pt x="0" y="-1" on="1"/>
        <pt x="13" y="60" on="1"/>
      </contour>
    </TTGlyph>
    <TTGlyph name="q" xMin="38" yMin="-205" xMax="568" yMax="508">
      <contour>
        <pt x="259" y="-8" on="1"/>
        <pt x="212" y="-8" on="0"/>
        <pt x="130" y="27" on="0"/>
        <pt x="71" y="88" on="0"/>
        <pt x="38" y="173" on="0"/>
        <pt x="38" y="222" on="1"/>
        <pt x="38" y="281" on="0"/>
        <pt x="81" y="385" on="0"/>
        <pt x="156" y="463" on="0"/>
        <pt x="257" y="508" on="0"/>
        <pt x="314" y="508" on="1"/>
        <pt x="365" y="508" on="0"/>
        <pt x="452" y="470" on="0"/>
        <pt x="483" y="436" on="1"/>
        <pt x="497" y="501" on="1"/>
        <pt x="568" y="501" on="1"/>
        <pt x="419" y="-205" on="1"/>
        <pt x="347" y="-205" on="1"/>
        <pt x="398" y="35" on="1"/>
        <pt x="367" y="14" on="0"/>
        <pt x="296" y="-8" on="0"/>
      </contour>
      <contour>
        <pt x="109" y="228" on="1"/>
        <pt x="109" y="153" on="0"/>
        <pt x="203" y="56" on="0"/>
        <pt x="275" y="56" on="1"/>
        <pt x="314" y="56" on="0"/>
        <pt x="386" y="85" on="0"/>
        <pt x="414" y="111" on="1"/>
        <pt x="467" y="363" on="1"/>
        <pt x="447" y="399" on="0"/>
        <pt x="365" y="443" on="0"/>
        <pt x="316" y="443" on="1"/>
        <pt x="273" y="443" on="0"/>
        <pt x="197" y="409" on="0"/>
        <pt x="141" y="351" on="0"/>
        <pt x="109" y="272" on="0"/>
      </contour>
    </TTGlyph>
    <TTGlyph name="question" xMin="94" yMin="-6" xMax="518" yMax="707">
      <contour>
        <pt x="387" y="371" on="1"/>
        <pt x="325" y="336" on="1"/>
        <pt x="284" y="313" on="0"/>
        <pt x="241" y="247" on="0"/>
        <pt x="234" y="196" on="1"/>
        <pt x="172" y="196" on="1"/>
        <pt x="182" y="267" on="0"/>
        <pt x="238" y="354" on="0"/>
        <pt x="292" y="385" on="1"/>
        <pt x="356" y="421" on="1"/>
        <pt x="398" y="446" on="0"/>
        <pt x="446" y="511" on="0"/>
        <pt x="446" y="545" on="1"/>
        <pt x="446" y="587" on="0"/>
        <pt x="372" y="641" on="0"/>
        <pt x="315" y="641" on="1"/>
        <pt x="269" y="641" on="0"/>
        <pt x="178" y="599" on="0"/>
        <pt x="140" y="562" on="1"/>
        <pt x="94" y="603" on="1"/>
        <pt x="144" y="653" on="0"/>
        <pt x="264" y="707" on="0"/>
        <pt x="325" y="707" on="1"/>
        <pt x="409" y="707" on="0"/>
        <pt x="518" y="622" on="0"/>
        <pt x="518" y="554" on="1"/>
        <pt x="518" y="499" on="0"/>
        <pt x="455" y="411" on="0"/>
      </contour>
      <contour>
        <pt x="178" y="96" on="1"/>
        <pt x="197" y="96" on="0"/>
        <pt x="223" y="69" on="0"/>
        <pt x="223" y="50" on="1"/>
        <pt x="223" y="28" on="0"/>
        <pt x="188" y="-6" on="0"/>
        <pt x="166" y="-6" on="1"/>
        <pt x="147" y="-6" on="0"/>
        <pt x="122" y="20" on="0"/>
        <pt x="122" y="39" on="1"/>
        <pt x="122" y="61" on="0"/>
        <pt x="156" y="96" on="0"/>
      </contour>
    </TTGlyph>
    <TTGlyph name="questiondown" xMin="21" yMin="-4" xMax="445" yMax="709">
      <contour>
        <pt x="152" y="332" on="1"/>
        <pt x="214" y="367" on="1"/>
        <pt x="255" y="390" on="0"/>
        <pt x="298" y="456" on="0"/>
        <pt x="305" y="507" on="1"/>
        <pt x="367" y="507" on="1"/>
        <pt x="357" y="436" on="0"/>
        <pt x="301" y="349" on="0"/>
        <pt x="247" y="318" on="1"/>
        <pt x="183" y="282" on="1"/>
        <pt x="141" y="257" on="0"/>
        <pt x="93" y="192" on="0"/>
        <pt x="93" y="158" on="1"/>
        <pt x="93" y="116" on="0"/>
        <pt x="167" y="62" on="0"/>
        <pt x="224" y="62" on="1"/>
        <pt x="270" y="62" on="0"/>
        <pt x="361" y="104" on="0"/>
        <pt x="399" y="141" on="1"/>
        <pt x="445" y="100" on="1"/>
        <pt x="395" y="50" on="0"/>
        <pt x="275" y="-4" on="0"/>
        <pt x="214" y="-4" on="1"/>
        <pt x="130" y="-4" on="0"/>
        <pt x="21" y="81" on="0"/>
        <pt x="21" y="149" on="1"/>
        <pt x="21" y="204" on="0"/>
        <pt x="84" y="292" on="0"/>
      </contour>
      <contour>
        <pt x="361" y="607" on="1"/>
        <pt x="342" y="607" on="0"/>
        <pt x="316" y="634" on="0"/>
        <pt x="316" y="653" on="1"/>
        <pt x="316" y="675" on="0"/>
        <pt x="351" y="709" on="0"/>
        <pt x="373" y="709" on="1"/>
        <pt x="392" y="709" on="0"/>
        <pt x="417" y="683" on="0"/>
        <pt x="417" y="664" on="1"/>
        <pt x="417" y="642" on="0"/>
        <pt x="383" y="607" on="0"/>
      </contour>
    </TTGlyph>
    <TTGlyph name="quotedbl" xMin="117" yMin="497" xMax="352" yMax="701">
      <component glyphName="quotesingle" x="0" y="0" flags="0x4"/>
      <component glyphName="quotesingle" x="128" y="0" flags="0x4"/>
    </TTGlyph>
    <TTGlyph name="quotedblbase" xMin="-66" yMin="-137" xMax="251" yMax="74">
      <component glyphName="comma" x="136" y="0" flags="0x4"/>
      <component glyphName="comma" x="0" y="0" flags="0x4"/>
    </TTGlyph>
    <TTGlyph name="quotedblleft" xMin="88" yMin="508" xMax="405" yMax="719">
      <contour>
        <pt x="168" y="508" on="1"/>
        <pt x="88" y="508" on="1"/>
        <pt x="211" y="719" on="1"/>
        <pt x="269" y="719" on="1"/>
      </contour>
      <contour>
        <pt x="304" y="508" on="1"/>
        <pt x="224" y="508" on="1"/>
        <pt x="347" y="719" on="1"/>
        <pt x="405" y="719" on="1"/>
      </contour>
    </TTGlyph>
</ttFont>
